<svg width="289" height="2712" viewBox="0 0 289 2712" fill="none" xmlns="http://www.w3.org/2000/svg">
    <ellipse cx="144" cy="2685" rx="112" ry="27" fill="#837A7A" fill-opacity="0.3" />
    <g class="ground">
        <path
            d="M231.008 2638.05C247.003 2640.29 253.667 2645.52 255 2647.86C251.192 2653.27 213.786 2664.62 94.8078 2666.96C94.0563 2666.97 87.1549 2666.25 65.562 2663.26C38.5709 2659.53 46.0684 2656.26 39.0707 2643.66C32.073 2631.05 61.0635 2638.05 77.0582 2631.98C93.053 2625.91 172.027 2635.72 179.525 2635.72C187.022 2635.72 211.014 2635.25 231.008 2638.05Z"
            fill="#9E6F44" />
        <path
            d="M218.204 2638.96C230.735 2640.9 235.956 2645.43 237 2647.44C234.017 2652.13 204.712 2661.94 111.504 2663.96C110.915 2663.98 105.508 2663.35 88.5924 2660.77C67.4472 2657.54 73.3209 2654.71 67.8388 2643.81C62.3567 2632.91 67.4695 2636.25 80 2631C92.5305 2625.75 171.998 2636.95 177.872 2636.95C183.746 2636.95 202.541 2636.54 218.204 2638.96Z"
            fill="#966639" />
        <path
            d="M182.85 2632C182.85 2633.93 181.753 2635.32 179.711 2636.34C177.662 2637.36 174.682 2637.98 170.976 2638.35C165.098 2638.95 157.439 2638.91 148.867 2638.87C146.635 2638.86 144.341 2638.85 142 2638.85C139.659 2638.85 137.365 2638.86 135.133 2638.87C126.561 2638.91 118.902 2638.95 113.024 2638.35C109.318 2637.98 106.338 2637.36 104.289 2636.34C102.247 2635.32 101.15 2633.93 101.15 2632C101.15 2630.07 102.358 2628.17 104.659 2626.48C106.958 2624.8 110.328 2623.36 114.598 2622.33C123.133 2620.28 135.23 2619.9 149.458 2622.64C152.348 2623.77 155.89 2624.43 159.567 2624.91C161.673 2625.18 163.835 2625.39 165.947 2625.6C167.522 2625.76 169.069 2625.91 170.545 2626.08C174.014 2626.49 177.105 2627 179.326 2627.91C181.547 2628.81 182.85 2630.09 182.85 2632Z"
            fill="#C4C4C4" stroke="black" stroke-width="0.3" />
        <path
            d="M140.436 2607C142.218 2612.6 143.495 2629.33 143.911 2637L144 2637.5C143.97 2637.33 143.84 2637.4 143.554 2639C143.198 2641 142.574 2631.5 141.149 2623.5C139.723 2615.5 139.277 2613.5 137.584 2610C136.23 2607.2 135.297 2600.17 135 2597C136.069 2598 138.653 2601.4 140.436 2607Z"
            fill="#109B1D" />
        <path
            d="M140.572 2608.54C142.018 2613.05 143.055 2626.51 143.393 2632.67L143.644 2636.5C143.619 2636.37 143.376 2636 143.104 2634.28C142.833 2632.58 142.308 2628.25 141.15 2621.82C139.993 2615.38 139.631 2613.77 138.256 2610.96C137.157 2608.7 136.4 2603.05 136.158 2600.5C137.027 2601.3 139.125 2604.04 140.572 2608.54Z"
            fill="#1DB82D" />
    </g>
    <g class="winded line">
        <path d="M144.5 422.5L144.5 2648" stroke="#D22C90" stroke-width="5" />
    </g>
    <g class="ground">
        <path
            d="M126.5 2607C136.5 2612.6 143.667 2629.33 146 2637L146.5 2637.5C146.333 2637.33 145.6 2637.4 144 2639C142 2641 138.5 2631.5 130.5 2623.5C122.5 2615.5 120 2613.5 110.5 2610C102.9 2607.2 97.6667 2600.17 96 2597C102 2598 116.5 2601.4 126.5 2607Z"
            fill="#109B1D" />
        <path
            d="M127.262 2608.54C135.381 2613.05 141.2 2626.51 143.094 2632.67L144.5 2636.5C144.365 2636.37 143 2636 141.47 2634.28C139.95 2632.58 137.005 2628.25 130.51 2621.82C124.015 2615.38 121.985 2613.77 114.272 2610.96C108.102 2608.7 103.853 2603.05 102.5 2600.5C107.371 2601.3 119.144 2604.04 127.262 2608.54Z"
            fill="#1DB82D" />
        <path
            d="M155.861 2607C148.931 2612.6 143.964 2629.33 142.347 2637L142 2637.5C142.116 2637.33 142.624 2637.4 143.733 2639C145.119 2641 147.545 2631.5 153.089 2623.5C158.634 2615.5 160.366 2613.5 166.95 2610C172.218 2607.2 175.845 2600.17 177 2597C172.842 2598 162.792 2601.4 155.861 2607Z"
            fill="#109B1D" />
        <path
            d="M155.333 2608.54C149.706 2613.05 145.674 2626.51 144.361 2632.67L143.386 2636.5C143.48 2636.37 144.426 2636 145.486 2634.28C146.54 2632.58 148.581 2628.25 153.082 2621.82C157.584 2615.38 158.99 2613.77 164.336 2610.96C168.612 2608.7 171.557 2603.05 172.495 2600.5C169.119 2601.3 160.96 2604.04 155.333 2608.54Z"
            fill="#1DB82D" />
        <path
            d="M206.079 2646.06L206.085 2646.07L206.093 2646.08C206.556 2646.76 206.759 2647.35 206.74 2647.87C206.722 2648.39 206.485 2648.87 206.017 2649.3C205.071 2650.19 203.212 2650.88 200.49 2651.41C195.059 2652.47 186.323 2652.85 175 2652.85C172.742 2652.85 170.43 2652.86 168.097 2652.87C158.727 2652.91 149.021 2652.95 141.128 2652.35C136.198 2651.98 131.989 2651.35 129.016 2650.33C127.53 2649.82 126.363 2649.21 125.571 2648.49C124.782 2647.77 124.367 2646.95 124.367 2646C124.367 2645.05 124.787 2644.13 125.581 2643.27C126.376 2642.4 127.54 2641.59 129.009 2640.84C131.947 2639.34 136.076 2638.11 140.824 2637.21C150.318 2635.4 162.248 2634.9 171.981 2636.15L172.025 2636.15L172.066 2636.13C181.293 2631.65 188.498 2631.16 194.036 2633.26C199.575 2635.37 203.48 2640.08 206.079 2646.06Z"
            fill="#C4C4C4" stroke="black" stroke-width="0.3" />
        <path
            d="M150.358 2648.11C150.461 2649.54 150.201 2650.75 149.63 2651.78C149.045 2652.83 148.128 2653.7 146.92 2654.42C144.5 2655.85 140.931 2656.66 136.601 2657.1C130.536 2657.71 123.025 2657.59 115.173 2657.46C111.816 2657.41 108.396 2657.35 105 2657.35C93.6777 2657.35 86.961 2656.35 83.0768 2654.37C81.1408 2653.38 79.914 2652.15 79.1682 2650.69C78.4252 2649.22 78.1531 2647.51 78.15 2645.53C79.8896 2641.94 81.8954 2639.25 84.2722 2637.23C86.6554 2635.21 89.4182 2633.86 92.6737 2632.96C99.1939 2631.15 107.67 2631.15 119 2631.15C124.654 2631.15 127.926 2631.78 130.034 2632.81C132.132 2633.83 133.094 2635.27 134.113 2636.95C134.182 2637.07 134.252 2637.18 134.322 2637.3C135.286 2638.9 136.368 2640.7 138.541 2642.51C140.858 2644.43 144.406 2646.37 150.358 2648.11Z"
            fill="#C4C4C4" stroke="black" stroke-width="0.3" />
    </g>
    <g class="winded baloon-obj">
        <path fill-rule="evenodd" clip-rule="evenodd"
            d="M0 209.249C1.0103e-05 93.6839 64.4724 -6.95279e-06 144.003 0C223.534 6.95279e-06 288.006 93.684 288.006 209.249C288.006 320.921 227.804 412.161 151.987 418.182C151.827 419.331 150.157 420.306 147.816 420.747C147.935 420.985 148 421.238 148 421.5C148 422.881 146.209 424 144 424C141.791 424 140 422.881 140 421.5C140 421.063 140.179 420.653 140.494 420.296C139.149 419.81 138.236 419.112 138.04 418.322C61.2744 413.778 -9.84926e-06 321.911 0 209.249Z"
            fill="url(#paint0_linear_21_767)" />
        <line x1="208.691" y1="183.68" x2="233.691" y2="213.68" stroke="#E703D0" />
        <line x1="212.691" y1="179.68" x2="237.691" y2="209.68" stroke="#E703D0" />
        <line x1="231.967" y1="180.547" x2="204.354" y2="208.16" stroke="#E703D0" />
        <line x1="239.967" y1="189.547" x2="212.354" y2="217.16" stroke="#E703D0" />
        <line x1="234.967" y1="185.547" x2="207.354" y2="213.16" stroke="#E703D0" />
        <line x1="132.919" y1="287.468" x2="171.81" y2="291.003" stroke="#E703D0" />
        <line x1="132.919" y1="281.811" x2="171.81" y2="285.346" stroke="#E703D0" />
        <line x1="147.162" y1="268.793" x2="147.162" y2="307.845" stroke="#E703D0" />
        <line x1="159.183" y1="269.501" x2="159.183" y2="308.552" stroke="#E703D0" />
        <line x1="152.819" y1="270.208" x2="152.819" y2="309.259" stroke="#E703D0" />
        <line y1="-0.5" x2="29.1202" y2="-0.5" transform="matrix(0.984146 -0.177361 -0.329676 0.944094 39.4796 107.744)"
            stroke="#E703D0" />
        <line y1="-0.5" x2="29.1202" y2="-0.5" transform="matrix(0.984146 -0.177361 -0.329676 0.944094 40.6192 103.472)"
            stroke="#E703D0" />
        <line y1="-0.5" x2="30.5232" y2="-0.5" transform="matrix(-0.257744 0.966213 -0.966213 0.257744 53.7552 90.4874)"
            stroke="#E703D0" />
        <line y1="-0.5" x2="30.5232" y2="-0.5" transform="matrix(-0.257744 0.966213 -0.966213 0.257744 62.691 88.5997)"
            stroke="#E703D0" />
        <line y1="-0.5" x2="30.5232" y2="-0.5" transform="matrix(-0.257744 0.966213 -0.966213 0.257744 57.7424 90.4158)"
            stroke="#E703D0" />
        <path
            d="M81 28C81 18.0588 108.982 1.99996 143.5 1.99997C178.018 1.99997 206 18.0589 206 28C206 37.9411 178.018 46 143.5 46C108.982 46 81 37.9411 81 28Z"
            fill="#DE22CB" />
        <path
            d="M203 38.3182C203 36.2847 206.134 33 210 33C213.866 33 217 36.2847 217 38.3182C217 40.3516 213.866 42 210 42C206.134 42 203 40.3516 203 38.3182Z"
            fill="#DE22CB" />
        <path
            d="M111 53.1568C111 49.7545 117.123 45 120.982 45C124.84 45 121.98 49.7545 121.98 53.1568C121.98 56.5591 120.349 61 116.49 61C112.631 61 111 56.5591 111 53.1568Z"
            fill="#DE22CB" />
        <path
            d="M186 52.6274C186 49.863 179.877 46 176.018 46C172.16 46 175.02 49.863 175.02 52.6274C175.02 55.3918 176.651 59 180.51 59C184.369 59 186 55.3918 186 52.6274Z"
            fill="#DE22CB" />
        <path
            d="M76.778 36.421C80.5812 32 81.8241 32 84.7648 32C87.7054 32 84.7648 34.5789 82.4828 39C80.5812 42.6842 78.1974 46 75.2567 46C72.3161 46 75.2567 39.7368 76.778 36.421Z"
            fill="#DE22CB" />
    </g>
    <defs>
        <linearGradient id="paint0_linear_21_767" x1="144.003" y1="0" x2="144.003" y2="424"
            gradientUnits="userSpaceOnUse">
            <stop offset="0.737205" stop-color="#D314C0" />
            <stop offset="0.740293" stop-color="#D314C0" />
            <stop offset="0.95025" stop-color="#82537D" />
        </linearGradient>
    </defs>
</svg>