<svg width="467" height="340" viewBox="0 0 467 340" fill="none" xmlns="http://www.w3.org/2000/svg">
<g clip-path="url(#clip0_20_308)">
<path d="M272.027 59.938C280.779 59.938 287.874 52.8355 287.874 44.0741C287.874 35.3127 280.779 28.2101 272.027 28.2101C263.274 28.2101 256.179 35.3127 256.179 44.0741C256.179 52.8355 263.274 59.938 272.027 59.938Z" fill="#F2F2F2"/>
<path d="M393.281 296.934C416.837 278.974 428.088 248.794 421.045 220.004C420.87 219.288 420.685 218.575 420.49 217.863C415.821 200.773 404.268 184.531 387.431 179.07C373.293 174.486 357.862 178.011 343.112 176.188C314.159 172.609 291.713 149.158 275.918 124.605C260.124 100.052 247.986 72.5688 226.999 52.2845C192.405 18.8492 135.974 11.6505 93.0831 33.4144C50.1919 55.1784 22.8707 103.463 24.0359 151.586C25.2011 199.708 53.7398 245.716 95.185 270.126C110.41 279.094 128.02 285.446 145.545 283.223C160.751 281.294 174.568 273.115 189.703 270.687C213.498 266.869 237.141 277.639 257.723 290.189C278.304 302.739 298.183 317.614 321.571 323.432C344.28 329.082 372.415 312.844 393.281 296.934Z" fill="#F2F2F2"/>
<path d="M361.118 32.8677C360.602 32.5231 360.079 32.1963 359.563 31.8636C344.636 22.3074 328.637 14.544 311.897 8.73383L308.015 62.3369H283.407V0.90903C281.858 0.588196 280.297 0.285186 278.736 0V62.3369H249.493C233.394 62.3369 217.955 55.9352 206.572 44.5401C195.188 33.1449 188.793 17.6897 188.793 1.57453V1.57448C187.226 1.91314 185.671 2.27556 184.116 2.66175V62.337H160.298L156.6 11.2233C139.396 17.8279 123.064 26.5133 107.966 37.0861C107.705 37.2643 107.444 37.4485 107.189 37.6268C105.877 38.5477 104.583 39.4864 103.295 40.437V244.933H173.492L172.251 227.733L165.426 133.295H302.881L296.055 227.733L294.815 244.933H364.234V34.9353C363.201 34.2343 362.163 33.5451 361.118 32.8677ZM184.116 117.699H164.298L160.636 67.0188H184.116V117.699ZM278.736 117.699H245.451V116.695C245.451 116.212 245.356 115.734 245.172 115.288C244.987 114.842 244.716 114.437 244.375 114.096C244.034 113.755 243.629 113.485 243.183 113.301C242.737 113.116 242.26 113.022 241.777 113.023H227.307C226.825 113.023 226.348 113.118 225.903 113.302C225.458 113.486 225.054 113.757 224.713 114.098C224.372 114.439 224.102 114.844 223.918 115.289C223.734 115.735 223.639 116.212 223.639 116.695V117.699H188.793V67.0188H278.736V117.699ZM283.407 117.699V67.0188H307.677L304.015 117.699H283.407Z" fill="#3F3D56"/>
<path d="M-3.05176e-05 258.029C5.1561 264.144 10.733 269.892 16.69 275.229L450.31 275.823C456.267 270.486 461.844 264.738 467 258.623L-3.05176e-05 258.029Z" fill="#3F3D56"/>
<path d="M294.052 202.952V253.872C294.052 254.521 294.31 255.143 294.768 255.602C295.227 256.061 295.848 256.319 296.497 256.32H371.877C372.526 256.319 373.147 256.061 373.605 255.602C374.064 255.143 374.322 254.521 374.322 253.872V202.952C374.321 202.304 374.062 201.683 373.604 201.224C373.146 200.766 372.525 200.509 371.877 200.508H296.497C295.849 200.509 295.228 200.766 294.77 201.224C294.311 201.683 294.053 202.304 294.052 202.952Z" fill="#3F3D56"/>
<path d="M295.82 203.586V253.244C295.821 253.591 295.959 253.923 296.203 254.168C296.448 254.414 296.78 254.552 297.127 254.552H371.25C371.596 254.552 371.928 254.414 372.173 254.168C372.418 253.923 372.556 253.591 372.556 253.244V203.586C372.556 203.239 372.419 202.906 372.174 202.66C371.929 202.414 371.597 202.276 371.25 202.275H297.127C296.78 202.276 296.448 202.414 296.203 202.66C295.958 202.906 295.82 203.239 295.82 203.586Z" fill="#CF25BE"/>
<path d="M292.475 263.803C292.613 263.976 292.789 264.116 292.989 264.212C293.188 264.308 293.407 264.357 293.629 264.356H374.344C374.565 264.355 374.782 264.306 374.982 264.211C375.181 264.115 375.356 263.977 375.495 263.805C375.634 263.634 375.734 263.433 375.785 263.219C375.837 263.004 375.841 262.78 375.796 262.564L374.543 256.606C374.491 256.363 374.379 256.137 374.217 255.949C374.056 255.76 373.85 255.615 373.618 255.526C373.45 255.46 373.271 255.427 373.091 255.427H294.877C294.696 255.427 294.518 255.46 294.35 255.526C294.118 255.615 293.912 255.76 293.75 255.949C293.589 256.137 293.477 256.363 293.425 256.606L292.172 262.564C292.127 262.78 292.131 263.003 292.184 263.218C292.236 263.432 292.336 263.632 292.475 263.803Z" fill="#2F2E41"/>
<path d="M370.321 257.993H372.228C372.388 257.993 372.518 257.863 372.518 257.703V256.79C372.518 256.629 372.388 256.5 372.228 256.5H370.321C370.161 256.5 370.032 256.629 370.032 256.79V257.703C370.032 257.863 370.161 257.993 370.321 257.993Z" fill="#3F3D56"/>
<path d="M365.349 257.993H367.256C367.416 257.993 367.546 257.863 367.546 257.703V256.79C367.546 256.629 367.416 256.5 367.256 256.5H365.349C365.189 256.5 365.06 256.629 365.06 256.79V257.703C365.06 257.863 365.189 257.993 365.349 257.993Z" fill="#3F3D56"/>
<path d="M360.377 257.993H362.284C362.444 257.993 362.574 257.863 362.574 257.703V256.79C362.574 256.629 362.444 256.5 362.284 256.5H360.377C360.217 256.5 360.088 256.629 360.088 256.79V257.703C360.088 257.863 360.217 257.993 360.377 257.993Z" fill="#3F3D56"/>
<path d="M355.405 257.993H357.312C357.472 257.993 357.602 257.863 357.602 257.703V256.79C357.602 256.629 357.472 256.5 357.312 256.5H355.405C355.245 256.5 355.116 256.629 355.116 256.79V257.703C355.116 257.863 355.245 257.993 355.405 257.993Z" fill="#3F3D56"/>
<path d="M350.433 257.993H352.34C352.5 257.993 352.63 257.863 352.63 257.703V256.79C352.63 256.629 352.5 256.5 352.34 256.5H350.433C350.273 256.5 350.144 256.629 350.144 256.79V257.703C350.144 257.863 350.273 257.993 350.433 257.993Z" fill="#3F3D56"/>
<path d="M345.461 257.993H347.368C347.528 257.993 347.658 257.863 347.658 257.703V256.79C347.658 256.629 347.528 256.5 347.368 256.5H345.461C345.301 256.5 345.172 256.629 345.172 256.79V257.703C345.172 257.863 345.301 257.993 345.461 257.993Z" fill="#3F3D56"/>
<path d="M340.489 257.993H342.396C342.556 257.993 342.686 257.863 342.686 257.703V256.79C342.686 256.629 342.556 256.5 342.396 256.5H340.489C340.329 256.5 340.2 256.629 340.2 256.79V257.703C340.2 257.863 340.329 257.993 340.489 257.993Z" fill="#3F3D56"/>
<path d="M335.518 257.993H337.424C337.584 257.993 337.714 257.863 337.714 257.703V256.79C337.714 256.629 337.584 256.5 337.424 256.5H335.518C335.357 256.5 335.228 256.629 335.228 256.79V257.703C335.228 257.863 335.357 257.993 335.518 257.993Z" fill="#3F3D56"/>
<path d="M330.546 257.993H332.452C332.612 257.993 332.742 257.863 332.742 257.703V256.79C332.742 256.629 332.612 256.5 332.452 256.5H330.546C330.386 256.5 330.256 256.629 330.256 256.79V257.703C330.256 257.863 330.386 257.993 330.546 257.993Z" fill="#3F3D56"/>
<path d="M325.574 257.993H327.48C327.64 257.993 327.77 257.863 327.77 257.703V256.79C327.77 256.629 327.64 256.5 327.48 256.5H325.574C325.413 256.5 325.284 256.629 325.284 256.79V257.703C325.284 257.863 325.413 257.993 325.574 257.993Z" fill="#3F3D56"/>
<path d="M320.602 257.993H322.508C322.668 257.993 322.798 257.863 322.798 257.703V256.79C322.798 256.629 322.668 256.5 322.508 256.5H320.602C320.442 256.5 320.312 256.629 320.312 256.79V257.703C320.312 257.863 320.442 257.993 320.602 257.993Z" fill="#3F3D56"/>
<path d="M315.63 257.993H317.536C317.696 257.993 317.826 257.863 317.826 257.703V256.79C317.826 256.629 317.696 256.5 317.536 256.5H315.63C315.47 256.5 315.34 256.629 315.34 256.79V257.703C315.34 257.863 315.47 257.993 315.63 257.993Z" fill="#3F3D56"/>
<path d="M310.658 257.993H312.564C312.724 257.993 312.854 257.863 312.854 257.703V256.79C312.854 256.629 312.724 256.5 312.564 256.5H310.658C310.498 256.5 310.368 256.629 310.368 256.79V257.703C310.368 257.863 310.498 257.993 310.658 257.993Z" fill="#3F3D56"/>
<path d="M305.686 257.993H307.592C307.752 257.993 307.882 257.863 307.882 257.703V256.79C307.882 256.629 307.752 256.5 307.592 256.5H305.686C305.526 256.5 305.396 256.629 305.396 256.79V257.703C305.396 257.863 305.526 257.993 305.686 257.993Z" fill="#3F3D56"/>
<path d="M300.714 257.993H302.62C302.78 257.993 302.91 257.863 302.91 257.703V256.79C302.91 256.629 302.78 256.5 302.62 256.5H300.714C300.554 256.5 300.424 256.629 300.424 256.79V257.703C300.424 257.863 300.554 257.993 300.714 257.993Z" fill="#3F3D56"/>
<path d="M295.742 257.993H297.648C297.808 257.993 297.938 257.863 297.938 257.703V256.79C297.938 256.629 297.808 256.5 297.648 256.5H295.742C295.582 256.5 295.452 256.629 295.452 256.79V257.703C295.452 257.863 295.582 257.993 295.742 257.993Z" fill="#3F3D56"/>
<path d="M370.38 260.481H372.287C372.447 260.481 372.576 260.351 372.576 260.191V259.278C372.576 259.118 372.447 258.988 372.287 258.988H370.38C370.22 258.988 370.09 259.118 370.09 259.278V260.191C370.09 260.351 370.22 260.481 370.38 260.481Z" fill="#3F3D56"/>
<path d="M365.408 260.481H367.315C367.475 260.481 367.604 260.351 367.604 260.191V259.278C367.604 259.118 367.475 258.988 367.315 258.988H365.408C365.248 258.988 365.118 259.118 365.118 259.278V260.191C365.118 260.351 365.248 260.481 365.408 260.481Z" fill="#3F3D56"/>
<path d="M360.436 260.481H362.343C362.503 260.481 362.632 260.351 362.632 260.191V259.278C362.632 259.118 362.503 258.988 362.343 258.988H360.436C360.276 258.988 360.146 259.118 360.146 259.278V260.191C360.146 260.351 360.276 260.481 360.436 260.481Z" fill="#3F3D56"/>
<path d="M355.464 260.481H357.371C357.531 260.481 357.66 260.351 357.66 260.191V259.278C357.66 259.118 357.531 258.988 357.371 258.988H355.464C355.304 258.988 355.174 259.118 355.174 259.278V260.191C355.174 260.351 355.304 260.481 355.464 260.481Z" fill="#3F3D56"/>
<path d="M350.492 260.481H352.399C352.559 260.481 352.688 260.351 352.688 260.191V259.278C352.688 259.118 352.559 258.988 352.399 258.988H350.492C350.332 258.988 350.202 259.118 350.202 259.278V260.191C350.202 260.351 350.332 260.481 350.492 260.481Z" fill="#3F3D56"/>
<path d="M345.52 260.481H347.427C347.587 260.481 347.716 260.351 347.716 260.191V259.278C347.716 259.118 347.587 258.988 347.427 258.988H345.52C345.36 258.988 345.23 259.118 345.23 259.278V260.191C345.23 260.351 345.36 260.481 345.52 260.481Z" fill="#3F3D56"/>
<path d="M340.548 260.481H342.455C342.615 260.481 342.745 260.351 342.745 260.191V259.278C342.745 259.118 342.615 258.988 342.455 258.988H340.548C340.388 258.988 340.258 259.118 340.258 259.278V260.191C340.258 260.351 340.388 260.481 340.548 260.481Z" fill="#3F3D56"/>
<path d="M335.576 260.481H337.483C337.643 260.481 337.772 260.351 337.772 260.191V259.278C337.772 259.118 337.643 258.988 337.483 258.988H335.576C335.416 258.988 335.286 259.118 335.286 259.278V260.191C335.286 260.351 335.416 260.481 335.576 260.481Z" fill="#3F3D56"/>
<path d="M330.604 260.481H332.511C332.671 260.481 332.8 260.351 332.8 260.191V259.278C332.8 259.118 332.671 258.988 332.511 258.988H330.604C330.444 258.988 330.315 259.118 330.315 259.278V260.191C330.315 260.351 330.444 260.481 330.604 260.481Z" fill="#3F3D56"/>
<path d="M325.632 260.481H327.539C327.699 260.481 327.829 260.351 327.829 260.191V259.278C327.829 259.118 327.699 258.988 327.539 258.988H325.632C325.472 258.988 325.343 259.118 325.343 259.278V260.191C325.343 260.351 325.472 260.481 325.632 260.481Z" fill="#3F3D56"/>
<path d="M320.66 260.481H322.567C322.727 260.481 322.857 260.351 322.857 260.191V259.278C322.857 259.118 322.727 258.988 322.567 258.988H320.66C320.5 258.988 320.371 259.118 320.371 259.278V260.191C320.371 260.351 320.5 260.481 320.66 260.481Z" fill="#3F3D56"/>
<path d="M315.688 260.481H317.595C317.755 260.481 317.885 260.351 317.885 260.191V259.278C317.885 259.118 317.755 258.988 317.595 258.988H315.688C315.528 258.988 315.399 259.118 315.399 259.278V260.191C315.399 260.351 315.528 260.481 315.688 260.481Z" fill="#3F3D56"/>
<path d="M310.716 260.481H312.623C312.783 260.481 312.913 260.351 312.913 260.191V259.278C312.913 259.118 312.783 258.988 312.623 258.988H310.716C310.556 258.988 310.427 259.118 310.427 259.278V260.191C310.427 260.351 310.556 260.481 310.716 260.481Z" fill="#3F3D56"/>
<path d="M305.744 260.481H307.651C307.811 260.481 307.941 260.351 307.941 260.191V259.278C307.941 259.118 307.811 258.988 307.651 258.988H305.744C305.584 258.988 305.455 259.118 305.455 259.278V260.191C305.455 260.351 305.584 260.481 305.744 260.481Z" fill="#3F3D56"/>
<path d="M300.772 260.481H302.679C302.839 260.481 302.969 260.351 302.969 260.191V259.278C302.969 259.118 302.839 258.988 302.679 258.988H300.772C300.612 258.988 300.483 259.118 300.483 259.278V260.191C300.483 260.351 300.612 260.481 300.772 260.481Z" fill="#3F3D56"/>
<path d="M295.8 260.481H297.707C297.867 260.481 297.997 260.351 297.997 260.191V259.278C297.997 259.118 297.867 258.988 297.707 258.988H295.8C295.64 258.988 295.511 259.118 295.511 259.278V260.191C295.511 260.351 295.64 260.481 295.8 260.481Z" fill="#3F3D56"/>
<path d="M329.113 263.468H348.421C348.581 263.468 348.711 263.338 348.711 263.177V262.264C348.711 262.104 348.581 261.974 348.421 261.974H329.113C328.953 261.974 328.823 262.104 328.823 262.264V263.177C328.823 263.338 328.953 263.468 329.113 263.468Z" fill="#3F3D56"/>
<path d="M308.656 213.139H306.968C306.457 213.139 306.042 213.555 306.042 214.067C306.042 214.579 306.457 214.994 306.968 214.994H308.656C309.168 214.994 309.583 214.579 309.583 214.067C309.583 213.555 309.168 213.139 308.656 213.139Z" fill="white"/>
<path d="M327.959 213.139H326.272C325.76 213.139 325.345 213.555 325.345 214.067C325.345 214.579 325.76 214.994 326.272 214.994H327.959C328.471 214.994 328.886 214.579 328.886 214.067C328.886 213.555 328.471 213.139 327.959 213.139Z" fill="white"/>
<path d="M333.429 213.139H331.741C331.229 213.139 330.814 213.555 330.814 214.067C330.814 214.579 331.229 214.994 331.741 214.994H333.429C333.94 214.994 334.355 214.579 334.355 214.067C334.355 213.555 333.94 213.139 333.429 213.139Z" fill="white"/>
<path d="M322.709 212.985H312.219C311.707 212.985 311.292 213.4 311.292 213.912C311.292 214.424 311.707 214.84 312.219 214.84H322.709C323.22 214.84 323.635 214.424 323.635 213.912C323.635 213.4 323.22 212.985 322.709 212.985Z" fill="white"/>
<path d="M348.447 212.985H337.957C337.445 212.985 337.03 213.4 337.03 213.912C337.03 214.424 337.445 214.84 337.957 214.84H348.447C348.958 214.84 349.373 214.424 349.373 213.912C349.373 213.4 348.958 212.985 348.447 212.985Z" fill="white"/>
<path d="M313.804 217.326H312.116C311.604 217.326 311.189 217.741 311.189 218.253C311.189 218.766 311.604 219.181 312.116 219.181H313.804C314.315 219.181 314.73 218.766 314.73 218.253C314.73 217.741 314.315 217.326 313.804 217.326Z" fill="white"/>
<path d="M333.107 217.326H331.419C330.907 217.326 330.493 217.741 330.493 218.253C330.493 218.766 330.907 219.181 331.419 219.181H333.107C333.619 219.181 334.033 218.766 334.033 218.253C334.033 217.741 333.619 217.326 333.107 217.326Z" fill="white"/>
<path d="M338.576 217.326H336.888C336.377 217.326 335.962 217.741 335.962 218.253C335.962 218.766 336.377 219.181 336.888 219.181H338.576C339.088 219.181 339.503 218.766 339.503 218.253C339.503 217.741 339.088 217.326 338.576 217.326Z" fill="white"/>
<path d="M327.856 217.171H317.366C316.855 217.171 316.44 217.587 316.44 218.099C316.44 218.611 316.855 219.026 317.366 219.026H327.856C328.368 219.026 328.783 218.611 328.783 218.099C328.783 217.587 328.368 217.171 327.856 217.171Z" fill="white"/>
<path d="M353.594 217.171H343.104C342.592 217.171 342.178 217.587 342.178 218.099C342.178 218.611 342.592 219.026 343.104 219.026H353.594C354.106 219.026 354.521 218.611 354.521 218.099C354.521 217.587 354.106 217.171 353.594 217.171Z" fill="white"/>
<path d="M318.951 221.513H317.263C316.752 221.513 316.337 221.928 316.337 222.44C316.337 222.952 316.752 223.368 317.263 223.368H318.951C319.463 223.368 319.878 222.952 319.878 222.44C319.878 221.928 319.463 221.513 318.951 221.513Z" fill="white"/>
<path d="M338.254 221.513H336.567C336.055 221.513 335.64 221.928 335.64 222.44C335.64 222.952 336.055 223.368 336.567 223.368H338.254C338.766 223.368 339.181 222.952 339.181 222.44C339.181 221.928 338.766 221.513 338.254 221.513Z" fill="white"/>
<path d="M343.724 221.513H342.036C341.524 221.513 341.109 221.928 341.109 222.44C341.109 222.952 341.524 223.368 342.036 223.368H343.724C344.235 223.368 344.65 222.952 344.65 222.44C344.65 221.928 344.235 221.513 343.724 221.513Z" fill="white"/>
<path d="M333.004 221.358H322.514C322.002 221.358 321.587 221.773 321.587 222.286C321.587 222.798 322.002 223.213 322.514 223.213H333.004C333.516 223.213 333.93 222.798 333.93 222.286C333.93 221.773 333.516 221.358 333.004 221.358Z" fill="white"/>
<path d="M358.742 221.358H348.252C347.74 221.358 347.325 221.773 347.325 222.286C347.325 222.798 347.74 223.213 348.252 223.213H358.742C359.253 223.213 359.668 222.798 359.668 222.286C359.668 221.773 359.253 221.358 358.742 221.358Z" fill="white"/>
<path d="M324.099 225.699H322.411C321.899 225.699 321.484 226.115 321.484 226.627C321.484 227.139 321.899 227.554 322.411 227.554H324.099C324.61 227.554 325.025 227.139 325.025 226.627C325.025 226.115 324.61 225.699 324.099 225.699Z" fill="white"/>
<path d="M343.402 225.699H341.714C341.203 225.699 340.788 226.115 340.788 226.627C340.788 227.139 341.203 227.554 341.714 227.554H343.402C343.914 227.554 344.329 227.139 344.329 226.627C344.329 226.115 343.914 225.699 343.402 225.699Z" fill="white"/>
<path d="M348.871 225.699H347.184C346.672 225.699 346.257 226.115 346.257 226.627C346.257 227.139 346.672 227.554 347.184 227.554H348.871C349.383 227.554 349.798 227.139 349.798 226.627C349.798 226.115 349.383 225.699 348.871 225.699Z" fill="white"/>
<path d="M338.151 225.545H327.661C327.15 225.545 326.735 225.96 326.735 226.472C326.735 226.984 327.15 227.4 327.661 227.4H338.151C338.663 227.4 339.078 226.984 339.078 226.472C339.078 225.96 338.663 225.545 338.151 225.545Z" fill="white"/>
<path d="M327.959 242.347H326.272C325.76 242.347 325.345 242.763 325.345 243.275C325.345 243.787 325.76 244.202 326.272 244.202H327.959C328.471 244.202 328.886 243.787 328.886 243.275C328.886 242.763 328.471 242.347 327.959 242.347Z" fill="white"/>
<path d="M333.429 242.347H331.741C331.229 242.347 330.814 242.763 330.814 243.275C330.814 243.787 331.229 244.202 331.741 244.202H333.429C333.94 244.202 334.355 243.787 334.355 243.275C334.355 242.763 333.94 242.347 333.429 242.347Z" fill="white"/>
<path d="M348.447 242.502H337.957C337.445 242.502 337.03 242.917 337.03 243.429C337.03 243.942 337.445 244.357 337.957 244.357H348.447C348.958 244.357 349.373 243.942 349.373 243.429C349.373 242.917 348.958 242.502 348.447 242.502Z" fill="white"/>
<path d="M308.656 242.347H306.968C306.457 242.347 306.042 242.763 306.042 243.275C306.042 243.787 306.457 244.202 306.968 244.202H308.656C309.168 244.202 309.583 243.787 309.583 243.275C309.583 242.763 309.168 242.347 308.656 242.347Z" fill="white"/>
<path d="M322.709 242.502H312.219C311.707 242.502 311.292 242.917 311.292 243.429C311.292 243.942 311.707 244.357 312.219 244.357H322.709C323.22 244.357 323.635 243.942 323.635 243.429C323.635 242.917 323.22 242.502 322.709 242.502Z" fill="white"/>
<path d="M313.804 238.161H312.116C311.604 238.161 311.189 238.576 311.189 239.088C311.189 239.6 311.604 240.016 312.116 240.016H313.804C314.315 240.016 314.73 239.6 314.73 239.088C314.73 238.576 314.315 238.161 313.804 238.161Z" fill="white"/>
<path d="M333.107 238.161H331.419C330.907 238.161 330.493 238.576 330.493 239.088C330.493 239.6 330.907 240.016 331.419 240.016H333.107C333.619 240.016 334.033 239.6 334.033 239.088C334.033 238.576 333.619 238.161 333.107 238.161Z" fill="white"/>
<path d="M338.576 238.161H336.888C336.377 238.161 335.962 238.576 335.962 239.088C335.962 239.6 336.377 240.016 336.888 240.016H338.576C339.088 240.016 339.503 239.6 339.503 239.088C339.503 238.576 339.088 238.161 338.576 238.161Z" fill="white"/>
<path d="M327.856 238.315H317.366C316.855 238.315 316.44 238.731 316.44 239.243C316.44 239.755 316.855 240.17 317.366 240.17H327.856C328.368 240.17 328.783 239.755 328.783 239.243C328.783 238.731 328.368 238.315 327.856 238.315Z" fill="white"/>
<path d="M318.951 233.974H317.263C316.752 233.974 316.337 234.389 316.337 234.901C316.337 235.414 316.752 235.829 317.263 235.829H318.951C319.463 235.829 319.878 235.414 319.878 234.901C319.878 234.389 319.463 233.974 318.951 233.974Z" fill="white"/>
<path d="M338.254 233.974H336.567C336.055 233.974 335.64 234.389 335.64 234.901C335.64 235.414 336.055 235.829 336.567 235.829H338.254C338.766 235.829 339.181 235.414 339.181 234.901C339.181 234.389 338.766 233.974 338.254 233.974Z" fill="white"/>
<path d="M343.724 233.974H342.036C341.524 233.974 341.109 234.389 341.109 234.901C341.109 235.414 341.524 235.829 342.036 235.829H343.724C344.235 235.829 344.65 235.414 344.65 234.901C344.65 234.389 344.235 233.974 343.724 233.974Z" fill="white"/>
<path d="M333.004 234.129H322.514C322.002 234.129 321.587 234.544 321.587 235.056C321.587 235.568 322.002 235.984 322.514 235.984H333.004C333.516 235.984 333.93 235.568 333.93 235.056C333.93 234.544 333.516 234.129 333.004 234.129Z" fill="white"/>
<path d="M324.099 229.787H322.411C321.899 229.787 321.484 230.202 321.484 230.715C321.484 231.227 321.899 231.642 322.411 231.642H324.099C324.61 231.642 325.025 231.227 325.025 230.715C325.025 230.202 324.61 229.787 324.099 229.787Z" fill="white"/>
<path d="M343.402 229.787H341.714C341.203 229.787 340.788 230.202 340.788 230.715C340.788 231.227 341.203 231.642 341.714 231.642H343.402C343.914 231.642 344.329 231.227 344.329 230.715C344.329 230.202 343.914 229.787 343.402 229.787Z" fill="white"/>
<path d="M348.871 229.787H347.184C346.672 229.787 346.257 230.202 346.257 230.715C346.257 231.227 346.672 231.642 347.184 231.642H348.871C349.383 231.642 349.798 231.227 349.798 230.715C349.798 230.202 349.383 229.787 348.871 229.787Z" fill="white"/>
<path d="M338.151 229.942H327.661C327.15 229.942 326.735 230.357 326.735 230.869C326.735 231.382 327.15 231.797 327.661 231.797H338.151C338.663 231.797 339.078 231.382 339.078 230.869C339.078 230.357 338.663 229.942 338.151 229.942Z" fill="white"/>
<path d="M299.683 291.414L291.759 278.876L316.629 259.031L326.895 247.646C328.228 246.167 329.926 245.064 331.819 244.448C333.712 243.832 335.733 243.724 337.681 244.134C339.629 244.545 341.434 245.46 342.918 246.788C344.402 248.116 345.511 249.811 346.136 251.703C347.061 254.507 346.862 257.56 345.581 260.22C344.299 262.879 342.036 264.936 339.268 265.957L323.036 271.943L299.683 291.414Z" fill="#FFB6B6"/>
<path d="M113.773 200.51V261.445H156.418V200.51C156.419 200.072 156.279 199.645 156.02 199.292C155.76 198.939 155.394 198.679 154.976 198.55C154.779 198.484 154.572 198.452 154.365 198.454H115.833C115.563 198.454 115.295 198.507 115.046 198.61C114.796 198.713 114.569 198.864 114.378 199.055C114.186 199.246 114.035 199.473 113.931 199.722C113.827 199.972 113.774 200.24 113.773 200.51ZM130.416 221.448C130.427 220.246 130.912 219.098 131.764 218.252C132.617 217.407 133.768 216.933 134.968 216.933C136.168 216.933 137.32 217.407 138.173 218.252C139.025 219.098 139.51 220.246 139.521 221.448V228.518C139.515 229.722 139.032 230.876 138.179 231.725C137.326 232.575 136.172 233.052 134.968 233.052C133.765 233.052 132.611 232.575 131.758 231.725C130.904 230.876 130.422 229.722 130.416 228.518V221.448Z" fill="#2F2E41"/>
<path d="M113.643 259.496V265.372C113.644 265.677 113.765 265.968 113.979 266.184C114.194 266.4 114.484 266.522 114.788 266.525H155.404C155.708 266.523 155.999 266.401 156.214 266.185C156.429 265.969 156.549 265.677 156.549 265.372V259.496H113.643Z" fill="#3F3D56"/>
<path d="M46.6869 108.704V219.962C46.688 221.38 47.2512 222.739 48.2527 223.742C49.2543 224.745 50.6123 225.308 52.0287 225.309H216.733C218.149 225.308 219.507 224.745 220.509 223.742C221.51 222.739 222.073 221.38 222.075 219.962V108.704C222.071 107.287 221.507 105.93 220.506 104.929C219.505 103.928 218.148 103.364 216.733 103.363H52.0287C50.6135 103.364 49.2568 103.928 48.2556 104.929C47.2544 105.93 46.6903 107.287 46.6869 108.704Z" fill="#3F3D56"/>
<path d="M50.5508 110.088V218.59C50.5521 219.347 50.8533 220.073 51.3884 220.609C51.9235 221.145 52.6489 221.446 53.4057 221.448H215.362C216.119 221.446 216.844 221.145 217.379 220.609C217.914 220.073 218.215 219.347 218.217 218.59V110.088C218.217 109.33 217.916 108.602 217.381 108.065C216.846 107.529 216.119 107.226 215.362 107.224H53.4057C52.648 107.226 51.9219 107.529 51.3867 108.065C50.8515 108.602 50.5509 109.33 50.5508 110.088Z" fill="white"/>
<path d="M80.6071 266.127C80.7719 266.334 80.9815 266.5 81.2199 266.615C81.4584 266.729 81.7197 266.788 81.9841 266.786H178.337C178.601 266.786 178.861 266.727 179.099 266.613C179.337 266.5 179.546 266.334 179.712 266.129C179.878 265.925 179.997 265.685 180.059 265.429C180.12 265.173 180.125 264.906 180.071 264.647L178.575 257.536C178.513 257.245 178.379 256.976 178.187 256.75C177.994 256.525 177.748 256.352 177.471 256.246C177.27 256.168 177.057 256.127 176.842 256.127H83.4738C83.2585 256.127 83.0451 256.168 82.8447 256.246C82.5678 256.352 82.3218 256.525 82.129 256.75C81.9362 256.976 81.8027 257.245 81.7407 257.536L80.245 264.647C80.1918 264.905 80.1967 265.172 80.2593 265.428C80.3219 265.684 80.4407 265.923 80.6071 266.127Z" fill="#2F2E41"/>
<path d="M210.106 122.171H58.5641C58.4066 122.168 58.2567 122.103 58.1465 121.99C58.0364 121.877 57.9747 121.726 57.9747 121.568C57.9747 121.41 58.0364 121.259 58.1465 121.146C58.2567 121.033 58.4066 120.968 58.5641 120.965H210.106C210.263 120.968 210.413 121.033 210.523 121.146C210.633 121.259 210.695 121.41 210.695 121.568C210.695 121.726 210.633 121.877 210.523 121.99C210.413 122.103 210.263 122.168 210.106 122.171Z" fill="#3F3D56"/>
<path d="M68.8797 117.885C70.8303 117.885 72.4115 116.266 72.4115 114.27C72.4115 112.274 70.8303 110.656 68.8797 110.656C66.9292 110.656 65.348 112.274 65.348 114.27C65.348 116.266 66.9292 117.885 68.8797 117.885Z" fill="#3F3D56"/>
<path d="M81.0803 117.885C83.0309 117.885 84.6121 116.266 84.6121 114.27C84.6121 112.274 83.0309 110.656 81.0803 110.656C79.1298 110.656 77.5486 112.274 77.5486 114.27C77.5486 116.266 79.1298 117.885 81.0803 117.885Z" fill="#3F3D56"/>
<path d="M93.2809 117.885C95.2315 117.885 96.8127 116.266 96.8127 114.27C96.8127 112.274 95.2315 110.656 93.2809 110.656C91.3304 110.656 89.7492 112.274 89.7492 114.27C89.7492 116.266 91.3304 117.885 93.2809 117.885Z" fill="#3F3D56"/>
<path d="M202.759 111.55H194.094C193.922 111.554 193.759 111.625 193.64 111.748C193.52 111.87 193.453 112.035 193.453 112.206C193.453 112.378 193.52 112.543 193.64 112.665C193.759 112.788 193.922 112.859 194.094 112.863H202.759C202.931 112.861 203.096 112.79 203.217 112.667C203.338 112.545 203.406 112.379 203.406 112.206C203.406 112.034 203.338 111.868 203.217 111.745C203.096 111.623 202.931 111.552 202.759 111.55Z" fill="#3F3D56"/>
<path d="M202.759 114.016H194.093C193.922 114.019 193.759 114.09 193.639 114.213C193.519 114.336 193.452 114.5 193.452 114.672C193.452 114.844 193.519 115.009 193.639 115.131C193.759 115.254 193.922 115.325 194.093 115.329H202.759C202.932 115.327 203.096 115.256 203.218 115.134C203.339 115.011 203.407 114.845 203.407 114.672C203.407 114.499 203.339 114.334 203.218 114.211C203.096 114.088 202.932 114.018 202.759 114.016Z" fill="#3F3D56"/>
<path d="M202.759 116.481H194.094C193.922 116.485 193.759 116.556 193.64 116.679C193.52 116.802 193.453 116.966 193.453 117.138C193.453 117.309 193.52 117.474 193.64 117.597C193.759 117.719 193.922 117.79 194.094 117.794H202.759C202.931 117.792 203.096 117.722 203.217 117.599C203.338 117.476 203.406 117.31 203.406 117.138C203.406 116.965 203.338 116.8 203.217 116.677C203.096 116.554 202.931 116.484 202.759 116.481Z" fill="#3F3D56"/>
<path d="M411.669 262.075C411.93 262.837 412.426 263.497 413.086 263.959C413.745 264.421 414.534 264.663 415.339 264.648L431.062 264.243C431.873 264.227 432.657 263.949 433.297 263.45C433.937 262.952 434.398 262.259 434.612 261.476L436.837 237.659C437.627 238.017 438.486 238.194 439.353 238.176C440.105 238.157 440.847 237.99 441.535 237.684C442.224 237.378 442.845 236.94 443.364 236.394C443.883 235.847 444.289 235.204 444.56 234.501C444.83 233.797 444.96 233.047 444.941 232.294C444.922 231.54 444.755 230.798 444.45 230.109C444.144 229.42 443.706 228.798 443.16 228.278C442.615 227.759 441.972 227.352 441.269 227.081C440.567 226.81 439.817 226.681 439.065 226.7C438.718 226.698 438.373 226.734 438.034 226.807C437.666 226.408 437.218 226.091 436.72 225.875C436.222 225.66 435.684 225.552 435.141 225.557L410.955 226.183C410.754 226.19 410.554 226.215 410.358 226.257C409.828 226.356 409.325 226.567 408.883 226.877C408.441 227.187 408.07 227.588 407.796 228.053C407.522 228.519 407.351 229.037 407.294 229.574C407.237 230.111 407.296 230.654 407.466 231.167L411.669 262.075ZM437.293 236.042L438.877 230.366C439.057 229.71 439.061 229.019 438.889 228.361C438.966 228.361 439.033 228.324 439.11 228.324C440.196 228.302 441.246 228.711 442.031 229.463C442.815 230.214 443.27 231.246 443.296 232.333C443.321 233.42 442.915 234.472 442.166 235.26C441.418 236.047 440.388 236.505 439.302 236.534C438.6 236.555 437.906 236.385 437.293 236.042Z" fill="#2F2E41"/>
<path d="M410.358 226.257C410.873 229.206 416.667 231.279 423.633 230.919C430.039 230.624 435.276 228.372 436.236 225.703C435.881 225.598 435.512 225.549 435.141 225.557L410.955 226.182C410.754 226.19 410.555 226.215 410.358 226.257Z" fill="#3F3D56"/>
<path d="M424.91 248.987C424.941 248.979 424.972 248.966 424.999 248.948L428.414 246.71C428.455 246.683 428.489 246.647 428.512 246.603C428.536 246.56 428.548 246.511 428.548 246.462C428.548 246.413 428.536 246.364 428.513 246.321C428.489 246.277 428.455 246.24 428.414 246.214L424.865 243.886C424.832 243.865 424.796 243.85 424.757 243.843C424.719 243.835 424.68 243.835 424.641 243.843C424.603 243.851 424.567 243.867 424.534 243.889C424.502 243.91 424.475 243.939 424.453 243.971C424.432 244.004 424.417 244.041 424.41 244.079C424.402 244.117 424.403 244.157 424.411 244.195C424.419 244.233 424.434 244.27 424.457 244.302C424.479 244.334 424.507 244.362 424.54 244.383L427.71 246.461L424.674 248.451C424.616 248.489 424.572 248.547 424.552 248.615C424.532 248.682 424.537 248.754 424.565 248.819C424.593 248.883 424.643 248.935 424.706 248.966C424.77 248.997 424.841 249.004 424.91 248.987H424.91Z" fill="white"/>
<path d="M419.516 249.236C419.574 249.222 419.625 249.19 419.665 249.146C419.704 249.102 419.729 249.047 419.737 248.989C419.746 248.93 419.736 248.87 419.71 248.817C419.684 248.764 419.642 248.72 419.591 248.69L416.444 246.884L419.486 244.622C419.517 244.599 419.543 244.57 419.563 244.536C419.583 244.503 419.597 244.466 419.602 244.427C419.608 244.389 419.606 244.349 419.597 244.311C419.587 244.274 419.57 244.238 419.547 244.207C419.524 244.175 419.495 244.149 419.461 244.129C419.428 244.109 419.391 244.096 419.352 244.09C419.314 244.084 419.274 244.086 419.237 244.096C419.199 244.105 419.163 244.122 419.132 244.145L415.726 246.678C415.686 246.708 415.655 246.746 415.634 246.791C415.613 246.836 415.604 246.885 415.607 246.934C415.609 246.983 415.625 247.031 415.651 247.073C415.677 247.115 415.712 247.15 415.755 247.174L419.296 249.206C419.363 249.244 419.442 249.255 419.516 249.236Z" fill="white"/>
<path d="M424.57 250.948C424.599 250.941 424.626 250.929 424.651 250.913C424.685 250.893 424.714 250.867 424.737 250.835C424.76 250.804 424.776 250.768 424.786 250.73C424.795 250.692 424.796 250.653 424.791 250.614C424.785 250.576 424.771 250.538 424.751 250.505L419.91 242.539C419.869 242.472 419.803 242.423 419.727 242.405C419.65 242.386 419.57 242.399 419.502 242.44C419.435 242.481 419.387 242.547 419.368 242.623C419.35 242.7 419.362 242.781 419.403 242.848L424.244 250.814C424.277 250.869 424.326 250.911 424.385 250.935C424.444 250.959 424.509 250.963 424.57 250.948Z" fill="white"/>
<path d="M152.442 154.967H126.213C125.143 154.967 124.276 155.836 124.276 156.907V159.472C124.276 160.543 125.143 161.411 126.213 161.411H152.442C153.512 161.411 154.379 160.543 154.379 159.472V156.907C154.379 155.836 153.512 154.967 152.442 154.967Z" fill="#B90CB9"/>
<path d="M167.73 167.855H110.925C109.855 167.855 108.987 168.723 108.987 169.794V172.359C108.987 173.431 109.855 174.299 110.925 174.299H167.73C168.8 174.299 169.667 173.431 169.667 172.359V169.794C169.667 168.723 168.8 167.855 167.73 167.855Z" fill="#E6E6E6"/>
<path d="M167.73 180.743H110.925C109.855 180.743 108.987 181.611 108.987 182.682V185.247C108.987 186.318 109.855 187.186 110.925 187.186H167.73C168.8 187.186 169.667 186.318 169.667 185.247V182.682C169.667 181.611 168.8 180.743 167.73 180.743Z" fill="#E6E6E6"/>
<path d="M172.545 223.898L172.674 224.305L172.681 224.319L176.554 236.105L181.009 249.688L189.391 275.213L189.472 279.178V279.191L190.095 311.087L188.369 315.411L190.312 322.501C190.312 322.501 189.418 311.784 184.624 317.939C181.909 321.436 178.734 325.015 176.127 328.37C179.926 329.908 183.785 331.3 187.705 332.545C188.551 332.816 189.405 333.073 190.258 333.331C190.441 333.385 190.623 333.439 190.806 333.493C203.801 337.34 217.236 339.502 230.781 339.926C231.485 339.946 232.176 339.959 232.846 339.973C233.083 339.98 233.313 339.987 233.543 339.987C234.302 339.993 235.053 340 235.811 340C237.342 340 238.865 339.977 240.382 339.932C251.607 339.616 262.767 338.105 273.674 335.425C273.599 330.918 273.396 325.652 273.105 320.026C272.969 317.268 269.929 314.279 269.747 311.391C269.618 309.222 272.347 307.182 272.204 304.98C271.284 291.417 270.133 296.623 269.279 287.019C269.191 286.077 269.11 285.176 269.036 284.315C268.487 278.147 268.108 274.291 268.108 274.291L271.751 251.308L277.472 215.223L277.032 214.498L276.538 214.254L246.36 199.302L244.722 195.1C244.244 193.889 243.416 192.849 242.343 192.114C241.271 191.378 240.003 190.981 238.703 190.972L218.824 190.891C217.792 190.886 216.774 191.128 215.854 191.596C214.935 192.064 214.14 192.745 213.536 193.582L208.153 201.044L172.545 223.898Z" fill="#3F3D56"/>
<path d="M193.975 269.533L189.472 279.178L186.398 285.766L181.11 313.48L178.463 316.292L176.195 306.335L152.455 311.612C151.676 307.281 152.247 311.758 151.766 307.007C151.901 306.871 152.043 306.736 152.186 306.6C152.565 306.248 152.883 305.916 152.876 305.597C152.605 289.209 153.418 261.318 160.202 244.421C161.265 241.663 162.666 239.047 164.373 236.634C164.508 236.451 164.637 236.268 164.766 236.085C167.894 231.7 169.871 227.382 172.674 224.312V224.305C172.691 224.291 172.707 224.275 172.721 224.258C172.732 224.253 172.741 224.246 172.749 224.237L192.005 214.016L192.831 237.251L193.42 253.951L193.975 269.533Z" fill="#3F3D56"/>
<path d="M263.409 272.272L269.033 284.318L270.996 288.513L276.282 316.225L278.921 319.031L281.195 309.076L282.263 308.857L301.528 304.863L307.143 322.714C308.409 320.603 308.907 318.12 308.555 315.683C308.202 313.247 307.019 311.007 305.207 309.343C304.824 308.996 304.504 308.657 304.513 308.338C304.833 289.062 303.655 253.865 293.018 239.378C289.64 234.781 287.613 230.202 284.664 227.003C284.655 226.994 284.655 226.985 284.646 226.985L277.469 215.222L277.031 214.5L276.538 214.253L263.409 272.272Z" fill="#3F3D56"/>
<path d="M229.337 185.228C243.943 185.228 255.784 173.375 255.784 158.754C255.784 144.133 243.943 132.28 229.337 132.28C214.731 132.28 202.891 144.133 202.891 158.754C202.891 173.375 214.731 185.228 229.337 185.228Z" fill="#FFB6B6"/>
<path d="M265.083 140.262C264.878 140.043 264.631 139.867 264.357 139.746C264.082 139.624 263.786 139.559 263.486 139.555L263.884 138.45C264.014 138.102 264.049 137.726 263.986 137.359C263.922 136.993 263.763 136.651 263.524 136.367C263.285 136.082 262.974 135.867 262.625 135.742C262.275 135.618 261.898 135.589 261.534 135.658L260.086 135.937L260.222 134.968C260.274 134.608 260.232 134.24 260.099 133.9C259.966 133.561 259.747 133.262 259.464 133.033C259.181 132.804 258.843 132.653 258.484 132.594C258.124 132.536 257.756 132.572 257.415 132.699C257.104 132.821 256.77 132.872 256.438 132.849C256.105 132.825 255.782 132.727 255.492 132.562C255.2 132.402 254.948 132.181 254.751 131.913C254.554 131.645 254.418 131.337 254.352 131.011L253.848 128.575L253.794 128.445C251.337 124.345 246.612 121.363 240.831 120.269C235.686 119.289 230.409 119.788 225.323 120.257C223.305 120.448 221.025 120.661 219.126 121.826C217.512 122.824 216.147 124.82 216.426 126.835C211.41 125.296 206.033 128.367 203.368 132.241C200.21 136.852 199.694 142.627 199.611 147.142C199.385 157.825 201.587 166.565 206.14 173.124C206.472 173.599 206.555 174.591 207.214 174.924L207.077 174.704C207.813 175.073 208.561 175.667 208.282 176.302C207.481 178.132 212.805 182.179 216.556 183.515C223.399 185.957 232.498 185.749 238.897 184.87L239.122 183.355C241.431 183.04 243.057 182.44 243.514 181.501C244.321 180.812 245.01 180.194 245.609 179.624L245.615 179.618C245.627 179.606 245.651 179.588 245.663 179.576C248.553 176.802 249.224 175.221 249.527 172.815C249.817 170.456 249.301 168.062 248.773 165.905C259.896 167.628 244.393 154.046 254.756 151.42C254.874 151.383 254.995 151.354 255.118 151.331C255.42 151.26 255.723 151.188 256.014 151.105C257.416 150.724 258.758 150.15 260.002 149.4C262.899 147.635 263.854 145.294 265.35 142.656C265.566 142.281 265.656 141.846 265.608 141.415C265.56 140.985 265.376 140.581 265.083 140.262Z" fill="#2F2E41"/>
<path d="M322.875 274.157C322.869 275.197 322.857 276.652 322.81 278.453C322.804 278.702 322.798 278.958 322.792 279.219C322.715 282.528 322.637 285.303 322.513 288.387C322.507 288.6 322.501 288.808 322.489 289.022C322.323 293.324 322.062 298.332 321.611 306.264C320.774 320.916 319.314 308.278 317.848 313.418C317.776 313.673 317.699 313.976 317.628 314.333C317.406 315.626 317.031 316.888 316.512 318.093C315.735 318.557 314.933 319.003 314.144 319.448C311.895 320.702 309.61 321.908 307.307 323.055C306.013 323.696 304.713 324.326 303.407 324.932C303.199 325.027 302.998 325.122 302.796 325.211C296.109 328.307 289.218 330.94 282.171 333.09C280.794 333.505 279.423 333.909 278.034 334.284C276.586 334.688 275.137 335.068 273.671 335.425C262.765 338.105 251.606 339.616 240.38 339.934C238.867 339.982 237.342 339.999 235.81 339.999C235.05 339.999 234.303 339.993 233.543 339.987C233.311 339.987 233.08 339.982 232.849 339.976C232.178 339.958 231.483 339.946 230.783 339.928C217.238 339.505 203.803 337.343 190.809 333.494L190.257 333.333C189.402 333.072 188.553 332.816 187.705 332.543C183.787 331.301 179.927 329.911 176.125 328.372C173.223 327.202 170.354 325.946 167.519 324.605C167.493 324.598 167.469 324.586 167.448 324.57C166.854 324.296 166.255 324.011 165.661 323.72C165.584 323.678 165.501 323.637 165.418 323.595C163.204 322.514 161.014 321.381 158.847 320.197C157.025 316.008 154.461 315.206 152.871 311.522C152.408 310.428 152.073 309.284 151.873 308.112C151.873 308.1 151.867 308.088 151.867 308.07C152.034 310.281 151.161 304.149 151.862 308.047C151.856 307.975 151.85 307.898 151.844 307.809C151.826 307.595 151.802 307.334 151.767 307.007C149.731 287.109 149.861 264.354 148.977 245.603C148.918 244.391 148.856 243.23 148.793 242.121C148.775 241.753 148.751 241.39 148.728 241.034C148.769 240.927 148.817 240.814 148.87 240.707C148.882 240.676 148.895 240.646 148.912 240.618C148.929 240.581 148.949 240.545 148.971 240.511C148.983 240.493 149.001 240.469 149.013 240.452C149.021 240.431 149.031 240.411 149.042 240.392C149.096 240.309 149.155 240.22 149.22 240.137C149.25 240.101 149.274 240.071 149.303 240.042C149.324 240.011 149.348 239.983 149.375 239.958C149.393 239.93 149.415 239.904 149.44 239.881C149.464 239.857 149.487 239.828 149.517 239.798C149.53 239.779 149.546 239.763 149.565 239.751C149.612 239.697 149.663 239.647 149.719 239.602C149.931 239.407 150.157 239.228 150.396 239.067C150.479 239.014 150.568 238.96 150.651 238.901C151.249 238.543 151.879 238.24 152.532 237.998C152.758 237.915 152.983 237.837 153.227 237.754C153.316 237.73 153.399 237.701 153.488 237.671C153.618 237.629 153.749 237.588 153.885 237.558C154.562 237.356 155.292 237.184 156.082 237.023C156.176 237.006 156.277 236.988 156.378 236.964C156.521 236.934 156.669 236.911 156.818 236.887C157.019 236.851 157.227 236.815 157.435 236.78C159.198 236.501 161.198 236.293 163.406 236.156C163.613 236.144 163.821 236.132 164.029 236.12C164.272 236.108 164.516 236.097 164.765 236.085C164.973 236.073 165.186 236.067 165.4 236.061C165.608 236.049 165.821 236.043 166.041 236.037C166.64 236.019 167.258 236.001 167.887 235.99C169.679 235.954 171.567 235.966 173.549 236.007C174.469 236.031 175.407 236.055 176.368 236.097C176.434 236.097 176.493 236.102 176.552 236.102C177.389 236.132 178.232 236.168 179.099 236.215C179.704 236.245 180.315 236.275 180.927 236.31C181.502 236.346 182.084 236.382 182.672 236.423C183.129 236.447 183.586 236.483 184.049 236.512C184.44 236.542 184.832 236.572 185.224 236.596L185.758 236.631C186.049 236.655 186.34 236.673 186.636 236.703C187.289 236.756 187.942 236.81 188.607 236.863C189.266 236.922 189.936 236.982 190.607 237.041C191.278 237.101 191.954 237.166 192.631 237.231C192.702 237.237 192.768 237.243 192.833 237.249C193.45 237.315 194.067 237.374 194.691 237.439C194.833 237.451 194.981 237.463 195.124 237.481C195.718 237.541 196.324 237.611 196.923 237.674C197.107 237.694 197.29 237.714 197.475 237.734C197.945 237.785 198.408 237.829 198.881 237.885C199.504 237.956 200.139 238.022 200.756 238.105C201.237 238.158 201.718 238.212 202.199 238.271C202.952 238.36 203.718 238.455 204.484 238.556C204.775 238.592 205.065 238.628 205.356 238.669C207.54 238.942 209.748 239.245 211.992 239.56C215.393 240.042 218.847 240.564 222.325 241.129C225.809 241.693 229.313 242.289 232.837 242.917C233.727 243.078 234.617 243.238 235.513 243.404C235.917 243.482 236.321 243.559 236.724 243.636C237.413 243.761 238.101 243.892 238.79 244.022C239.478 244.153 240.167 244.284 240.855 244.42C241.674 244.581 242.499 244.741 243.318 244.902C248.713 245.971 254.079 247.112 259.314 248.306C260.174 248.502 261.035 248.704 261.89 248.9C263.599 249.298 265.293 249.702 266.97 250.112C267.433 250.219 267.89 250.332 268.347 250.445C269.487 250.73 270.627 251.015 271.748 251.306L271.944 251.36C272.769 251.562 273.576 251.77 274.384 251.984C276.289 252.483 278.162 252.988 280.004 253.499C281.227 253.837 282.436 254.18 283.631 254.527C285.417 255.044 287.168 255.566 288.872 256.095C289.293 256.226 289.714 256.357 290.13 256.481C291.376 256.868 292.605 257.26 293.798 257.652C294.747 257.961 295.673 258.276 296.587 258.591C297.501 258.905 298.398 259.22 299.276 259.535C299.84 259.737 300.398 259.951 300.956 260.153C301.757 260.45 302.546 260.747 303.318 261.044C303.555 261.134 303.787 261.229 304.018 261.318C304.167 261.383 304.309 261.436 304.452 261.496C304.731 261.609 305.016 261.716 305.289 261.829C305.568 261.936 305.841 262.048 306.114 262.167C306.381 262.274 306.654 262.387 306.915 262.5C307.182 262.607 307.443 262.72 307.704 262.839C307.924 262.928 308.137 263.023 308.345 263.118C308.767 263.302 309.188 263.486 309.598 263.676C309.799 263.771 310.001 263.861 310.203 263.956L310.666 264.17C310.731 264.205 310.796 264.235 310.862 264.265C311.01 264.336 311.164 264.413 311.313 264.484C311.657 264.645 311.995 264.817 312.328 264.978C312.773 265.203 313.206 265.429 313.622 265.649C314.043 265.875 314.453 266.101 314.844 266.32C314.91 266.356 314.969 266.392 315.034 266.427C315.123 266.475 315.212 266.528 315.301 266.576C315.604 266.748 315.895 266.926 316.186 267.099C316.756 267.449 317.296 267.794 317.8 268.138C317.913 268.216 318.02 268.293 318.132 268.364C318.506 268.631 318.863 268.893 319.195 269.16C319.195 269.166 319.195 269.166 319.201 269.166C319.314 269.249 319.42 269.339 319.527 269.422C319.616 269.505 319.711 269.576 319.8 269.659C320.109 269.927 320.394 270.182 320.655 270.444C320.743 270.524 320.826 270.61 320.904 270.699C320.939 270.728 320.971 270.76 320.999 270.794C321.118 270.913 321.225 271.032 321.326 271.151C321.341 271.167 321.355 271.185 321.367 271.204C321.51 271.37 321.64 271.537 321.765 271.703C321.824 271.786 321.89 271.87 321.943 271.953C322.014 272.054 322.085 272.161 322.145 272.262C322.198 272.345 322.246 272.434 322.293 272.517C322.419 272.731 322.526 272.956 322.614 273.189C322.68 273.346 322.734 273.509 322.774 273.676C322.819 273.834 322.853 273.994 322.875 274.157Z" fill="#2F2E41"/>
<path opacity="0.2" d="M322.875 274.157C322.869 275.197 322.857 276.652 322.81 278.453C322.804 278.702 322.792 278.958 322.786 279.219C322.726 281.744 322.637 284.863 322.513 288.387C322.507 288.601 322.501 288.808 322.489 289.022C322.323 293.324 322.062 298.333 321.611 306.264C320.774 320.916 319.314 308.278 317.848 313.418C313.776 310.91 309.313 308.284 304.541 305.587C303.68 305.1 302.812 304.611 301.935 304.119C292.391 298.79 281.731 293.205 270.603 287.674C270.164 287.454 269.718 287.234 269.279 287.02C243.787 274.407 215.963 262.138 193.42 253.95C189.07 252.37 184.915 250.944 181.01 249.69C172.783 247.058 165.673 245.217 160.201 244.42C154.503 243.589 150.568 243.886 148.977 245.603C148.918 244.391 148.856 243.23 148.793 242.121C148.769 241.753 148.745 241.39 148.722 241.034C148.758 240.936 148.806 240.843 148.852 240.749C148.859 240.735 148.863 240.721 148.87 240.707C148.881 240.676 148.895 240.646 148.912 240.618C148.929 240.581 148.949 240.545 148.971 240.511C148.99 240.469 149.014 240.429 149.042 240.392C149.096 240.309 149.155 240.22 149.22 240.137C149.268 240.074 149.32 240.015 149.375 239.958C149.393 239.93 149.415 239.904 149.44 239.881C149.464 239.857 149.487 239.828 149.517 239.798C149.53 239.779 149.546 239.763 149.565 239.751C149.612 239.697 149.663 239.647 149.719 239.602C149.931 239.407 150.157 239.228 150.395 239.067C150.479 239.014 150.568 238.96 150.651 238.901C151.249 238.543 151.879 238.24 152.532 237.998C152.758 237.915 152.983 237.837 153.227 237.754C153.316 237.73 153.399 237.701 153.488 237.671C153.618 237.629 153.749 237.588 153.885 237.558C154.562 237.356 155.292 237.184 156.081 237.023C156.319 236.976 156.568 236.928 156.817 236.887C157.019 236.851 157.227 236.816 157.435 236.78C159.198 236.501 161.198 236.293 163.406 236.156C163.613 236.144 163.821 236.132 164.029 236.12C164.272 236.108 164.516 236.097 164.765 236.085C164.973 236.073 165.186 236.067 165.4 236.061C165.608 236.049 165.821 236.043 166.041 236.037C166.64 236.019 167.258 236.002 167.887 235.99C169.679 235.96 171.567 235.972 173.549 236.013C174.469 236.031 175.407 236.061 176.368 236.103C176.428 236.103 176.493 236.108 176.552 236.108C177.389 236.132 178.238 236.174 179.099 236.215C179.704 236.245 180.315 236.275 180.927 236.31C181.502 236.346 182.084 236.382 182.672 236.423C183.129 236.447 183.586 236.483 184.049 236.512C184.44 236.542 184.832 236.572 185.224 236.596C185.693 236.631 186.161 236.667 186.636 236.703C187.289 236.756 187.942 236.81 188.607 236.863C189.266 236.922 189.936 236.982 190.607 237.041C191.278 237.101 191.954 237.166 192.631 237.231C192.702 237.237 192.767 237.243 192.833 237.249C193.45 237.315 194.067 237.374 194.691 237.439C198.145 237.79 201.7 238.2 205.356 238.669C207.54 238.948 209.752 239.247 211.992 239.566C215.393 240.048 218.847 240.57 222.325 241.129C225.809 241.693 229.313 242.289 232.837 242.917C233.727 243.078 234.617 243.238 235.513 243.404C236.605 243.606 237.698 243.812 238.79 244.022C239.478 244.153 240.167 244.284 240.855 244.42C241.674 244.581 242.499 244.741 243.318 244.902C248.713 245.971 254.079 247.112 259.314 248.306C260.174 248.502 261.035 248.704 261.89 248.9C263.599 249.298 265.293 249.702 266.97 250.112C267.433 250.225 267.89 250.338 268.347 250.451C269.493 250.736 270.627 251.021 271.748 251.307V251.312C271.814 251.324 271.879 251.342 271.944 251.36C272.763 251.568 273.576 251.776 274.384 251.99C276.289 252.489 278.162 252.992 280.004 253.499C281.227 253.843 282.438 254.182 283.631 254.527C285.417 255.05 287.168 255.572 288.872 256.095C289.293 256.226 289.714 256.357 290.13 256.481C291.376 256.874 292.599 257.264 293.798 257.652C294.748 257.961 295.673 258.276 296.587 258.591C297.501 258.906 298.398 259.22 299.276 259.535C299.846 259.737 300.404 259.945 300.956 260.147C301.763 260.444 302.546 260.741 303.318 261.044C303.555 261.134 303.787 261.229 304.018 261.318C304.452 261.484 304.873 261.656 305.289 261.829C305.568 261.936 305.841 262.049 306.114 262.167C306.381 262.274 306.654 262.387 306.915 262.5C307.182 262.607 307.443 262.72 307.704 262.839C307.924 262.928 308.138 263.023 308.345 263.118C308.767 263.302 309.188 263.486 309.598 263.676C309.799 263.772 310.001 263.861 310.203 263.956L310.666 264.17C310.731 264.205 310.797 264.235 310.862 264.265C311.366 264.502 311.853 264.74 312.328 264.978C312.773 265.203 313.206 265.429 313.622 265.649C314.114 265.91 314.583 266.166 315.034 266.427C315.123 266.475 315.212 266.528 315.301 266.576C315.604 266.748 315.895 266.926 316.186 267.099C316.756 267.449 317.296 267.794 317.8 268.138C318.299 268.483 318.762 268.822 319.195 269.16C319.195 269.166 319.195 269.166 319.201 269.166C319.409 269.333 319.61 269.499 319.8 269.659C320.109 269.927 320.394 270.182 320.655 270.444C320.743 270.524 320.826 270.61 320.904 270.699C320.939 270.728 320.971 270.76 320.999 270.794C321.124 270.931 321.249 271.068 321.367 271.204C321.51 271.371 321.64 271.537 321.765 271.703C321.824 271.786 321.89 271.87 321.943 271.953C322.014 272.054 322.085 272.161 322.145 272.262C322.198 272.345 322.246 272.434 322.293 272.517C322.419 272.731 322.526 272.956 322.614 273.189C322.679 273.347 322.732 273.51 322.774 273.676C322.819 273.834 322.853 273.994 322.875 274.157Z" fill="black"/>
</g>
<defs>
<clipPath id="clip0_20_308">
<rect width="467" height="340" fill="white"/>
</clipPath>
</defs>
</svg>
