<svg width="503" height="303" viewBox="0 0 503 303" fill="none" xmlns="http://www.w3.org/2000/svg">
<path d="M290.329 243.429C289.155 243.429 288.007 243.777 287.031 244.428C286.055 245.08 285.294 246.006 284.844 247.09C284.395 248.174 284.277 249.366 284.506 250.516C284.735 251.667 285.301 252.724 286.131 253.553C286.961 254.382 288.019 254.947 289.171 255.176C290.323 255.405 291.516 255.288 292.601 254.839C293.686 254.39 294.613 253.63 295.266 252.654C295.918 251.679 296.266 250.532 296.266 249.359C296.266 247.786 295.641 246.278 294.527 245.166C293.414 244.054 291.904 243.429 290.329 243.429ZM290.329 253.009C289.607 253.009 288.9 252.795 288.299 252.394C287.699 251.993 287.23 251.423 286.954 250.756C286.677 250.089 286.605 249.355 286.746 248.647C286.887 247.939 287.235 247.289 287.746 246.779C288.257 246.268 288.908 245.921 289.616 245.78C290.325 245.639 291.06 245.711 291.727 245.987C292.395 246.264 292.966 246.732 293.367 247.332C293.769 247.932 293.983 248.638 293.983 249.359V249.359C293.983 250.327 293.598 251.256 292.913 251.94C292.228 252.625 291.298 253.009 290.329 253.009Z" fill="#E4E4E4"/>
<path d="M267.494 238.866H290.329V261.443C290.329 262.231 290.016 262.987 289.458 263.544C288.9 264.101 288.143 264.414 287.355 264.414H270.469C269.68 264.414 268.923 264.101 268.365 263.544C267.808 262.987 267.494 262.231 267.494 261.443V238.866Z" fill="#E4E4E4"/>
<path d="M343.683 264.931H0.463153C0.335869 264.917 0.218221 264.857 0.132757 264.761C0.0472929 264.666 3.05176e-05 264.543 3.05176e-05 264.415C3.05176e-05 264.287 0.0472929 264.163 0.132757 264.068C0.218221 263.973 0.335869 263.913 0.463153 263.899H343.683C343.81 263.913 343.928 263.973 344.013 264.068C344.099 264.163 344.146 264.287 344.146 264.415C344.146 264.543 344.099 264.666 344.013 264.761C343.928 264.857 343.81 264.917 343.683 264.931Z" fill="#CACACA"/>
<path d="M46.1993 255.181L44.0766 265.665L83.5499 278.835L86.6832 263.36L46.1993 255.181Z" fill="#FFB6B6"/>
<path d="M50.1678 253.199L45.987 273.847L45.9868 273.848C45.2799 277.337 43.2143 280.404 40.2443 282.372C37.2743 284.34 33.6432 285.05 30.1497 284.344L29.7216 284.258L36.567 250.451L50.1678 253.199Z" fill="#2F2E41"/>
<path d="M90.9308 110.76C105.733 110.76 117.733 98.773 117.733 83.9862C117.733 69.1995 105.733 57.2124 90.9308 57.2124C76.1282 57.2124 64.1284 69.1995 64.1284 83.9862C64.1284 98.773 76.1282 110.76 90.9308 110.76Z" fill="#FEB8B8"/>
<path d="M115.965 60.8879C111.957 54.3878 105.685 49.5982 98.3544 47.4409L95.064 49.8395V46.725C93.3035 46.4558 91.5217 46.3521 89.7418 46.4153L86.903 48.9811V46.6285C82.6999 47.1502 78.6505 48.5362 75.0104 50.6992C71.3702 52.8621 68.2181 55.755 65.7529 59.1954C59.588 68.0734 58.5474 80.4247 64.611 89.3739C66.2753 84.2639 68.2957 79.4692 69.9605 74.3598C71.2688 74.5379 72.5947 74.5443 73.9046 74.3789L75.9296 69.6586L76.4954 74.1791C82.7724 73.633 92.0825 72.4334 98.033 71.3345L97.4543 67.8664L100.916 70.7482C102.739 70.3291 103.822 69.9486 103.732 69.6581C108.158 76.7852 113.574 81.3372 117.999 88.4644C119.68 78.4147 121.615 70.0586 115.965 60.8879Z" fill="#2F2E41"/>
<path d="M99.6514 259.189C137.766 259.189 168.664 250.555 168.664 239.905C168.664 229.256 137.766 220.622 99.6514 220.622C61.537 220.622 30.6392 229.256 30.6392 239.905C30.6392 250.555 61.537 259.189 99.6514 259.189Z" fill="#2F2E41"/>
<path d="M148.575 152.836C147.654 147.297 146.703 141.652 144.126 136.662C142.432 133.394 139.744 130.279 136.119 129.633C135.405 129.569 134.704 129.407 134.035 129.151C132.973 128.64 118.702 120.502 116.434 119.085C114.486 117.868 111.412 115.615 109.862 115.615C108.302 115.581 102.323 116.971 78.983 115.148C75.057 116.723 71.2553 118.59 67.61 120.734C67.5348 120.685 43.3855 133.639 42.4783 133.605C40.7601 133.533 39.163 134.632 38.178 136.015C37.1933 137.399 36.7313 139.112 36.2477 140.769C41.5223 152.503 46.3483 164.251 51.6234 175.985C51.8704 176.427 52.0016 176.924 52.0049 177.431C51.8989 177.956 51.6745 178.45 51.3487 178.876C48.7618 183.027 48.8441 188.248 49.1267 193.127C49.4095 198.005 49.7592 203.159 47.5765 207.532C46.9828 208.732 46.2108 209.831 45.6462 211.032C44.3238 213.751 43.846 222.448 44.6183 225.369L141.381 228.138C139.301 222.425 148.575 152.836 148.575 152.836Z" fill="#B90CB9"/>
<path d="M27.8836 176.506C27.6905 177.901 27.6711 179.315 27.8257 180.714L29.2126 200.61C29.3428 202.486 29.4709 204.356 29.6471 206.227C29.9799 209.857 30.4769 213.458 31.0939 217.054C31.1078 217.565 31.324 218.049 31.6949 218.401C32.0658 218.752 32.5612 218.942 33.0724 218.93C39.1774 220.22 45.4849 220.168 51.7154 219.817C61.2229 219.287 85.5467 218.284 87.0327 216.355C88.5188 214.427 87.6528 211.308 85.7151 209.749C83.7774 208.189 51.6787 204.388 51.6787 204.388C51.9924 201.905 52.9385 199.567 53.836 197.209C55.4481 193.029 56.9538 188.71 56.9828 184.232C57.0117 179.753 55.3226 175.044 51.6498 172.478C48.6286 170.372 44.7387 169.981 41.0572 170.068C38.3785 170.145 33.7503 169.503 31.3037 170.55C29.3676 171.401 28.2453 174.612 27.8836 176.506Z" fill="#FBBEBE"/>
<path d="M148.747 221.48C150.354 220.868 152.125 221.09 153.848 221.321C159.393 222.078 165.02 222.854 170.16 225.067C172.573 226.1 174.87 227.478 176.502 229.506C177.948 231.333 178.794 233.57 179.595 235.773L181.449 240.845C182.237 242.75 182.78 244.748 183.065 246.789C183.645 252.859 179.489 258.581 174.263 261.734C169.036 264.888 162.883 266.01 156.889 267.187C150.894 268.363 144.877 269.664 138.907 271.043C136.123 271.765 133.298 272.32 130.447 272.706C124.057 273.429 117.378 272.364 111.307 274.476C108.894 275.32 106.524 276.573 104.021 277.156C102.357 277.506 100.675 277.762 98.9827 277.923L87.4921 279.234C85.1555 279.546 82.8031 279.726 80.4462 279.774C75.4273 279.774 70.4902 278.586 65.6165 277.399C65.0987 277.308 64.6057 277.11 64.1697 276.816C63.3978 276.208 63.2288 275.133 63.1177 274.16C62.6254 269.85 62.1948 265.535 61.8259 261.216C61.7102 259.813 61.6234 258.295 62.3907 257.114C63.3559 255.668 65.2383 255.214 66.9564 254.934C74.2416 253.744 81.6219 253.232 89.0019 253.406C91.8056 250.605 96.4291 250.591 100.102 249.067C101.453 248.447 102.761 247.737 104.016 246.941C110.586 243.112 117.927 240.795 125.506 240.158C126.99 240.113 128.465 239.903 129.903 239.532C132.745 238.649 135.337 236.248 138.257 236.837C138.618 235.839 138.869 234.503 139.703 233.819C140.117 233.467 140.63 233.231 141.011 232.854C141.817 232.04 141.89 230.757 141.769 229.62C141.648 228.482 141.377 227.316 141.672 226.206C141.795 225.787 141.975 225.386 142.208 225.016C143.65 222.521 145.837 221.239 148.747 221.48Z" fill="#2F2E41"/>
<path d="M35.9686 141.126C35.4985 141.618 35.134 142.2 34.8974 142.837C30.9964 151.62 28.6923 161.026 28.0928 170.615C28.1034 171.083 27.9955 171.546 27.7792 171.96C27.5659 172.236 27.3285 172.493 27.0697 172.727C26.8442 172.994 26.6735 173.303 26.5674 173.636C26.4613 173.969 26.4219 174.32 26.4515 174.668C26.4811 175.016 26.5791 175.355 26.7398 175.666C26.9006 175.976 27.1209 176.252 27.3884 176.477C27.4322 176.514 27.4772 176.55 27.5234 176.584C28.3197 175.087 30.2258 174.597 31.9201 174.467C40.0325 173.826 47.9568 177.596 56.0935 177.312C55.5194 175.33 54.6937 173.426 54.2256 171.421C52.1551 162.517 57.3191 152.822 54.1532 144.246C53.5208 142.529 52.4641 140.842 50.7993 140.09C50.1099 139.812 49.3885 139.621 48.6518 139.522C46.5958 139.151 42.5029 137.565 40.5151 138.201C39.7814 138.438 39.492 139.127 38.8839 139.543C37.96 140.133 36.7343 140.35 35.9686 141.126Z" fill="#B90CB9"/>
<path d="M148.633 170.55C146.186 169.503 141.558 170.145 138.88 170.068C135.198 169.981 131.308 170.372 128.287 172.478C124.614 175.044 122.925 179.753 122.954 184.232C122.983 188.71 124.489 193.029 126.101 197.209C126.998 199.567 127.944 201.905 128.258 204.388C128.258 204.388 96.1594 208.189 94.2217 209.749C92.284 211.308 91.418 214.427 92.9041 216.355C94.3901 218.284 140.759 220.22 146.864 218.93C147.376 218.942 147.871 218.752 148.242 218.401C148.613 218.049 148.829 217.565 148.843 217.054C149.46 213.458 149.957 209.857 150.29 206.227C150.466 204.356 150.594 202.486 150.724 200.61L152.111 180.714C152.266 179.315 152.246 177.901 152.053 176.506C151.692 174.612 150.569 171.401 148.633 170.55Z" fill="#FBBEBE"/>
<path d="M141.053 139.543C140.445 139.127 140.155 138.438 139.422 138.201C137.434 137.565 133.341 139.151 131.285 139.522C130.548 139.621 129.827 139.812 129.138 140.09C127.473 140.842 126.416 142.529 125.784 144.246C122.618 152.822 127.782 162.517 125.711 171.421C125.243 173.426 124.417 175.33 123.843 177.312C131.98 177.596 139.904 173.826 148.017 174.467C149.711 174.597 151.617 175.087 152.413 176.584C152.46 176.55 152.505 176.514 152.548 176.477C152.816 176.252 153.036 175.976 153.197 175.666C153.358 175.355 153.456 175.016 153.485 174.668C153.515 174.32 153.475 173.969 153.369 173.636C153.263 173.303 153.093 172.994 152.867 172.727C152.608 172.493 152.371 172.236 152.158 171.96C151.941 171.546 151.833 171.083 151.844 170.615C151.245 161.026 148.94 151.62 145.039 142.837C144.803 142.2 144.438 141.618 143.968 141.126C143.202 140.35 141.977 140.133 141.053 139.543Z" fill="#B90CB9"/>
<path d="M154.623 270.148L153.212 280.751L111.597 280.362L113.679 264.712L154.623 270.148Z" fill="#FFB6B6"/>
<path d="M165.272 268.809L160.723 303L160.29 302.942C156.757 302.473 153.555 300.621 151.389 297.794C149.222 294.967 148.269 291.396 148.738 287.866L148.738 287.865L151.517 266.983L165.272 268.809Z" fill="#2F2E41"/>
<path d="M56.7192 226.846C56.7192 227.328 55.9617 226.846 55.8925 226.33C55.3618 222.43 52.2631 219.214 48.6533 217.653C45.0436 216.091 40.9316 216.009 37.0227 216.38C31.1109 216.939 24.4748 219.2 22.3129 224.72C21.8013 226.01 17.0093 237.5 17.477 240.084C18.7367 246.978 23.4564 252.874 29.1753 256.957C34.8943 261.041 41.5764 263.48 48.242 265.68C65.8652 271.486 83.9462 275.8 102.294 278.576C105.266 279.025 108.269 279.439 111.116 280.394C113.664 281.247 116.048 282.524 118.538 283.527C124.33 285.85 130.56 286.68 136.732 287.495C137.784 287.63 138.991 287.726 139.768 287.013C140.772 286.084 140.44 284.462 140.154 283.127C139.106 278.05 139.985 272.765 142.62 268.298C143.654 266.563 144.997 264.784 144.802 262.775C144.57 260.433 142.234 258.774 139.908 258.398C137.582 258.022 135.217 258.576 132.881 258.88C132.08 259.064 131.241 258.981 130.492 258.643C130.145 258.409 129.83 258.131 129.556 257.815C127.946 256.264 125.887 255.262 123.673 254.953C121.458 254.644 119.203 255.043 117.23 256.094C116.366 256.576 115.06 255.501 114.161 255.096L104.011 250.506C92.3517 245.237 80.6342 239.943 68.2988 236.608C67.3145 236.414 66.379 236.026 65.5478 235.465C64.935 234.983 64.4958 234.329 63.931 233.792C62.7002 232.63 60.9857 232.167 59.5105 231.343C58.0353 230.518 56.3813 228.5 56.7192 226.846Z" fill="#2F2E41"/>
<path d="M82.9928 219.88C86.988 219.88 90.2268 216.644 90.2268 212.653C90.2268 208.662 86.988 205.427 82.9928 205.427C78.9976 205.427 75.7588 208.662 75.7588 212.653C75.7588 216.644 78.9976 219.88 82.9928 219.88Z" fill="#FBBEBE"/>
<path d="M99.0109 219.88C103.006 219.88 106.245 216.644 106.245 212.653C106.245 208.662 103.006 205.427 99.0109 205.427C95.0157 205.427 91.7769 208.662 91.7769 212.653C91.7769 216.644 95.0157 219.88 99.0109 219.88Z" fill="#FBBEBE"/>
<path d="M143.664 228.937H44.2805C43.1202 228.936 42.0077 228.475 41.1872 227.655C40.3667 226.835 39.9052 225.724 39.9038 224.565V164.336C39.9052 163.177 40.3667 162.066 41.1872 161.246C42.0077 160.427 43.1202 159.966 44.2805 159.964H143.664C144.825 159.966 145.937 160.427 146.758 161.246C147.578 162.066 148.04 163.177 148.041 164.336V224.565C148.04 225.724 147.578 226.835 146.758 227.655C145.937 228.475 144.825 228.936 143.664 228.937Z" fill="#3F3D56"/>
<path d="M93.7314 197.343C95.3306 197.343 96.627 196.048 96.627 194.451C96.627 192.853 95.3306 191.558 93.7314 191.558C92.1321 191.558 90.8357 192.853 90.8357 194.451C90.8357 196.048 92.1321 197.343 93.7314 197.343Z" fill="white"/>
<path d="M448.522 108.627H319.399C318.714 108.627 318.057 108.354 317.573 107.871C317.089 107.387 316.816 106.731 316.816 106.047V81.7353H317.849V106.047C317.849 106.457 318.013 106.851 318.303 107.141C318.594 107.431 318.988 107.595 319.399 107.595H448.522C448.933 107.595 449.327 107.431 449.618 107.141C449.908 106.851 450.072 106.457 450.072 106.047V81.5654H451.105V106.047C451.105 106.731 450.832 107.387 450.348 107.871C449.864 108.354 449.207 108.627 448.522 108.627Z" fill="#3F3D56"/>
<path d="M495.33 81.2191H191.906V82.2514H495.33V81.2191Z" fill="#3F3D56"/>
<path d="M191.927 90.5338C196.836 90.5338 200.816 86.5585 200.816 81.6548C200.816 76.751 196.836 72.7758 191.927 72.7758C187.019 72.7758 183.039 76.751 183.039 81.6548C183.039 86.5585 187.019 90.5338 191.927 90.5338Z" fill="#B90CB9"/>
<path d="M282.251 90.5338C287.16 90.5338 291.14 86.5585 291.14 81.6548C291.14 76.751 287.16 72.7758 282.251 72.7758C277.343 72.7758 273.363 76.751 273.363 81.6548C273.363 86.5585 277.343 90.5338 282.251 90.5338Z" fill="#B90CB9"/>
<path d="M343.55 116.631C348.459 116.631 352.439 112.656 352.439 107.752C352.439 102.849 348.459 98.8734 343.55 98.8734C338.641 98.8734 334.662 102.849 334.662 107.752C334.662 112.656 338.641 116.631 343.55 116.631Z" fill="#3F3D56"/>
<path d="M390.151 116.631C395.06 116.631 399.039 112.656 399.039 107.752C399.039 102.849 395.06 98.8734 390.151 98.8734C385.242 98.8734 381.262 102.849 381.262 107.752C381.262 112.656 385.242 116.631 390.151 116.631Z" fill="#CCCCCC"/>
<path d="M367.569 90.5338C372.478 90.5338 376.458 86.5585 376.458 81.6548C376.458 76.751 372.478 72.7758 367.569 72.7758C362.66 72.7758 358.68 76.751 358.68 81.6548C358.68 86.5585 362.66 90.5338 367.569 90.5338Z" fill="#B90CB9"/>
<path d="M494.111 90.5338C499.02 90.5338 503 86.5585 503 81.6548C503 76.751 499.02 72.7758 494.111 72.7758C489.203 72.7758 485.223 76.751 485.223 81.6548C485.223 86.5585 489.203 90.5338 494.111 90.5338Z" fill="#B90CB9"/>
<path d="M450.589 90.5338C455.498 90.5338 459.477 86.5585 459.477 81.6548C459.477 76.751 455.498 72.7758 450.589 72.7758C445.68 72.7758 441.7 76.751 441.7 81.6548C441.7 86.5585 445.68 90.5338 450.589 90.5338Z" fill="#B90CB9"/>
<path d="M351.595 0H335.109V11.3503H351.595V0Z" fill="#3F3D56"/>
<path d="M200.236 0H183.749V11.3503H200.236V0Z" fill="#B90CB9"/>
<path d="M256.078 0H239.592V11.3503H256.078V0Z" fill="#CCCCCC"/>
<path d="M219.49 82.2515C219.353 82.2514 219.222 82.1971 219.125 82.1003C219.028 82.0035 218.974 81.8722 218.974 81.7353V56.2563C218.974 55.5721 219.247 54.9161 219.731 54.4323C220.216 53.9485 220.872 53.6763 221.557 53.6755H246.708C246.845 53.6755 246.977 53.7299 247.074 53.8267C247.17 53.9235 247.225 54.0548 247.225 54.1917C247.225 54.3286 247.17 54.4599 247.074 54.5567C246.977 54.6535 246.845 54.7079 246.708 54.7079H221.557C221.146 54.7083 220.752 54.8716 220.462 55.1619C220.171 55.4522 220.008 55.8458 220.007 56.2563V81.7353C220.007 81.8722 219.953 82.0035 219.856 82.1003C219.759 82.1971 219.627 82.2514 219.49 82.2515Z" fill="#3F3D56"/>
<path d="M247.89 62.8778C252.799 62.8778 256.779 58.9025 256.779 53.9988C256.779 49.095 252.799 45.1198 247.89 45.1198C242.981 45.1198 239.002 49.095 239.002 53.9988C239.002 58.9025 242.981 62.8778 247.89 62.8778Z" fill="#E6E6E6"/>
<path d="M418.425 81.7353H417.391V56.2563C417.392 55.5721 417.665 54.9161 418.149 54.4323C418.633 53.9485 419.29 53.6763 419.975 53.6755H445.126V54.7079H419.975C419.564 54.7083 419.17 54.8716 418.879 55.1619C418.589 55.4522 418.425 55.8458 418.425 56.2563V81.7353Z" fill="#3F3D56"/>
<path d="M446.308 62.8778C451.217 62.8778 455.196 58.9025 455.196 53.9988C455.196 49.095 451.217 45.1198 446.308 45.1198C441.399 45.1198 437.419 49.095 437.419 53.9988C437.419 58.9025 441.399 62.8778 446.308 62.8778Z" fill="#E6E6E6"/>
</svg>
