<svg width="531" height="323" viewBox="0 0 531 323" fill="none" xmlns="http://www.w3.org/2000/svg">
<g clip-path="url(#clip0_40_3)">
<path d="M478.076 101.482H167.122C165.801 101.482 164.535 102.043 163.602 103.042C162.668 104.041 162.143 105.396 162.143 106.809C162.143 108.222 162.668 109.576 163.602 110.575C164.535 111.574 165.801 112.135 167.122 112.135H175.93V239.564C175.93 240.976 176.454 242.331 177.388 243.33C178.321 244.329 179.588 244.89 180.908 244.89C182.228 244.89 183.495 244.329 184.428 243.33C185.362 242.331 185.886 240.976 185.886 239.564L185.962 112.135H435.534L458.545 239.564C458.545 240.976 459.07 242.331 460.003 243.33C460.937 244.329 462.203 244.89 463.524 244.89C464.844 244.89 466.11 244.329 467.044 243.33C467.977 242.331 468.502 240.976 468.502 239.564L469.95 112.135H478.076C479.396 112.135 480.662 111.574 481.596 110.575C482.529 109.576 483.054 108.222 483.054 106.809C483.054 105.396 482.529 104.041 481.596 103.042C480.662 102.043 479.396 101.482 478.076 101.482Z" fill="#CCCCCC"/>
<path d="M221.022 77.7478V100.304H168.204C166.819 100.356 165.439 100.115 164.142 99.596C162.845 99.0768 161.656 98.2894 160.643 97.2785C159.63 96.2677 158.813 95.0532 158.239 93.7046C157.665 92.356 157.344 90.8995 157.296 89.4185C157.248 87.9374 157.473 86.4606 157.958 85.0726C158.443 83.6845 159.179 82.4123 160.124 81.3286C161.069 80.2449 162.204 79.3709 163.464 78.7565C164.725 78.1421 166.086 77.7993 167.47 77.7478C167.715 77.7387 167.959 77.7387 168.204 77.7478L221.022 77.7478Z" fill="#F2F2F2"/>
<path d="M222.319 100.131C222.319 100.361 222.233 100.582 222.081 100.744C221.929 100.907 221.723 100.998 221.508 100.998H167.263C164.318 100.996 161.495 99.743 159.413 97.5143C157.331 95.2855 156.162 92.2636 156.162 89.1128C156.162 85.962 157.331 82.9401 159.413 80.7114C161.495 78.4826 164.318 77.2294 167.263 77.2272H221.508C221.615 77.2269 221.72 77.2492 221.819 77.2926C221.918 77.3361 222.007 77.4 222.083 77.4806C222.158 77.5611 222.218 77.6569 222.259 77.7623C222.3 77.8677 222.321 77.9807 222.321 78.0948C222.321 78.2089 222.3 78.3219 222.259 78.4273C222.218 78.5327 222.158 78.6285 222.083 78.7091C222.007 78.7897 221.918 78.8535 221.819 78.897C221.72 78.9405 221.615 78.9627 221.508 78.9624H167.263C164.749 78.9664 162.34 80.0377 160.564 81.9408C158.788 83.8439 157.79 86.4234 157.79 89.1128C157.79 91.8022 158.788 94.3817 160.564 96.2849C162.34 98.188 164.749 99.2592 167.263 99.2633H221.508C221.723 99.2634 221.929 99.3548 222.081 99.5175C222.233 99.6802 222.319 99.9008 222.319 100.131Z" fill="#CF25BE"/>
<path d="M221.022 82.9532H164.263C164.22 82.9534 164.179 82.9355 164.148 82.9032C164.117 82.871 164.1 82.8272 164.1 82.7813C164.099 82.7354 164.116 82.6912 164.146 82.6583C164.176 82.6255 164.217 82.6068 164.26 82.6062H221.022C221.064 82.6066 221.105 82.6251 221.135 82.6576C221.165 82.6901 221.182 82.7339 221.182 82.7797C221.182 82.8254 221.165 82.8693 221.135 82.9018C221.105 82.9342 221.064 82.9527 221.022 82.9532Z" fill="#CCCCCC"/>
<path d="M221.022 87.1175H164.263C164.22 87.1177 164.179 87.0998 164.148 87.0676C164.117 87.0353 164.1 86.9915 164.1 86.9456C164.099 86.8997 164.116 86.8555 164.146 86.8227C164.176 86.7898 164.217 86.7711 164.26 86.7705H221.022C221.064 86.7709 221.105 86.7894 221.135 86.8219C221.165 86.8544 221.182 86.8983 221.182 86.944C221.182 86.9897 221.165 87.0336 221.135 87.0661C221.105 87.0986 221.064 87.117 221.022 87.1175Z" fill="#CCCCCC"/>
<path d="M221.022 91.2818H164.263C164.22 91.282 164.179 91.2641 164.148 91.2318C164.117 91.1996 164.1 91.1558 164.1 91.1099C164.099 91.064 164.116 91.0198 164.146 90.9869C164.176 90.9541 164.217 90.9354 164.26 90.9348H221.022C221.064 90.9352 221.105 90.9537 221.135 90.9862C221.165 91.0187 221.182 91.0626 221.182 91.1083C221.182 91.154 221.165 91.1979 221.135 91.2303C221.105 91.2628 221.064 91.2813 221.022 91.2818Z" fill="#CCCCCC"/>
<path d="M221.022 95.446H164.263C164.22 95.4463 164.179 95.4283 164.148 95.3961C164.117 95.3639 164.1 95.32 164.1 95.2741C164.099 95.2282 164.116 95.184 164.146 95.1512C164.176 95.1184 164.217 95.0996 164.26 95.099H221.022C221.064 95.0995 221.105 95.1179 221.135 95.1504C221.165 95.1829 221.182 95.2268 221.182 95.2725C221.182 95.3182 221.165 95.3621 221.135 95.3946C221.105 95.4271 221.064 95.4456 221.022 95.446Z" fill="#CCCCCC"/>
<path d="M211.065 53.9831V76.5397H158.247C155.451 76.6438 152.732 75.5553 150.686 73.5138C148.64 71.4723 147.437 68.6449 147.339 65.6538C147.242 62.6626 148.259 59.7526 150.167 57.5639C152.075 55.3752 154.718 54.0872 157.514 53.9831C157.758 53.974 158.002 53.974 158.247 53.9831H211.065Z" fill="#F2F2F2"/>
<path d="M212.362 76.3662C212.362 76.5962 212.277 76.8168 212.125 76.9795C211.973 77.1422 211.766 77.2336 211.551 77.2337H157.306C154.36 77.2337 151.535 75.9815 149.451 73.7525C147.368 71.5236 146.198 68.5004 146.198 65.3481C146.198 62.1959 147.368 59.1728 149.451 56.9438C151.535 54.7148 154.36 53.4626 157.306 53.4626H211.551C211.658 53.4626 211.763 53.485 211.862 53.5286C211.96 53.5722 212.049 53.6361 212.125 53.7167C212.2 53.7972 212.26 53.8929 212.301 53.9981C212.341 54.1034 212.362 54.2162 212.362 54.3301C212.362 54.4441 212.341 54.5569 212.301 54.6621C212.26 54.7674 212.2 54.863 212.125 54.9436C212.049 55.0242 211.96 55.088 211.862 55.1316C211.763 55.1752 211.658 55.1977 211.551 55.1977H157.306C154.79 55.1977 152.377 56.2671 150.598 58.1707C148.819 60.0743 147.819 62.6561 147.819 65.3482C147.819 68.0402 148.819 70.622 150.598 72.5256C152.377 74.4292 154.79 75.4986 157.306 75.4986H211.551C211.766 75.4987 211.973 75.5902 212.125 75.7528C212.277 75.9155 212.362 76.1361 212.362 76.3662Z" fill="#3F3D56"/>
<path d="M211.065 59.1885H154.306C154.263 59.1887 154.222 59.1708 154.191 59.1385C154.161 59.1063 154.143 59.0625 154.143 59.0165C154.143 58.9706 154.159 58.9264 154.189 58.8936C154.219 58.8608 154.26 58.842 154.303 58.8414H211.065C211.108 58.8419 211.148 58.8604 211.179 58.8929C211.209 58.9254 211.225 58.9692 211.225 59.0149C211.225 59.0607 211.209 59.1045 211.179 59.137C211.148 59.1695 211.108 59.188 211.065 59.1885Z" fill="#CCCCCC"/>
<path d="M211.065 63.3528H154.306C154.263 63.353 154.222 63.3351 154.191 63.3028C154.161 63.2706 154.143 63.2268 154.143 63.1809C154.143 63.135 154.159 63.0908 154.189 63.0579C154.219 63.0251 154.26 63.0063 154.303 63.0057H211.065C211.108 63.0062 211.148 63.0247 211.179 63.0572C211.209 63.0897 211.225 63.1335 211.225 63.1792C211.225 63.225 211.209 63.2688 211.179 63.3013C211.148 63.3338 211.108 63.3523 211.065 63.3528Z" fill="#CCCCCC"/>
<path d="M211.065 67.517H154.306C154.263 67.5173 154.222 67.4993 154.191 67.4671C154.161 67.4349 154.143 67.391 154.143 67.3451C154.143 67.2992 154.159 67.255 154.189 67.2222C154.219 67.1894 154.26 67.1706 154.303 67.17H211.065C211.108 67.1705 211.148 67.189 211.179 67.2215C211.209 67.2539 211.225 67.2978 211.225 67.3435C211.225 67.3893 211.209 67.4331 211.179 67.4656C211.148 67.4981 211.108 67.5166 211.065 67.517Z" fill="#CCCCCC"/>
<path d="M211.065 71.6813H154.306C154.263 71.6816 154.222 71.6636 154.191 71.6314C154.161 71.5992 154.143 71.5553 154.143 71.5094C154.143 71.4635 154.159 71.4193 154.189 71.3865C154.219 71.3537 154.26 71.3349 154.303 71.3343H211.065C211.108 71.3348 211.148 71.3532 211.179 71.3857C211.209 71.4182 211.225 71.4621 211.225 71.5078C211.225 71.5535 211.209 71.5974 211.179 71.6299C211.148 71.6624 211.108 71.6809 211.065 71.6813Z" fill="#CCCCCC"/>
<path d="M272.508 181.3V161.633C272.508 160.764 272.185 159.93 271.611 159.315C271.036 158.701 270.257 158.355 269.445 158.355H199.748C198.936 158.355 198.156 158.701 197.582 159.315C197.007 159.93 196.685 160.764 196.685 161.633V181.3H272.508Z" fill="#CCCCCC"/>
<path d="M272.508 188.676H196.685V214.079H272.508V188.676Z" fill="#CCCCCC"/>
<path d="M196.685 221.455V241.122C196.685 241.991 197.007 242.825 197.582 243.44C198.156 244.054 198.936 244.4 199.748 244.4H269.445C270.257 244.4 271.036 244.054 271.611 243.44C272.185 242.825 272.508 241.991 272.508 241.122V221.455H196.685Z" fill="#CCCCCC"/>
<path d="M234.213 173.106C235.482 173.106 236.511 172.005 236.511 170.647C236.511 169.289 235.482 168.189 234.213 168.189C232.944 168.189 231.916 169.289 231.916 170.647C231.916 172.005 232.944 173.106 234.213 173.106Z" fill="white"/>
<path d="M234.213 205.885C235.482 205.885 236.511 204.784 236.511 203.426C236.511 202.068 235.482 200.968 234.213 200.968C232.944 200.968 231.916 202.068 231.916 203.426C231.916 204.784 232.944 205.885 234.213 205.885Z" fill="white"/>
<path d="M234.337 237.969C235.606 237.969 236.634 236.869 236.634 235.511C236.634 234.153 235.606 233.053 234.337 233.053C233.068 233.053 232.039 234.153 232.039 235.511C232.039 236.869 233.068 237.969 234.337 237.969Z" fill="white"/>
<path d="M263.912 135.93V158.487H211.094C208.299 158.589 205.581 157.5 203.537 155.458C201.493 153.417 200.291 150.591 200.193 147.601C200.096 144.611 201.112 141.703 203.019 139.514C204.925 137.326 207.565 136.037 210.36 135.93C210.604 135.921 210.849 135.921 211.094 135.93H263.912Z" fill="#F2F2F2"/>
<path d="M265.209 158.313C265.209 158.544 265.124 158.764 264.972 158.927C264.819 159.089 264.613 159.181 264.398 159.181H210.153C207.208 159.182 204.382 157.931 202.299 155.703C200.215 153.476 199.044 150.454 199.042 147.303C199.04 144.151 200.208 141.128 202.289 138.898C204.37 136.667 207.194 135.413 210.14 135.41H264.398C264.505 135.41 264.611 135.432 264.709 135.475C264.808 135.519 264.897 135.583 264.973 135.663C265.048 135.744 265.108 135.839 265.149 135.945C265.19 136.05 265.211 136.163 265.211 136.277C265.211 136.392 265.19 136.505 265.149 136.61C265.108 136.715 265.048 136.811 264.973 136.892C264.897 136.972 264.808 137.036 264.709 137.08C264.611 137.123 264.505 137.145 264.398 137.145H210.153C207.639 137.148 205.229 138.219 203.453 140.123C201.676 142.026 200.679 144.606 200.679 147.295C200.679 149.985 201.676 152.565 203.453 154.468C205.229 156.371 207.639 157.442 210.153 157.446H264.398C264.613 157.446 264.819 157.537 264.972 157.7C265.124 157.863 265.209 158.083 265.209 158.313Z" fill="#3F3D56"/>
<path d="M263.912 141.136H207.153C207.11 141.136 207.069 141.118 207.038 141.086C207.008 141.054 206.99 141.01 206.99 140.964C206.99 140.918 207.006 140.874 207.036 140.841C207.066 140.808 207.107 140.789 207.15 140.789H263.912C263.955 140.789 263.995 140.808 264.025 140.84C264.056 140.873 264.072 140.917 264.072 140.962C264.072 141.008 264.056 141.052 264.025 141.084C263.995 141.117 263.955 141.135 263.912 141.136H263.912Z" fill="#CCCCCC"/>
<path d="M263.912 145.3H207.153C207.11 145.3 207.069 145.282 207.038 145.25C207.008 145.218 206.99 145.174 206.99 145.128C206.99 145.082 207.006 145.038 207.036 145.005C207.066 144.972 207.107 144.954 207.15 144.953H263.912C263.955 144.954 263.995 144.972 264.025 145.005C264.056 145.037 264.072 145.081 264.072 145.127C264.072 145.172 264.056 145.216 264.025 145.249C263.995 145.281 263.955 145.3 263.912 145.3H263.912Z" fill="#CCCCCC"/>
<path d="M263.912 149.464H207.153C207.11 149.465 207.069 149.447 207.038 149.414C207.008 149.382 206.99 149.338 206.99 149.292C206.99 149.247 207.006 149.202 207.036 149.17C207.066 149.137 207.107 149.118 207.15 149.117H263.912C263.955 149.118 263.995 149.136 264.025 149.169C264.056 149.201 264.072 149.245 264.072 149.291C264.072 149.337 264.056 149.38 264.025 149.413C263.995 149.445 263.955 149.464 263.912 149.464H263.912Z" fill="#CCCCCC"/>
<path d="M263.912 153.629H207.153C207.11 153.629 207.069 153.611 207.038 153.579C207.008 153.546 206.99 153.503 206.99 153.457C206.99 153.411 207.006 153.367 207.036 153.334C207.066 153.301 207.107 153.282 207.15 153.282H263.912C263.955 153.282 263.995 153.301 264.025 153.333C264.056 153.366 264.072 153.409 264.072 153.455C264.072 153.501 264.056 153.545 264.025 153.577C263.995 153.61 263.955 153.628 263.912 153.629H263.912Z" fill="#CCCCCC"/>
<path d="M201.88 46.4583H177.815C177.587 46.4581 177.362 46.5142 177.157 46.6222L171.083 49.8755C170.883 49.9664 170.713 50.1182 170.593 50.312C170.473 50.5058 170.409 50.733 170.409 50.9654C170.409 51.1977 170.473 51.425 170.593 51.6188C170.713 51.8126 170.883 51.9643 171.083 52.0552L177.157 55.3085C177.362 55.4166 177.587 55.4727 177.815 55.4725H201.88C202.211 55.493 202.537 55.3729 202.787 55.1382C203.036 54.9035 203.189 54.5732 203.213 54.2186V47.712C203.189 47.3575 203.036 47.0272 202.787 46.7925C202.537 46.5578 202.211 46.4378 201.88 46.4583Z" fill="#3F3D56"/>
<path d="M203.213 47.7121V54.2187C203.189 54.5732 203.036 54.9036 202.787 55.1383C202.537 55.3729 202.211 55.493 201.88 55.4725H197.086V46.4583H201.88C202.211 46.4378 202.537 46.5578 202.787 46.7925C203.036 47.0272 203.189 47.3576 203.213 47.7121Z" fill="#B90CB9"/>
<path d="M57.6063 173.952C60.705 175.118 64.0319 175.41 67.2666 174.8C70.5013 174.19 73.5347 172.699 76.0747 170.471C82.5433 164.662 84.5714 155.092 86.2216 146.23C87.8486 137.493 89.4756 128.756 91.1026 120.019L80.8837 127.547C73.535 132.961 66.0207 138.549 60.9325 146.391C55.8442 154.233 53.6232 164.938 57.7114 173.423" fill="#E6E6E6"/>
<path d="M58.4799 205.686C57.4456 197.626 56.3821 189.461 57.1076 181.314C57.7519 174.079 59.815 167.012 64.0153 161.217C66.2448 158.147 68.9577 155.517 72.0319 153.444C72.8336 152.903 73.5714 154.262 72.7733 154.801C67.4539 158.398 63.3395 163.71 61.0234 169.97C58.4653 176.932 58.0545 184.521 58.4953 191.916C58.7619 196.388 59.3269 200.831 59.8962 205.268C59.9411 205.469 59.9131 205.681 59.8179 205.86C59.7227 206.039 59.5674 206.174 59.3833 206.235C59.1955 206.289 58.9954 206.262 58.8262 206.159C58.6571 206.056 58.5327 205.887 58.4799 205.686L58.4799 205.686Z" fill="#F2F2F2"/>
<path d="M68.4418 191.423C69.7708 193.584 71.5975 195.342 73.746 196.529C75.8945 197.715 78.2924 198.29 80.7087 198.197C86.9184 197.881 92.0953 193.244 96.7554 188.842L110.539 175.82L101.417 175.353C94.8562 175.017 88.1265 174.704 81.8779 176.868C75.6293 179.033 69.8664 184.243 68.7238 191.163" fill="#E6E6E6"/>
<path d="M55.5569 210.32C60.5351 200.895 66.3093 190.421 76.6268 187.073C79.4956 186.145 82.5037 185.813 85.4891 186.094C86.43 186.181 86.1951 187.733 85.2558 187.646C80.2516 187.201 75.257 188.615 71.113 191.65C67.1252 194.554 64.0203 198.591 61.3924 202.873C59.7827 205.496 58.3408 208.23 56.8986 210.96C56.4378 211.833 55.0907 211.203 55.5569 210.32L55.5569 210.32Z" fill="#F2F2F2"/>
<path d="M47.5805 220.24C47.7483 218.161 48.446 216.17 49.5979 214.486C50.7498 212.801 52.3116 211.487 54.1132 210.687V205.238H62.6542V210.859C64.3671 211.698 65.8413 213.009 66.9264 214.657C68.0115 216.305 68.6687 218.232 68.8311 220.24L70.8395 245.219H45.5721L47.5805 220.24Z" fill="#F2F2F2"/>
<path d="M338.046 100.97L335.505 99.8255L333.762 86.1973H310.551L308.662 99.7698L306.388 100.986C306.28 101.044 306.193 101.14 306.141 101.258C306.089 101.376 306.077 101.509 306.105 101.635C306.133 101.762 306.2 101.875 306.295 101.955C306.39 102.036 306.508 102.08 306.63 102.08H337.836C337.961 102.08 338.082 102.034 338.178 101.949C338.275 101.865 338.341 101.747 338.366 101.617C338.39 101.486 338.372 101.35 338.314 101.232C338.255 101.115 338.161 101.022 338.046 100.97Z" fill="#E6E6E6"/>
<path d="M379.293 88.0106H265.274C264.676 88.0091 264.103 87.7539 263.68 87.3007C263.258 86.8476 263.021 86.2337 263.021 85.5936V68.3907H381.547V85.5936C381.547 86.2337 381.31 86.8476 380.887 87.3007C380.465 87.7538 379.892 88.0091 379.293 88.0106Z" fill="#CCCCCC"/>
<path d="M381.666 76.5212H262.916V2.91357C262.917 2.1411 263.204 1.40053 263.715 0.854315C264.225 0.308106 264.918 0.000862438 265.64 -1.90735e-06H378.943C379.665 0.000862423 380.357 0.308107 380.868 0.854315C381.378 1.40052 381.666 2.1411 381.666 2.91357L381.666 76.5212Z" fill="#3F3D56"/>
<path d="M374.574 71.1787H270.009C269.452 71.1781 268.919 70.9412 268.525 70.5201C268.132 70.099 267.91 69.5281 267.91 68.9326V7.58862C267.91 6.99308 268.132 6.42211 268.525 6.00099C268.919 5.57987 269.452 5.343 270.009 5.34231H374.574C375.131 5.343 375.664 5.57987 376.058 6.00099C376.451 6.42211 376.673 6.99307 376.673 7.58862V68.9326C376.673 69.5281 376.451 70.099 376.058 70.5201C375.664 70.9412 375.131 71.1781 374.574 71.1787Z" fill="white"/>
<path d="M347.033 92.824C347.708 92.1568 348.512 91.6561 349.387 91.3571C350.263 91.0582 351.189 90.9683 352.101 91.0937C353.012 91.2192 353.887 91.5569 354.663 92.0832C355.439 92.6095 356.098 93.3115 356.594 94.1398L370.737 91.4493L374.362 100.247L354.338 103.746C352.983 104.544 351.401 104.783 349.892 104.416C348.383 104.049 347.052 103.103 346.152 101.757C345.251 100.411 344.843 98.7576 345.006 97.1112C345.168 95.4648 345.89 93.9394 347.033 92.824Z" fill="#FFB6B6"/>
<path d="M360.128 104.057L374.873 103.86L376.739 103.833L406.739 103.429C406.739 103.429 414.885 95.1133 421.979 86.5518L420.985 78.8572C420.015 71.3058 416.514 64.3886 411.133 59.3929C400.973 66.6565 395.082 81.034 395.082 81.034L376.481 85.7941L374.62 86.2703L363.062 89.2253L360.128 104.057Z" fill="#CF25BE"/>
<path d="M435.61 151.351H408.086C408.086 152.613 377.999 153.637 377.999 153.637C377.335 154.172 376.731 154.785 376.196 155.466C374.59 157.515 373.712 160.106 373.717 162.781V164.609C373.719 167.64 374.844 170.547 376.847 172.69C378.85 174.833 381.567 176.038 384.4 176.039H435.61C438.442 176.036 441.158 174.831 443.16 172.688C445.163 170.545 446.289 167.64 446.292 164.609V162.781C446.288 159.751 445.161 156.846 443.159 154.703C441.156 152.561 438.442 151.355 435.61 151.351Z" fill="#E4E4E4"/>
<path d="M415.595 175.585H404.485V244.196H415.595V175.585Z" fill="#E4E4E4"/>
<path d="M372.865 243.778C372.865 245.063 389.7 244.275 410.467 244.275C431.234 244.275 448.069 245.063 448.069 243.778C448.069 242.494 431.234 232.309 410.467 232.309C389.7 232.309 372.865 242.494 372.865 243.778Z" fill="#E4E4E4"/>
<path d="M365.403 235.939L357.134 235.938L353.201 201.816L365.404 201.816L365.403 235.939Z" fill="#FFB6B6"/>
<path d="M367.511 244.514L340.851 244.513V244.152C340.851 241.208 341.945 238.384 343.891 236.302C345.837 234.219 348.476 233.05 351.228 233.049H351.228L367.512 233.05L367.511 244.514Z" fill="#2F2E41"/>
<path d="M340.965 235.939L332.697 235.938L328.764 201.816L340.966 201.816L340.965 235.939Z" fill="#FFB6B6"/>
<path d="M343.074 244.514L316.414 244.513V244.152C316.414 241.208 317.507 238.384 319.453 236.302C321.399 234.219 324.038 233.05 326.79 233.049H326.791L343.074 233.05L343.074 244.514Z" fill="#2F2E41"/>
<path d="M415.03 39.491C422.97 39.491 429.406 32.6044 429.406 24.1093C429.406 15.6141 422.97 8.72747 415.03 8.72747C407.09 8.72747 400.654 15.6141 400.654 24.1093C400.654 32.6044 407.09 39.491 415.03 39.491Z" fill="#FFB6B6"/>
<path d="M438.297 129.499C438.297 129.499 443.121 156.79 424.768 160.265C406.415 163.741 379.922 166.183 379.922 166.183L368.024 225.574L352.041 224.047C352.041 224.047 354.166 152.554 359.394 146.961C364.622 141.367 397.663 124.619 397.663 124.619L438.297 129.499Z" fill="#2F2E41"/>
<path d="M402.452 118.062L394.426 126.677C394.426 126.677 336.468 136.666 334.232 150.989C330.856 172.613 326.869 219.636 326.869 219.636L344.295 218.237L351.128 164.785L379.009 157.999L410.73 139.503L402.452 118.062Z" fill="#2F2E41"/>
<path d="M428.864 14.9275C427.445 12.0627 425.642 6.35306 422.777 5.29415C421.186 4.72981 419.542 4.35507 417.875 4.17675L413.006 6.1803L415.656 3.97529C415.14 3.94241 414.625 3.91552 414.109 3.89464L410.824 5.24644L412.505 3.84786C409.442 3.81423 406.281 4.15494 403.908 6.14969C401.885 7.85022 399.881 14.2922 399.557 17.0227C399.21 19.635 399.332 22.2939 399.914 24.8576L400.746 25.7039C401.037 24.99 401.256 24.2448 401.399 23.4811C401.697 22.0541 402.27 20.7092 403.081 19.5321C403.892 18.3551 404.923 17.3717 406.108 16.6446L406.154 16.6173C407.549 15.7771 409.242 15.8158 410.842 15.8774L418.441 16.17C420.27 16.2404 422.238 16.3642 423.664 17.5912C424.569 18.4964 425.282 19.6005 425.752 20.8277C426.46 22.3572 427.844 28.1261 427.844 28.1261C427.844 28.1261 428.627 27.0371 429.002 27.8476C429.604 25.733 429.97 23.5496 430.092 21.3429C430.212 19.1264 429.789 16.915 428.864 14.9275Z" fill="#2F2E41"/>
<path d="M479.145 30.8642C478.228 30.9288 477.335 31.2078 476.53 31.6814C475.725 32.1551 475.026 32.8119 474.484 33.6057C473.941 34.3994 473.568 35.3108 473.39 36.2756C473.213 37.2404 473.235 38.2351 473.455 39.1896L461.895 48.3138L465.364 57.1829L481.52 44.0525C482.994 43.5499 484.245 42.486 485.035 41.0627C485.825 39.6393 486.1 37.9552 485.807 36.3296C485.515 34.704 484.675 33.2497 483.447 32.2424C482.219 31.2351 480.688 30.7447 479.145 30.8642Z" fill="#FFB6B6"/>
<path d="M477.284 49.4913L448.303 83.9297C448.303 83.9297 434.444 79.1826 423.725 74.0359L418.91 58.2119C417.792 54.5409 417.315 50.681 417.502 46.8253C432.361 42.5947 449.644 58.3359 449.644 58.3359L471.338 40.1546L477.284 49.4913Z" fill="#CF25BE"/>
<path d="M409.66 132.043C404.49 130.132 399.143 128.156 393.376 127.414L393.129 127.382L393.197 127.126C399.167 104.699 397.677 90.3523 394.751 68.8022C394.129 64.1539 394.928 59.4149 397.03 55.2926C399.132 51.1703 402.423 47.8858 406.413 45.9292L406.448 45.9121L422.919 44.7923L422.957 44.7898L434.935 48.5593C436.659 49.1056 438.167 50.2414 439.229 51.7925C440.291 53.3436 440.849 55.2246 440.817 57.1472C440.687 64.2344 440.962 72.147 441.253 80.524C441.907 99.3173 442.583 118.751 438.747 131.359L438.727 131.426L438.676 131.468C435.15 134.541 430.732 136.201 426.185 136.163C420.808 136.163 415.321 134.135 409.66 132.043Z" fill="#CF25BE"/>
<path d="M529.234 246H0.765897C0.562769 246 0.367962 245.914 0.224329 245.76C0.0806962 245.606 0 245.398 0 245.181C0 244.963 0.0806962 244.755 0.224329 244.601C0.367962 244.447 0.562769 244.361 0.765897 244.361H529.234C529.437 244.361 529.632 244.447 529.776 244.601C529.919 244.755 530 244.963 530 245.181C530 245.398 529.919 245.606 529.776 245.76C529.632 245.914 529.437 246 529.234 246Z" fill="#CCCCCC"/>
</g>
<path d="M36.375 293.609C35.4688 294.391 34.5156 295.25 33.5156 296.188C32.5469 297.094 31.5 297.938 30.375 298.719C29.2812 299.5 28.1406 300.156 26.9531 300.688C25.7656 301.188 24.5156 301.438 23.2031 301.438C22.5156 301.438 21.7656 301.359 20.9531 301.203C20.1406 301.016 19.375 300.719 18.6562 300.312C17.9688 299.906 17.3594 299.406 16.8281 298.812C16.3281 298.188 16.0625 297.453 16.0312 296.609C15.9062 295.422 16.0312 293.969 16.4062 292.25C16.8125 290.5 17.4062 288.672 18.1875 286.766C18.9688 284.828 19.8906 282.922 20.9531 281.047C22.0469 279.141 23.2344 277.422 24.5156 275.891C25.7969 274.328 27.1406 273.078 28.5469 272.141C29.9844 271.203 31.4375 270.734 32.9062 270.734C33.125 270.734 33.3594 270.766 33.6094 270.828C33.8906 270.859 34.1406 270.922 34.3594 271.016C34.6094 271.109 34.8125 271.266 34.9688 271.484C35.125 271.672 35.2031 271.938 35.2031 272.281C35.2031 272.438 34.8438 272.641 34.125 272.891C33.4375 273.141 32.6406 273.422 31.7344 273.734C30.8281 274.016 29.9531 274.328 29.1094 274.672C28.2656 274.984 27.7031 275.297 27.4219 275.609C26.2969 277.047 25.2188 278.516 24.1875 280.016C23.1875 281.516 22.2812 283.062 21.4688 284.656C20.6875 286.25 20.0156 287.891 19.4531 289.578C18.9219 291.266 18.5625 293 18.375 294.781C18.375 295.656 18.5469 296.344 18.8906 296.844C19.2344 297.312 19.6719 297.672 20.2031 297.922C20.7656 298.141 21.4062 298.281 22.125 298.344C22.8438 298.375 23.5625 298.391 24.2812 298.391C25.5312 298.266 26.7812 297.844 28.0312 297.125C29.2812 296.375 30.4531 295.453 31.5469 294.359C32.6719 293.266 33.6875 292.031 34.5938 290.656C35.5 289.25 36.2656 287.828 36.8906 286.391H29.5781C29.5781 286.016 29.7969 285.672 30.2344 285.359C30.7031 285.047 31.2812 284.766 31.9688 284.516C32.6875 284.234 33.4844 283.984 34.3594 283.766C35.2344 283.547 36.0938 283.359 36.9375 283.203C37.7812 283.047 38.5625 282.938 39.2812 282.875C40 282.812 40.5625 282.781 40.9688 282.781H41.4844C41.7031 282.781 41.9062 282.812 42.0938 282.875C42.2812 282.938 42.4062 283.062 42.4688 283.25C42.5625 283.406 42.5312 283.656 42.375 284C42.3438 284.062 42.2344 284.156 42.0469 284.281C41.8906 284.406 41.7031 284.531 41.4844 284.656C41.2969 284.781 41.1094 284.906 40.9219 285.031C40.7344 285.125 40.6094 285.188 40.5469 285.219C39.8906 286.531 39.4219 288.078 39.1406 289.859C38.8594 291.641 38.7031 293.484 38.6719 295.391C38.6406 297.297 38.7031 299.203 38.8594 301.109C39.0156 302.984 39.2031 304.672 39.4219 306.172L37.5938 307.391C37.2188 307.016 36.9062 306.484 36.6562 305.797C36.4375 305.109 36.2812 304.344 36.1875 303.5C36.0938 302.656 36.0469 301.766 36.0469 300.828C36.0469 299.891 36.0625 298.984 36.0938 298.109C36.1562 297.203 36.2031 296.359 36.2344 295.578C36.2969 294.797 36.3438 294.141 36.375 293.609ZM44.625 279.406V279.031C44.625 278.719 44.7344 278.5 44.9531 278.375C45.2031 278.25 45.4844 278.188 45.7969 278.188C46.0469 278.188 46.2812 278.219 46.5 278.281C46.7188 278.312 46.8906 278.484 47.0156 278.797C47.1094 279.266 47.2031 279.922 47.2969 280.766C47.3906 281.578 47.5 282.484 47.625 283.484C47.75 284.484 47.875 285.547 48 286.672C48.1562 287.766 48.2969 288.812 48.4219 289.812C48.5781 290.781 48.7344 291.656 48.8906 292.438C49.0469 293.219 49.2188 293.812 49.4062 294.219C49.3125 291.219 49.4062 288.625 49.6875 286.438C49.9688 284.219 50.5 282.422 51.2812 281.047C52.0938 279.641 53.1875 278.672 54.5625 278.141C55.9688 277.578 57.7188 277.453 59.8125 277.766C60.7812 277.766 61.2656 278.281 61.2656 279.312C61.2656 279.719 61 280 60.4688 280.156C59.9375 280.281 59.3438 280.375 58.6875 280.438C58.0312 280.469 57.3906 280.516 56.7656 280.578C56.1406 280.641 55.6875 280.797 55.4062 281.047C54.2812 281.672 53.4844 282.641 53.0156 283.953C52.5781 285.266 52.2656 286.812 52.0781 288.594C51.8906 290.375 51.75 292.328 51.6562 294.453C51.5938 296.547 51.3906 298.703 51.0469 300.922C51.0469 301.234 50.9219 301.469 50.6719 301.625C50.4219 301.781 50.1094 301.859 49.7344 301.859C49.3906 301.859 49.0469 301.781 48.7031 301.625C48.3906 301.469 48.1406 301.234 47.9531 300.922L44.625 279.406ZM65.0156 291.875C64.8594 291.906 64.625 291.953 64.3125 292.016C64 292.078 63.6719 292.094 63.3281 292.062C62.9844 292.031 62.6875 291.938 62.4375 291.781C62.1562 291.625 62.0156 291.359 62.0156 290.984C62.0156 290.766 62.0625 290.609 62.1562 290.516C62.25 290.422 62.4062 290.281 62.625 290.094C63.3125 289.531 63.8906 288.812 64.3594 287.938C64.8594 287.031 65.3125 286.078 65.7188 285.078C66.125 284.047 66.5469 283.031 66.9844 282.031C67.4531 281 67.9844 280.078 68.5781 279.266C69.1719 278.453 69.9062 277.797 70.7812 277.297C71.6562 276.797 72.7344 276.562 74.0156 276.594C74.5469 276.594 75.1406 276.719 75.7969 276.969C76.4531 277.219 77.0625 277.562 77.625 278C78.1875 278.406 78.6562 278.906 79.0312 279.5C79.4062 280.094 79.5938 280.75 79.5938 281.469C79.75 281.719 79.5938 282.078 79.125 282.547C78.6875 283.016 78.0781 283.531 77.2969 284.094C76.5156 284.625 75.625 285.188 74.625 285.781C73.6562 286.344 72.7188 286.875 71.8125 287.375C70.9062 287.875 70.1094 288.312 69.4219 288.688C68.7344 289.062 68.2812 289.344 68.0625 289.531C67.9062 289.844 67.7812 290.203 67.6875 290.609C67.5938 291.016 67.5156 291.406 67.4531 291.781C67.4219 292.125 67.3906 292.453 67.3594 292.766C67.3594 293.047 67.3594 293.266 67.3594 293.422C67.3594 294.016 67.3281 294.672 67.2656 295.391C67.2344 296.109 67.2656 296.797 67.3594 297.453C67.4844 298.078 67.75 298.609 68.1562 299.047C68.5625 299.453 69.25 299.656 70.2188 299.656C71.25 299.656 72.2188 299.406 73.125 298.906C74.0312 298.375 74.875 297.734 75.6562 296.984C76.4375 296.234 77.1406 295.422 77.7656 294.547C78.4219 293.672 79 292.859 79.5 292.109C80.0312 291.328 80.5 290.688 80.9062 290.188C81.3125 289.688 81.6562 289.438 81.9375 289.438C82.25 289.438 82.5781 289.5 82.9219 289.625C83.2969 289.719 83.4844 289.969 83.4844 290.375C83.4844 290.938 83.25 291.609 82.7812 292.391C82.3438 293.172 81.75 294 81 294.875C80.2812 295.75 79.4375 296.625 78.4688 297.5C77.5312 298.344 76.5781 299.109 75.6094 299.797C74.6406 300.453 73.6875 301 72.75 301.438C71.8125 301.844 70.9844 302.047 70.2656 302.047C68.8594 302.047 67.7969 301.703 67.0781 301.016C66.3594 300.328 65.8438 299.469 65.5312 298.438C65.25 297.406 65.0938 296.312 65.0625 295.156C65.0625 293.969 65.0469 292.875 65.0156 291.875ZM73.6406 279.219C73.1094 279.219 72.5469 279.484 71.9531 280.016C71.3594 280.516 70.7969 281.141 70.2656 281.891C69.7656 282.609 69.3438 283.359 69 284.141C68.6875 284.891 68.5312 285.516 68.5312 286.016C69 286.016 69.6719 285.844 70.5469 285.5C71.4531 285.125 72.3438 284.672 73.2188 284.141C74.0938 283.609 74.8594 283.047 75.5156 282.453C76.1719 281.859 76.5 281.297 76.5 280.766C76.5 280.484 76.3906 280.25 76.1719 280.062C75.9531 279.875 75.6875 279.719 75.375 279.594C75.0938 279.469 74.7969 279.375 74.4844 279.312C74.1719 279.25 73.8906 279.219 73.6406 279.219ZM87.1875 291.875C87.0312 291.906 86.7969 291.953 86.4844 292.016C86.1719 292.078 85.8438 292.094 85.5 292.062C85.1562 292.031 84.8594 291.938 84.6094 291.781C84.3281 291.625 84.1875 291.359 84.1875 290.984C84.1875 290.766 84.2344 290.609 84.3281 290.516C84.4219 290.422 84.5781 290.281 84.7969 290.094C85.4844 289.531 86.0625 288.812 86.5312 287.938C87.0312 287.031 87.4844 286.078 87.8906 285.078C88.2969 284.047 88.7188 283.031 89.1562 282.031C89.625 281 90.1562 280.078 90.75 279.266C91.3438 278.453 92.0781 277.797 92.9531 277.297C93.8281 276.797 94.9062 276.562 96.1875 276.594C96.7188 276.594 97.3125 276.719 97.9688 276.969C98.625 277.219 99.2344 277.562 99.7969 278C100.359 278.406 100.828 278.906 101.203 279.5C101.578 280.094 101.766 280.75 101.766 281.469C101.922 281.719 101.766 282.078 101.297 282.547C100.859 283.016 100.25 283.531 99.4688 284.094C98.6875 284.625 97.7969 285.188 96.7969 285.781C95.8281 286.344 94.8906 286.875 93.9844 287.375C93.0781 287.875 92.2812 288.312 91.5938 288.688C90.9062 289.062 90.4531 289.344 90.2344 289.531C90.0781 289.844 89.9531 290.203 89.8594 290.609C89.7656 291.016 89.6875 291.406 89.625 291.781C89.5938 292.125 89.5625 292.453 89.5312 292.766C89.5312 293.047 89.5312 293.266 89.5312 293.422C89.5312 294.016 89.5 294.672 89.4375 295.391C89.4062 296.109 89.4375 296.797 89.5312 297.453C89.6562 298.078 89.9219 298.609 90.3281 299.047C90.7344 299.453 91.4219 299.656 92.3906 299.656C93.4219 299.656 94.3906 299.406 95.2969 298.906C96.2031 298.375 97.0469 297.734 97.8281 296.984C98.6094 296.234 99.3125 295.422 99.9375 294.547C100.594 293.672 101.172 292.859 101.672 292.109C102.203 291.328 102.672 290.688 103.078 290.188C103.484 289.688 103.828 289.438 104.109 289.438C104.422 289.438 104.75 289.5 105.094 289.625C105.469 289.719 105.656 289.969 105.656 290.375C105.656 290.938 105.422 291.609 104.953 292.391C104.516 293.172 103.922 294 103.172 294.875C102.453 295.75 101.609 296.625 100.641 297.5C99.7031 298.344 98.75 299.109 97.7812 299.797C96.8125 300.453 95.8594 301 94.9219 301.438C93.9844 301.844 93.1562 302.047 92.4375 302.047C91.0312 302.047 89.9688 301.703 89.25 301.016C88.5312 300.328 88.0156 299.469 87.7031 298.438C87.4219 297.406 87.2656 296.312 87.2344 295.156C87.2344 293.969 87.2188 292.875 87.1875 291.875ZM95.8125 279.219C95.2812 279.219 94.7188 279.484 94.125 280.016C93.5312 280.516 92.9688 281.141 92.4375 281.891C91.9375 282.609 91.5156 283.359 91.1719 284.141C90.8594 284.891 90.7031 285.516 90.7031 286.016C91.1719 286.016 91.8438 285.844 92.7188 285.5C93.625 285.125 94.5156 284.672 95.3906 284.141C96.2656 283.609 97.0312 283.047 97.6875 282.453C98.3438 281.859 98.6719 281.297 98.6719 280.766C98.6719 280.484 98.5625 280.25 98.3438 280.062C98.125 279.875 97.8594 279.719 97.5469 279.594C97.2656 279.469 96.9688 279.375 96.6562 279.312C96.3438 279.25 96.0625 279.219 95.8125 279.219ZM109.266 281.984C108.953 282.141 108.656 282.312 108.375 282.5C108.125 282.656 107.875 282.812 107.625 282.969C107.375 283.094 107.125 283.188 106.875 283.25C106.625 283.312 106.359 283.312 106.078 283.25C105.891 283.25 105.734 283.141 105.609 282.922C105.484 282.672 105.391 282.406 105.328 282.125C105.234 281.812 105.172 281.516 105.141 281.234C105.109 280.922 105.109 280.688 105.141 280.531L109.641 277.953L109.922 265.953C109.984 265.547 110.234 265.391 110.672 265.484C111.109 265.547 111.562 265.641 112.031 265.766C112.094 265.766 112.188 265.797 112.312 265.859C112.469 265.891 112.578 265.922 112.641 265.953C112.578 266.797 112.5 267.719 112.406 268.719C112.344 269.688 112.281 270.672 112.219 271.672C112.156 272.641 112.109 273.594 112.078 274.531C112.078 275.469 112.125 276.312 112.219 277.062L119.25 275.094C119.375 275.062 119.469 275.156 119.531 275.375C119.625 275.562 119.703 275.797 119.766 276.078C119.859 276.359 119.922 276.641 119.953 276.922C119.984 277.203 120 277.344 120 277.344L112.031 280.719C112.031 281 112.047 281.672 112.078 282.734C112.141 283.797 112.203 285.062 112.266 286.531C112.328 287.969 112.391 289.531 112.453 291.219C112.516 292.875 112.578 294.422 112.641 295.859C112.703 297.297 112.75 298.562 112.781 299.656C112.812 300.719 112.828 301.391 112.828 301.672C112.766 302.609 112.484 303.078 111.984 303.078C111.516 303.078 111 302.844 110.438 302.375L109.266 281.984ZM121.641 301.062C121.641 299.031 121.594 296.891 121.5 294.641C121.438 292.391 121.359 290.125 121.266 287.844C121.203 285.531 121.188 283.266 121.219 281.047C121.25 278.828 121.391 276.75 121.641 274.812C121.703 274.781 121.844 274.766 122.062 274.766C122.312 274.734 122.484 274.719 122.578 274.719C123.016 274.719 123.359 274.797 123.609 274.953C123.891 275.078 124.031 275.375 124.031 275.844C124.031 277.688 124.016 279.703 123.984 281.891C123.984 284.047 123.969 286.25 123.938 288.5C123.938 290.719 123.938 292.922 123.938 295.109C123.938 297.297 123.969 299.281 124.031 301.062C124.062 301.594 123.953 301.938 123.703 302.094C123.484 302.281 123.203 302.375 122.859 302.375C122.484 302.375 122.172 302.281 121.922 302.094C121.672 301.938 121.578 301.594 121.641 301.062ZM120.609 267.5C120.609 267.125 120.734 266.875 120.984 266.75C121.234 266.625 121.516 266.562 121.828 266.562C122.453 266.562 122.844 266.766 123 267.172C123.156 267.578 123.234 268.047 123.234 268.578C123.047 268.922 122.812 269.172 122.531 269.328C122.25 269.453 121.953 269.484 121.641 269.422C121.359 269.328 121.109 269.125 120.891 268.812C120.703 268.5 120.609 268.062 120.609 267.5ZM129.234 301.391C128.891 297.172 128.578 292.953 128.297 288.734C128.047 284.484 127.766 280.078 127.453 275.516C127.453 274.766 127.859 274.391 128.672 274.391H129.047C129.141 274.391 129.25 274.516 129.375 274.766C129.5 275.016 129.625 275.484 129.75 276.172C129.906 276.828 130.062 277.844 130.219 279.219C130.406 280.562 130.625 282.328 130.875 284.516C131.125 286.703 131.406 289.438 131.719 292.719C132.375 290.594 132.891 288.531 133.266 286.531C133.641 284.531 134.125 282.719 134.719 281.094C135.312 279.438 136.141 277.984 137.203 276.734C138.297 275.484 139.859 274.562 141.891 273.969C143.016 274.156 143.922 274.844 144.609 276.031C145.297 277.188 145.844 278.625 146.25 280.344C146.656 282.062 146.938 283.938 147.094 285.969C147.25 287.969 147.344 289.891 147.375 291.734C147.406 293.578 147.422 295.234 147.422 296.703C147.422 298.141 147.453 299.172 147.516 299.797C147.422 300.047 147.281 300.266 147.094 300.453C146.906 300.641 146.688 300.781 146.438 300.875C146.219 300.938 146 300.953 145.781 300.922C145.562 300.859 145.359 300.688 145.172 300.406C145.172 300.062 145.141 299.359 145.078 298.297C145.016 297.234 144.938 296 144.844 294.594C144.75 293.156 144.641 291.641 144.516 290.047C144.422 288.422 144.328 286.906 144.234 285.5C144.172 284.062 144.109 282.812 144.047 281.75C143.984 280.688 143.938 279.984 143.906 279.641C143.25 278.484 142.594 277.828 141.938 277.672C141.312 277.516 140.672 277.719 140.016 278.281C139.391 278.844 138.781 279.703 138.188 280.859C137.594 282.016 137.031 283.328 136.5 284.797C135.969 286.234 135.469 287.75 135 289.344C134.531 290.938 134.125 292.484 133.781 293.984C133.438 295.453 133.141 296.797 132.891 298.016C132.672 299.203 132.531 300.125 132.469 300.781C132.375 301 132.172 301.219 131.859 301.438C131.578 301.625 131.266 301.766 130.922 301.859C130.609 301.953 130.281 301.984 129.938 301.953C129.625 301.891 129.391 301.703 129.234 301.391ZM153.703 320.328C156.453 320.172 158.609 319.453 160.172 318.172C161.766 316.891 162.953 315.234 163.734 313.203C164.516 311.172 164.984 308.844 165.141 306.219C165.297 303.625 165.312 300.938 165.188 298.156C165.062 295.375 164.875 292.594 164.625 289.812C164.406 287 164.312 284.391 164.344 281.984C163 285.922 161.734 289.109 160.547 291.547C159.359 293.953 158.25 295.781 157.219 297.031C156.219 298.25 155.297 299 154.453 299.281C153.641 299.531 152.922 299.484 152.297 299.141C151.672 298.766 151.156 298.188 150.75 297.406C150.375 296.594 150.109 295.766 149.953 294.922C150.016 293.484 150.297 291.906 150.797 290.188C151.328 288.438 152 286.734 152.812 285.078C153.656 283.391 154.625 281.828 155.719 280.391C156.812 278.922 157.969 277.781 159.188 276.969C160.406 276.125 161.672 275.688 162.984 275.656C164.297 275.594 165.562 276.094 166.781 277.156C166.812 277.188 166.859 277.609 166.922 278.422C167.016 279.203 167.109 280.25 167.203 281.562C167.328 282.844 167.453 284.297 167.578 285.922C167.734 287.516 167.875 289.141 168 290.797C168.125 292.422 168.234 293.984 168.328 295.484C168.422 296.984 168.516 298.281 168.609 299.375C168.734 301.156 168.656 303.047 168.375 305.047C168.125 307.047 167.719 308.984 167.156 310.859C166.594 312.766 165.875 314.547 165 316.203C164.156 317.859 163.172 319.219 162.047 320.281C160.953 321.344 159.719 322.016 158.344 322.297C157 322.609 155.562 322.375 154.031 321.594C153.938 321.594 153.797 321.578 153.609 321.547C153.422 321.547 153.266 321.5 153.141 321.406C153.047 321.312 153.031 321.188 153.094 321.031C153.156 320.875 153.359 320.641 153.703 320.328ZM152.391 294.594C152.703 295.562 153.109 296.062 153.609 296.094C154.141 296.094 154.703 295.766 155.297 295.109C155.891 294.422 156.531 293.469 157.219 292.25C157.938 291.031 158.641 289.703 159.328 288.266C160.016 286.828 160.688 285.359 161.344 283.859C162.031 282.328 162.672 280.906 163.266 279.594C163.266 279.25 163.188 278.938 163.031 278.656C162.875 278.344 162.531 278.25 162 278.375C161.125 278.562 160.266 278.984 159.422 279.641C158.609 280.297 157.844 281.109 157.125 282.078C156.438 283.016 155.797 284.062 155.203 285.219C154.641 286.344 154.141 287.484 153.703 288.641C153.297 289.766 152.969 290.844 152.719 291.875C152.5 292.906 152.391 293.812 152.391 294.594ZM175.172 301.297C175.172 301.328 175.5 301.141 176.156 300.734C176.844 300.328 177.641 299.797 178.547 299.141C179.484 298.453 180.438 297.719 181.406 296.938C182.375 296.125 183.172 295.359 183.797 294.641C184.422 293.922 184.75 293.312 184.781 292.812C184.844 292.281 184.422 291.938 183.516 291.781C182.391 291.625 181.438 291.641 180.656 291.828C179.906 292.016 179.219 292.234 178.594 292.484C177.969 292.734 177.375 292.969 176.812 293.188C176.281 293.406 175.688 293.484 175.031 293.422C173.656 293.422 172.703 293 172.172 292.156C171.672 291.281 171.422 290.109 171.422 288.641C171.422 287.172 171.75 285.781 172.406 284.469C173.062 283.125 173.906 281.969 174.938 281C175.969 280.031 177.156 279.266 178.5 278.703C179.844 278.109 181.219 277.812 182.625 277.812C183.188 277.812 183.672 277.859 184.078 277.953C184.484 278.047 184.688 278.406 184.688 279.031C184.688 279.469 184.5 279.891 184.125 280.297C183.75 280.672 183.328 280.859 182.859 280.859C182.828 280.859 182.75 280.844 182.625 280.812C182.5 280.75 182.375 280.672 182.25 280.578C182.125 280.484 182 280.422 181.875 280.391C181.75 280.328 181.672 280.297 181.641 280.297C180.641 280.016 179.672 280.156 178.734 280.719C177.797 281.281 176.953 282.047 176.203 283.016C175.484 283.953 174.906 284.984 174.469 286.109C174.031 287.203 173.812 288.188 173.812 289.062C173.812 289.406 173.875 289.688 174 289.906C174.156 290.094 174.344 290.234 174.562 290.328C174.812 290.422 175.078 290.484 175.359 290.516C175.672 290.516 175.984 290.516 176.297 290.516C176.922 290.516 177.547 290.422 178.172 290.234C178.828 290.047 179.453 289.828 180.047 289.578C180.672 289.328 181.297 289.109 181.922 288.922C182.578 288.734 183.25 288.641 183.938 288.641C184.25 288.641 184.594 288.734 184.969 288.922C185.344 289.078 185.688 289.328 186 289.672C186.312 289.984 186.578 290.359 186.797 290.797C187.016 291.203 187.141 291.656 187.172 292.156C187.359 292.594 187.297 293.172 186.984 293.891C186.703 294.609 186.266 295.375 185.672 296.188C185.078 297 184.359 297.828 183.516 298.672C182.672 299.484 181.828 300.234 180.984 300.922C180.141 301.578 179.312 302.109 178.5 302.516C177.688 302.953 177 303.156 176.438 303.125C175.812 303.125 175.438 302.938 175.312 302.562C175.219 302.188 175.172 301.766 175.172 301.297ZM214.359 284.703C214.234 284.703 214.047 284.766 213.797 284.891C213.547 284.984 213.281 285.109 213 285.266C212.75 285.391 212.5 285.516 212.25 285.641C212 285.766 211.781 285.828 211.594 285.828C211.281 285.828 211 285.766 210.75 285.641C210.531 285.516 210.422 285.266 210.422 284.891C210.422 284.578 210.562 284.281 210.844 284C211.156 283.719 211.516 283.438 211.922 283.156C212.328 282.875 212.734 282.609 213.141 282.359C213.547 282.109 213.844 281.859 214.031 281.609C213.969 281.109 213.922 280.172 213.891 278.797C213.859 277.422 213.859 275.859 213.891 274.109C213.953 272.328 214.062 270.5 214.219 268.625C214.406 266.75 214.672 265.078 215.016 263.609C215.391 262.109 215.875 260.938 216.469 260.094C217.062 259.25 217.828 258.984 218.766 259.297C219.422 259.297 220.016 259.5 220.547 259.906C221.078 260.281 221.531 260.766 221.906 261.359C222.281 261.922 222.562 262.547 222.75 263.234C222.969 263.922 223.078 264.547 223.078 265.109C223.078 265.422 223 265.766 222.844 266.141C222.719 266.484 222.469 266.656 222.094 266.656H221.953C221.922 266.656 221.891 266.641 221.859 266.609C221.109 264.703 220.469 263.5 219.938 263C219.438 262.469 219 262.453 218.625 262.953C218.281 263.453 217.984 264.344 217.734 265.625C217.516 266.906 217.328 268.391 217.172 270.078C217.016 271.734 216.875 273.5 216.75 275.375C216.625 277.219 216.5 278.938 216.375 280.531C217 280.375 217.516 280.219 217.922 280.062C218.359 279.906 218.75 279.75 219.094 279.594C219.438 279.406 219.75 279.234 220.031 279.078C220.312 278.891 220.625 278.734 220.969 278.609C221.625 278.297 222.344 278 223.125 277.719C223.938 277.406 224.719 277.25 225.469 277.25C225.469 278.156 225.297 278.906 224.953 279.5C224.641 280.094 224.219 280.578 223.688 280.953C223.188 281.328 222.609 281.609 221.953 281.797C221.297 281.953 220.625 282.094 219.938 282.219C219.281 282.344 218.656 282.469 218.062 282.594C217.469 282.719 216.953 282.875 216.516 283.062C216.609 285.094 216.734 286.875 216.891 288.406C217.078 289.938 217.234 291.297 217.359 292.484C217.516 293.672 217.625 294.766 217.688 295.766C217.781 296.734 217.781 297.703 217.688 298.672C217.688 298.891 217.688 299.203 217.688 299.609C217.719 299.984 217.703 300.359 217.641 300.734C217.609 301.109 217.5 301.438 217.312 301.719C217.125 301.969 216.828 302.094 216.422 302.094C216.047 302.094 215.766 302.016 215.578 301.859C215.391 301.672 215.266 301.312 215.203 300.781C215.016 298.25 214.859 296.109 214.734 294.359C214.641 292.578 214.562 291.094 214.5 289.906C214.438 288.688 214.406 287.734 214.406 287.047V284.891C214.406 284.766 214.391 284.703 214.359 284.703ZM227.25 279.406V279.031C227.25 278.719 227.359 278.5 227.578 278.375C227.828 278.25 228.109 278.188 228.422 278.188C228.672 278.188 228.906 278.219 229.125 278.281C229.344 278.312 229.516 278.484 229.641 278.797C229.734 279.266 229.828 279.922 229.922 280.766C230.016 281.578 230.125 282.484 230.25 283.484C230.375 284.484 230.5 285.547 230.625 286.672C230.781 287.766 230.922 288.812 231.047 289.812C231.203 290.781 231.359 291.656 231.516 292.438C231.672 293.219 231.844 293.812 232.031 294.219C231.938 291.219 232.031 288.625 232.312 286.438C232.594 284.219 233.125 282.422 233.906 281.047C234.719 279.641 235.812 278.672 237.188 278.141C238.594 277.578 240.344 277.453 242.438 277.766C243.406 277.766 243.891 278.281 243.891 279.312C243.891 279.719 243.625 280 243.094 280.156C242.562 280.281 241.969 280.375 241.312 280.438C240.656 280.469 240.016 280.516 239.391 280.578C238.766 280.641 238.312 280.797 238.031 281.047C236.906 281.672 236.109 282.641 235.641 283.953C235.203 285.266 234.891 286.812 234.703 288.594C234.516 290.375 234.375 292.328 234.281 294.453C234.219 296.547 234.016 298.703 233.672 300.922C233.672 301.234 233.547 301.469 233.297 301.625C233.047 301.781 232.734 301.859 232.359 301.859C232.016 301.859 231.672 301.781 231.328 301.625C231.016 301.469 230.766 301.234 230.578 300.922L227.25 279.406ZM246.234 295.578C246.016 294.141 245.906 292.75 245.906 291.406C245.906 290.031 245.984 288.641 246.141 287.234C246.328 285.828 246.578 284.375 246.891 282.875C247.234 281.344 247.625 279.703 248.062 277.953C248.062 277.609 248.156 277.297 248.344 277.016C248.531 276.703 248.781 276.453 249.094 276.266C249.406 276.047 249.734 275.875 250.078 275.75C250.422 275.625 250.75 275.562 251.062 275.562C251.75 275.562 252.375 275.781 252.938 276.219C253.5 276.656 254 277.188 254.438 277.812C254.906 278.438 255.297 279.109 255.609 279.828C255.953 280.516 256.234 281.109 256.453 281.609C256.703 282.703 256.875 283.953 256.969 285.359C257.094 286.734 257.109 288.141 257.016 289.578C256.922 291.016 256.703 292.438 256.359 293.844C256.016 295.219 255.531 296.484 254.906 297.641C254.281 298.797 253.469 299.766 252.469 300.547C251.5 301.328 250.344 301.812 249 302C248.281 302 247.734 301.766 247.359 301.297C246.984 300.797 246.703 300.203 246.516 299.516C246.359 298.797 246.266 298.078 246.234 297.359C246.234 296.641 246.234 296.047 246.234 295.578ZM248.625 295.438C248.625 295.75 248.625 296.047 248.625 296.328C248.656 296.609 248.688 296.891 248.719 297.172C248.781 297.422 248.844 297.703 248.906 298.016C249 298.297 249.109 298.625 249.234 299H249.516C250.266 299 250.906 298.75 251.438 298.25C251.969 297.75 252.422 297.109 252.797 296.328C253.172 295.516 253.484 294.625 253.734 293.656C253.984 292.656 254.172 291.688 254.297 290.75C254.453 289.781 254.547 288.891 254.578 288.078C254.641 287.234 254.672 286.562 254.672 286.062V285.125C254.672 284.719 254.656 284.266 254.625 283.766C254.594 283.234 254.531 282.703 254.438 282.172C254.375 281.609 254.266 281.109 254.109 280.672C253.953 280.203 253.75 279.828 253.5 279.547C253.25 279.266 252.922 279.125 252.516 279.125C251.828 278.906 251.234 278.953 250.734 279.266C250.266 279.578 249.875 280.109 249.562 280.859C249.281 281.578 249.062 282.469 248.906 283.531C248.75 284.594 248.656 285.766 248.625 287.047C248.594 288.328 248.578 289.688 248.578 291.125C248.609 292.562 248.625 294 248.625 295.438ZM260.953 301.859C260.859 300.984 260.781 299.797 260.719 298.297C260.656 296.797 260.594 295.172 260.531 293.422C260.469 291.641 260.391 289.797 260.297 287.891C260.234 285.984 260.156 284.172 260.062 282.453C259.969 280.734 259.844 279.172 259.688 277.766C259.562 276.359 259.422 275.234 259.266 274.391C259.266 273.766 259.406 273.406 259.688 273.312C259.969 273.188 260.328 273.125 260.766 273.125C260.828 273.125 260.969 273.125 261.188 273.125C261.406 273.125 261.562 273.141 261.656 273.172C261.938 274.109 262.109 275.328 262.172 276.828C262.266 278.297 262.328 279.906 262.359 281.656C262.422 283.406 262.469 285.219 262.5 287.094C262.562 288.969 262.672 290.75 262.828 292.438C263.266 289.969 263.625 287.922 263.906 286.297C264.219 284.672 264.5 283.375 264.75 282.406C265.031 281.406 265.281 280.672 265.5 280.203C265.75 279.703 266.016 279.375 266.297 279.219C266.609 279.062 266.938 279 267.281 279.031C267.656 279.031 268.094 279.031 268.594 279.031C269.156 279.031 269.609 279.25 269.953 279.688C270.328 280.125 270.609 280.688 270.797 281.375C271.016 282.062 271.172 282.812 271.266 283.625C271.391 284.438 271.5 285.234 271.594 286.016C271.688 286.766 271.781 287.453 271.875 288.078C272 288.703 272.188 289.141 272.438 289.391C273.219 287.078 273.891 285.188 274.453 283.719C275.016 282.25 275.5 281.094 275.906 280.25C276.312 279.375 276.672 278.75 276.984 278.375C277.297 278 277.578 277.781 277.828 277.719C278.078 277.625 278.297 277.609 278.484 277.672C278.703 277.734 278.922 277.766 279.141 277.766C279.984 277.766 280.625 278.203 281.062 279.078C281.562 280.484 281.906 281.828 282.094 283.109C282.281 284.359 282.391 285.578 282.422 286.766C282.453 287.922 282.453 289.031 282.422 290.094C282.422 291.156 282.453 292.188 282.516 293.188C282.609 294.188 282.781 295.172 283.031 296.141C283.312 297.109 283.781 298.062 284.438 299C284.188 299.5 283.938 299.844 283.688 300.031C283.438 300.188 283.094 300.266 282.656 300.266C282.281 300.266 281.953 300.141 281.672 299.891C281.391 299.609 281.156 299.281 280.969 298.906C280.781 298.5 280.625 298.094 280.5 297.688C280.406 297.281 280.312 296.922 280.219 296.609C280.094 292.141 279.891 288.719 279.609 286.344C279.359 283.938 278.969 282.672 278.438 282.547C277.906 282.422 277.219 283.469 276.375 285.688C275.562 287.875 274.547 291.312 273.328 296C273.234 296.156 273.094 296.25 272.906 296.281C272.719 296.312 272.516 296.328 272.297 296.328C272.109 296.328 271.906 296.328 271.688 296.328C271.5 296.297 271.312 296.297 271.125 296.328C270.344 291.734 269.688 288.438 269.156 286.438C268.656 284.406 268.141 283.625 267.609 284.094C267.078 284.562 266.484 286.25 265.828 289.156C265.172 292.031 264.328 296.078 263.297 301.297L260.953 301.859ZM310.359 301.859C310.266 300.984 310.188 299.797 310.125 298.297C310.062 296.797 310 295.172 309.938 293.422C309.875 291.641 309.797 289.797 309.703 287.891C309.641 285.984 309.562 284.172 309.469 282.453C309.375 280.734 309.25 279.172 309.094 277.766C308.969 276.359 308.828 275.234 308.672 274.391C308.672 273.766 308.812 273.406 309.094 273.312C309.375 273.188 309.734 273.125 310.172 273.125C310.234 273.125 310.375 273.125 310.594 273.125C310.812 273.125 310.969 273.141 311.062 273.172C311.344 274.109 311.516 275.328 311.578 276.828C311.672 278.297 311.734 279.906 311.766 281.656C311.828 283.406 311.875 285.219 311.906 287.094C311.969 288.969 312.078 290.75 312.234 292.438C312.672 289.969 313.031 287.922 313.312 286.297C313.625 284.672 313.906 283.375 314.156 282.406C314.438 281.406 314.688 280.672 314.906 280.203C315.156 279.703 315.422 279.375 315.703 279.219C316.016 279.062 316.344 279 316.688 279.031C317.062 279.031 317.5 279.031 318 279.031C318.562 279.031 319.016 279.25 319.359 279.688C319.734 280.125 320.016 280.688 320.203 281.375C320.422 282.062 320.578 282.812 320.672 283.625C320.797 284.438 320.906 285.234 321 286.016C321.094 286.766 321.188 287.453 321.281 288.078C321.406 288.703 321.594 289.141 321.844 289.391C322.625 287.078 323.297 285.188 323.859 283.719C324.422 282.25 324.906 281.094 325.312 280.25C325.719 279.375 326.078 278.75 326.391 278.375C326.703 278 326.984 277.781 327.234 277.719C327.484 277.625 327.703 277.609 327.891 277.672C328.109 277.734 328.328 277.766 328.547 277.766C329.391 277.766 330.031 278.203 330.469 279.078C330.969 280.484 331.312 281.828 331.5 283.109C331.688 284.359 331.797 285.578 331.828 286.766C331.859 287.922 331.859 289.031 331.828 290.094C331.828 291.156 331.859 292.188 331.922 293.188C332.016 294.188 332.188 295.172 332.438 296.141C332.719 297.109 333.188 298.062 333.844 299C333.594 299.5 333.344 299.844 333.094 300.031C332.844 300.188 332.5 300.266 332.062 300.266C331.688 300.266 331.359 300.141 331.078 299.891C330.797 299.609 330.562 299.281 330.375 298.906C330.188 298.5 330.031 298.094 329.906 297.688C329.812 297.281 329.719 296.922 329.625 296.609C329.5 292.141 329.297 288.719 329.016 286.344C328.766 283.938 328.375 282.672 327.844 282.547C327.312 282.422 326.625 283.469 325.781 285.688C324.969 287.875 323.953 291.312 322.734 296C322.641 296.156 322.5 296.25 322.312 296.281C322.125 296.312 321.922 296.328 321.703 296.328C321.516 296.328 321.312 296.328 321.094 296.328C320.906 296.297 320.719 296.297 320.531 296.328C319.75 291.734 319.094 288.438 318.562 286.438C318.062 284.406 317.547 283.625 317.016 284.094C316.484 284.562 315.891 286.25 315.234 289.156C314.578 292.031 313.734 296.078 312.703 301.297L310.359 301.859ZM337.641 291.875C337.484 291.906 337.25 291.953 336.938 292.016C336.625 292.078 336.297 292.094 335.953 292.062C335.609 292.031 335.312 291.938 335.062 291.781C334.781 291.625 334.641 291.359 334.641 290.984C334.641 290.766 334.688 290.609 334.781 290.516C334.875 290.422 335.031 290.281 335.25 290.094C335.938 289.531 336.516 288.812 336.984 287.938C337.484 287.031 337.938 286.078 338.344 285.078C338.75 284.047 339.172 283.031 339.609 282.031C340.078 281 340.609 280.078 341.203 279.266C341.797 278.453 342.531 277.797 343.406 277.297C344.281 276.797 345.359 276.562 346.641 276.594C347.172 276.594 347.766 276.719 348.422 276.969C349.078 277.219 349.688 277.562 350.25 278C350.812 278.406 351.281 278.906 351.656 279.5C352.031 280.094 352.219 280.75 352.219 281.469C352.375 281.719 352.219 282.078 351.75 282.547C351.312 283.016 350.703 283.531 349.922 284.094C349.141 284.625 348.25 285.188 347.25 285.781C346.281 286.344 345.344 286.875 344.438 287.375C343.531 287.875 342.734 288.312 342.047 288.688C341.359 289.062 340.906 289.344 340.688 289.531C340.531 289.844 340.406 290.203 340.312 290.609C340.219 291.016 340.141 291.406 340.078 291.781C340.047 292.125 340.016 292.453 339.984 292.766C339.984 293.047 339.984 293.266 339.984 293.422C339.984 294.016 339.953 294.672 339.891 295.391C339.859 296.109 339.891 296.797 339.984 297.453C340.109 298.078 340.375 298.609 340.781 299.047C341.188 299.453 341.875 299.656 342.844 299.656C343.875 299.656 344.844 299.406 345.75 298.906C346.656 298.375 347.5 297.734 348.281 296.984C349.062 296.234 349.766 295.422 350.391 294.547C351.047 293.672 351.625 292.859 352.125 292.109C352.656 291.328 353.125 290.688 353.531 290.188C353.938 289.688 354.281 289.438 354.562 289.438C354.875 289.438 355.203 289.5 355.547 289.625C355.922 289.719 356.109 289.969 356.109 290.375C356.109 290.938 355.875 291.609 355.406 292.391C354.969 293.172 354.375 294 353.625 294.875C352.906 295.75 352.062 296.625 351.094 297.5C350.156 298.344 349.203 299.109 348.234 299.797C347.266 300.453 346.312 301 345.375 301.438C344.438 301.844 343.609 302.047 342.891 302.047C341.484 302.047 340.422 301.703 339.703 301.016C338.984 300.328 338.469 299.469 338.156 298.438C337.875 297.406 337.719 296.312 337.688 295.156C337.688 293.969 337.672 292.875 337.641 291.875ZM346.266 279.219C345.734 279.219 345.172 279.484 344.578 280.016C343.984 280.516 343.422 281.141 342.891 281.891C342.391 282.609 341.969 283.359 341.625 284.141C341.312 284.891 341.156 285.516 341.156 286.016C341.625 286.016 342.297 285.844 343.172 285.5C344.078 285.125 344.969 284.672 345.844 284.141C346.719 283.609 347.484 283.047 348.141 282.453C348.797 281.859 349.125 281.297 349.125 280.766C349.125 280.484 349.016 280.25 348.797 280.062C348.578 279.875 348.312 279.719 348 279.594C347.719 279.469 347.422 279.375 347.109 279.312C346.797 279.25 346.516 279.219 346.266 279.219ZM358.031 279.078C358.031 276.203 358.094 273.359 358.219 270.547C358.344 267.703 358.5 264.781 358.688 261.781C358.781 261.531 358.891 261.375 359.016 261.312C359.141 261.219 359.312 261.172 359.531 261.172C359.844 261.172 360.062 261.266 360.188 261.453C360.312 261.609 360.391 261.797 360.422 262.016C360.484 262.234 360.5 262.484 360.469 262.766C360.469 263.016 360.469 263.234 360.469 263.422V277.766C360.469 278.328 360.516 278.922 360.609 279.547L360.891 281.422C361.016 282.047 361.094 282.641 361.125 283.203C361.188 283.734 361.156 284.188 361.031 284.562C360.969 284.906 360.781 285.203 360.469 285.453C360.188 285.703 359.875 285.828 359.531 285.828C358.969 285.828 358.578 285.547 358.359 284.984C358.141 284.422 358 283.766 357.938 283.016C357.906 282.266 357.906 281.516 357.938 280.766C358 280.016 358.031 279.453 358.031 279.078ZM360.984 300.875V300.125C360.984 299.969 361 299.812 361.031 299.656C361.062 299.469 361.125 299.312 361.219 299.188C361.312 299.062 361.453 299 361.641 299C362.266 299 362.625 299.156 362.719 299.469C362.844 299.75 362.906 300.094 362.906 300.5C362.906 300.938 362.844 301.297 362.719 301.578C362.625 301.859 362.266 302 361.641 302C361.453 302 361.312 301.938 361.219 301.812C361.125 301.688 361.062 301.547 361.031 301.391C361 301.203 360.984 301.031 360.984 300.875ZM399.562 272.609C398.562 272.609 397.547 272.703 396.516 272.891C395.516 273.078 394.516 273.297 393.516 273.547C392.516 273.766 391.516 273.969 390.516 274.156C389.516 274.344 388.5 274.438 387.469 274.438C387.156 274.438 386.828 274.406 386.484 274.344C386.172 274.25 386.016 273.969 386.016 273.5C386.016 273.188 386.141 272.875 386.391 272.562C386.672 272.219 386.969 272.031 387.281 272L399.844 270.172C399.875 270.047 399.922 269.859 399.984 269.609C400.047 269.328 400.125 269.062 400.219 268.812C400.344 268.531 400.5 268.297 400.688 268.109C400.875 267.891 401.094 267.781 401.344 267.781C401.719 267.781 402.016 267.875 402.234 268.062C402.453 268.25 402.641 268.469 402.797 268.719C402.953 268.938 403.094 269.141 403.219 269.328C403.344 269.516 403.5 269.609 403.688 269.609H404.062C404.375 269.578 404.875 269.531 405.562 269.469C406.25 269.375 407.031 269.281 407.906 269.188C408.812 269.094 409.766 269 410.766 268.906C411.766 268.781 412.719 268.688 413.625 268.625C414.531 268.531 415.328 268.453 416.016 268.391C416.703 268.297 417.203 268.219 417.516 268.156C417.609 268.156 417.828 268.156 418.172 268.156C418.547 268.125 418.812 268.109 418.969 268.109C418.969 268.703 418.641 269.203 417.984 269.609C417.359 269.984 416.547 270.312 415.547 270.594C414.578 270.844 413.484 271.047 412.266 271.203C411.078 271.328 409.906 271.438 408.75 271.531C407.625 271.625 406.578 271.703 405.609 271.766C404.672 271.828 403.953 271.906 403.453 272C403.328 274.219 403.375 276.531 403.594 278.938C403.844 281.344 404.141 283.766 404.484 286.203C404.859 288.641 405.203 291.062 405.516 293.469C405.828 295.875 405.984 298.172 405.984 300.359C406.109 300.797 406.156 301.141 406.125 301.391C406.125 301.641 406.047 301.812 405.891 301.906C405.734 302 405.5 302.047 405.188 302.047C404.875 302.047 404.5 302.031 404.062 302C403.75 300.875 403.469 299.562 403.219 298.062C403 296.531 402.797 294.906 402.609 293.188C402.422 291.438 402.234 289.641 402.047 287.797C401.891 285.953 401.734 284.125 401.578 282.312C401.422 280.5 401.25 278.766 401.062 277.109C400.875 275.453 400.656 273.953 400.406 272.609H399.562ZM429.328 285.781C428.984 286.031 428.375 286.406 427.5 286.906C426.656 287.375 425.75 287.891 424.781 288.453C423.812 289.016 422.891 289.562 422.016 290.094C421.141 290.594 420.531 290.969 420.188 291.219C419.5 291.75 419.031 292.359 418.781 293.047C418.531 293.734 418.406 294.484 418.406 295.297C418.406 296.078 418.484 296.906 418.641 297.781C418.797 298.625 418.906 299.484 418.969 300.359C418.969 300.797 418.828 301.203 418.547 301.578C418.266 301.953 417.906 302.141 417.469 302.141C417.281 302.141 417.078 302.094 416.859 302C416.641 301.875 416.531 301.703 416.531 301.484L415.453 271.438C415.453 271.25 415.516 271 415.641 270.688C415.797 270.375 415.922 270.203 416.016 270.172C416.109 270.172 416.234 270.188 416.391 270.219C416.578 270.25 416.766 270.312 416.953 270.406C417.141 270.469 417.312 270.547 417.469 270.641C417.656 270.703 417.781 270.766 417.844 270.828C417.969 272.078 418.047 273.516 418.078 275.141C418.109 276.766 418.141 278.406 418.172 280.062C418.234 281.719 418.312 283.328 418.406 284.891C418.531 286.422 418.734 287.719 419.016 288.781C420.359 288.219 421.625 287.688 422.812 287.188C424 286.688 425.031 286.109 425.906 285.453C426.781 284.797 427.469 284 427.969 283.062C428.469 282.094 428.703 280.891 428.672 279.453C428.672 278.672 428.656 277.984 428.625 277.391C428.594 276.797 428.531 276.219 428.438 275.656C428.344 275.062 428.203 274.438 428.016 273.781C427.859 273.094 427.656 272.312 427.406 271.438C427.344 270.875 427.438 270.516 427.688 270.359C427.938 270.203 428.234 270.125 428.578 270.125C428.984 270.125 429.297 270.219 429.516 270.406C429.734 270.594 429.906 270.844 430.031 271.156C430.188 271.469 430.281 271.812 430.312 272.188C430.344 272.531 430.375 272.859 430.406 273.172C430.469 273.672 430.547 274.422 430.641 275.422C430.734 276.422 430.828 277.562 430.922 278.844C431.047 280.094 431.172 281.422 431.297 282.828C431.453 284.234 431.594 285.562 431.719 286.812C431.844 288.062 431.938 289.188 432 290.188C432.094 291.188 432.172 291.938 432.234 292.438C432.328 293.625 432.453 294.797 432.609 295.953C432.766 297.109 432.844 298.297 432.844 299.516V300.266C432.844 300.516 432.812 300.766 432.75 301.016C432.719 301.234 432.609 301.438 432.422 301.625C432.266 301.781 432 301.906 431.625 302C431.062 301.594 430.734 301.141 430.641 300.641C430.547 300.141 430.469 299.594 430.406 299C430.375 298.656 430.344 298.141 430.312 297.453C430.281 296.734 430.219 295.953 430.125 295.109C430.062 294.234 429.984 293.328 429.891 292.391C429.828 291.422 429.75 290.516 429.656 289.672C429.594 288.797 429.531 288.016 429.469 287.328C429.406 286.641 429.359 286.125 429.328 285.781ZM437.812 300.781C437.812 298.25 437.828 295.766 437.859 293.328C437.891 290.891 437.875 288.469 437.812 286.062C437.75 283.656 437.625 281.25 437.438 278.844C437.25 276.406 436.969 273.938 436.594 271.438C436.594 271.375 436.547 271.25 436.453 271.062C436.391 270.875 436.328 270.688 436.266 270.5C436.203 270.281 436.141 270.094 436.078 269.938C436.016 269.781 435.984 269.672 435.984 269.609C435.984 269.453 436.031 269.266 436.125 269.047C436.25 268.828 436.391 268.625 436.547 268.438C436.734 268.219 436.938 268.047 437.156 267.922C437.375 267.797 437.594 267.75 437.812 267.781C438.188 267.875 438.484 268.109 438.703 268.484C438.953 268.859 439.141 269.281 439.266 269.75C439.391 270.188 439.469 270.625 439.5 271.062C439.562 271.5 439.594 271.812 439.594 272C440.531 271.5 441.578 270.969 442.734 270.406C443.922 269.812 445.125 269.281 446.344 268.812C447.594 268.312 448.828 267.906 450.047 267.594C451.297 267.25 452.469 267.078 453.562 267.078C453.562 267.359 453.5 267.609 453.375 267.828C453.281 268.047 453.078 268.234 452.766 268.391L439.594 275V276.828C439.625 277.172 439.656 277.766 439.688 278.609C439.75 279.453 439.812 280.359 439.875 281.328C439.938 282.266 439.984 283.172 440.016 284.047C440.078 284.891 440.125 285.469 440.156 285.781L449.812 280.391L450.047 280.109C450.203 279.922 450.406 279.75 450.656 279.594C450.906 279.438 451.156 279.359 451.406 279.359C451.688 279.328 451.953 279.484 452.203 279.828C452.203 280.391 451.922 280.938 451.359 281.469C450.797 282 450.094 282.531 449.25 283.062C448.406 283.594 447.484 284.109 446.484 284.609C445.516 285.109 444.609 285.594 443.766 286.062C442.922 286.531 442.219 287 441.656 287.469C441.094 287.938 440.812 288.375 440.812 288.781V297.828C441.219 297.984 441.781 297.922 442.5 297.641C443.25 297.328 444.078 296.906 444.984 296.375C445.891 295.844 446.828 295.234 447.797 294.547C448.766 293.828 449.703 293.156 450.609 292.531C451.547 291.906 452.406 291.344 453.188 290.844C454 290.344 454.672 290.047 455.203 289.953C455.516 289.953 455.797 290.016 456.047 290.141C456.297 290.266 456.422 290.516 456.422 290.891C456.422 291.266 456.203 291.562 455.766 291.781C454.672 292.438 453.406 293.266 451.969 294.266C450.562 295.234 449.125 296.219 447.656 297.219C446.188 298.188 444.734 299.078 443.297 299.891C441.891 300.672 440.672 301.188 439.641 301.438C439.234 301.438 438.906 301.406 438.656 301.344C438.406 301.281 438.125 301.094 437.812 300.781ZM480.656 273.172C480.406 272.703 480.234 272.297 480.141 271.953C480.047 271.609 480 271.203 480 270.734C480 270.578 480 270.422 480 270.266C480.031 270.109 480.078 269.969 480.141 269.844C480.234 269.719 480.359 269.625 480.516 269.562C480.703 269.5 480.938 269.516 481.219 269.609C481.406 269.672 481.594 269.797 481.781 269.984C481.969 270.141 482.141 270.359 482.297 270.641C482.484 270.891 482.625 271.141 482.719 271.391C482.844 271.641 482.938 271.844 483 272C483.719 271.438 484.5 270.875 485.344 270.312C486.188 269.719 487.078 269.203 488.016 268.766C488.984 268.297 489.953 267.922 490.922 267.641C491.922 267.359 492.875 267.219 493.781 267.219C494.094 267.219 494.469 267.25 494.906 267.312C495.344 267.375 495.75 267.484 496.125 267.641C496.531 267.797 496.859 268.016 497.109 268.297C497.391 268.547 497.531 268.875 497.531 269.281C497.625 270.031 497.531 270.797 497.25 271.578C497 272.328 496.641 273.062 496.172 273.781C495.734 274.5 495.219 275.203 494.625 275.891C494.062 276.578 493.484 277.234 492.891 277.859C492.328 278.484 491.797 279.062 491.297 279.594C490.828 280.125 490.469 280.594 490.219 281C491.5 280.156 492.875 279.547 494.344 279.172C495.844 278.766 497.344 278.562 498.844 278.562C499.312 278.562 499.812 278.594 500.344 278.656C500.906 278.688 501.422 278.797 501.891 278.984C502.359 279.172 502.75 279.438 503.062 279.781C503.375 280.125 503.531 280.609 503.531 281.234C503.531 281.859 503.234 282.734 502.641 283.859C502.078 284.953 501.328 286.172 500.391 287.516C499.484 288.828 498.469 290.172 497.344 291.547C496.25 292.891 495.188 294.125 494.156 295.25C493.125 296.344 492.188 297.25 491.344 297.969C490.531 298.656 489.953 299 489.609 299L488.391 298.438C488.547 297.844 488.938 297.141 489.562 296.328C490.188 295.516 490.922 294.672 491.766 293.797C492.641 292.922 493.562 292 494.531 291.031C495.531 290.062 496.469 289.125 497.344 288.219C498.219 287.312 498.984 286.438 499.641 285.594C500.297 284.719 500.719 283.938 500.906 283.25C501.125 282.531 501.047 281.938 500.672 281.469C500.297 280.969 499.531 280.594 498.375 280.344C497.156 280.344 495.875 280.562 494.531 281C493.188 281.406 491.906 282 490.688 282.781C489.469 283.562 488.375 284.5 487.406 285.594C486.469 286.656 485.781 287.859 485.344 289.203C485.344 290.078 485.406 290.938 485.531 291.781C485.688 292.625 485.844 293.469 486 294.312C486.156 295.125 486.297 295.953 486.422 296.797C486.578 297.641 486.656 298.484 486.656 299.328C486.656 299.953 486.609 300.469 486.516 300.875C486.422 301.281 486.031 301.484 485.344 301.484C485.281 301.484 485.172 301.484 485.016 301.484C484.891 301.453 484.828 301.422 484.828 301.391L480.656 273.172ZM483.656 276.125C483.656 277.281 483.734 278.516 483.891 279.828C484.047 281.109 484.359 282.297 484.828 283.391C485.297 282.984 485.875 282.453 486.562 281.797C487.281 281.109 488.016 280.375 488.766 279.594C489.547 278.812 490.297 277.984 491.016 277.109C491.766 276.234 492.438 275.391 493.031 274.578C493.656 273.766 494.141 273.016 494.484 272.328C494.859 271.609 495.047 271.016 495.047 270.547C495.047 270.172 494.922 269.922 494.672 269.797C494.453 269.672 494.188 269.609 493.875 269.609C493.125 269.609 492.156 269.766 490.969 270.078C489.812 270.391 488.688 270.828 487.594 271.391C486.531 271.953 485.609 272.641 484.828 273.453C484.047 274.234 483.656 275.125 483.656 276.125ZM505.312 291.969C505.688 286.531 506.469 282.109 507.656 278.703C508.844 275.266 510.219 272.812 511.781 271.344C513.375 269.875 515.016 269.391 516.703 269.891C518.422 270.359 519.969 271.781 521.344 274.156C521.812 275.719 522.109 277.469 522.234 279.406C522.391 281.344 522.359 283.312 522.141 285.312C521.953 287.281 521.594 289.219 521.062 291.125C520.562 293.031 519.859 294.75 518.953 296.281C518.047 297.812 516.969 299.109 515.719 300.172C514.469 301.203 513.031 301.828 511.406 302.047C510.25 302.047 509.281 301.688 508.5 300.969C507.719 300.25 507.094 299.375 506.625 298.344C506.156 297.281 505.812 296.188 505.594 295.062C505.406 293.906 505.312 292.875 505.312 291.969ZM507.797 291.688C507.797 292.469 507.828 293.281 507.891 294.125C507.984 294.969 508.172 295.75 508.453 296.469C508.734 297.156 509.156 297.734 509.719 298.203C510.312 298.641 511.094 298.859 512.062 298.859C513.156 298.859 514.156 298.359 515.062 297.359C515.969 296.359 516.75 295.062 517.406 293.469C518.062 291.875 518.578 290.109 518.953 288.172C519.359 286.234 519.594 284.344 519.656 282.5C519.75 280.625 519.656 278.906 519.375 277.344C519.125 275.781 518.672 274.609 518.016 273.828C517.359 273.016 516.484 272.688 515.391 272.844C514.328 273 513.047 273.859 511.547 275.422C511.109 276.703 510.672 278.031 510.234 279.406C509.797 280.75 509.406 282.125 509.062 283.531C508.719 284.906 508.422 286.281 508.172 287.656C507.922 289.031 507.797 290.375 507.797 291.688ZM525.422 266.984C525.422 266.734 525.5 266.562 525.656 266.469C525.844 266.344 526.047 266.281 526.266 266.281C526.516 266.25 526.766 266.25 527.016 266.281C527.297 266.312 527.531 266.328 527.719 266.328C527.875 266.703 528 267.453 528.094 268.578C528.219 269.672 528.328 271.016 528.422 272.609C528.547 274.172 528.625 275.906 528.656 277.812C528.719 279.719 528.766 281.656 528.797 283.625C528.859 285.562 528.891 287.469 528.891 289.344C528.922 291.219 528.938 292.938 528.938 294.5C528.969 296.031 528.984 297.344 528.984 298.438V300.547C528.953 301.172 528.812 301.547 528.562 301.672C528.344 301.766 527.812 301.688 526.969 301.438C526.875 301.406 526.797 300.938 526.734 300.031C526.672 299.125 526.625 297.938 526.594 296.469C526.562 294.969 526.531 293.266 526.5 291.359C526.469 289.422 526.438 287.438 526.406 285.406C526.375 283.375 526.328 281.344 526.266 279.312C526.234 277.281 526.188 275.438 526.125 273.781C526.062 272.094 525.969 270.656 525.844 269.469C525.75 268.25 525.609 267.422 525.422 266.984Z" fill="black"/>
<defs>
<clipPath id="clip0_40_3">
<rect width="530" height="246" fill="white"/>
</clipPath>
</defs>
</svg>
