<svg width="376" height="328" viewBox="0 0 376 328" fill="none" xmlns="http://www.w3.org/2000/svg">
<g clip-path="url(#clip0_20_229)">
<path d="M339.016 170.696C339.065 211.283 323.401 250.308 295.317 279.568C293.624 281.343 291.885 283.076 290.101 284.766C287.382 287.356 284.572 289.846 281.67 292.235C254.528 314.631 220.644 327.216 185.484 327.96C184.313 327.987 183.137 328 181.956 328C153.916 328 118.647 313 86.641 292.235C83.993 290.517 81.3686 288.759 78.7677 286.962C77.552 286.129 76.3422 285.285 75.1383 284.429C62.794 275.699 51.0767 266.113 40.073 255.739C32.8685 248.967 26.1126 241.732 19.8482 234.08C-4.74432 203.699 -10.1686 176.324 24.8923 170.696C29.0433 170.032 33.0721 169.322 36.9785 168.567C42.6371 167.478 48.0525 166.301 53.2247 165.038C60.1918 163.342 66.7374 161.504 72.8616 159.521C74.9217 158.857 76.9346 158.18 78.9004 157.489C107.962 147.266 127.413 133.935 140.654 119.471C142.899 117.022 144.97 114.544 146.865 112.037C149.764 108.22 152.398 104.208 154.747 100.03C157.989 94.2234 160.713 88.1415 162.885 81.8548L163.005 81.5095C173.539 51.0751 170.334 22.8455 181.956 13.3973C231.637 -26.9945 293.487 30.5272 322.518 98.3604C323.981 101.778 325.358 105.217 326.647 108.676C327.226 110.222 327.785 111.77 328.322 113.321C329.737 117.363 331.021 121.416 332.173 125.479C332.615 127.028 333.036 128.576 333.437 130.123C333.866 131.792 334.277 133.457 334.657 135.122C337.482 147.311 339.016 159.331 339.016 170.696Z" fill="#F2F2F2"/>
<path d="M185.484 327.96C184.313 327.987 183.137 328 181.956 328C153.916 328 118.647 313 86.641 292.235C83.993 290.517 81.3686 288.759 78.7677 286.962L81.0488 273.06L150.105 263.877L184.764 290.42L185.484 327.96Z" fill="#2F2E41"/>
<path d="M188.809 79.7164H178.968C178.663 79.7166 178.371 79.8379 178.155 80.0537C177.94 80.2696 177.819 80.5623 177.819 80.8675V90.7275C177.819 90.8784 177.849 91.0278 177.907 91.1671C177.964 91.3065 178.049 91.4331 178.156 91.5396C178.263 91.6461 178.389 91.7305 178.529 91.7879C178.668 91.8453 178.817 91.8747 178.968 91.8742H188.809C189.113 91.8743 189.404 91.7537 189.62 91.5388C189.835 91.3238 189.957 91.0321 189.958 90.7275V80.8675C189.957 80.5625 189.836 80.2702 189.62 80.0545C189.405 79.8389 189.113 79.7173 188.809 79.7164Z" fill="white"/>
<path d="M188.809 96.5187H178.968C178.663 96.5188 178.371 96.6401 178.155 96.856C177.94 97.0718 177.819 97.3646 177.819 97.6698V107.53C177.819 107.681 177.849 107.83 177.907 107.969C177.964 108.109 178.049 108.235 178.156 108.342C178.263 108.448 178.389 108.533 178.529 108.59C178.668 108.648 178.817 108.677 178.968 108.676H188.809C189.113 108.677 189.404 108.556 189.62 108.341C189.835 108.126 189.957 107.834 189.958 107.53V97.6698C189.957 97.3648 189.836 97.0725 189.62 96.8568C189.405 96.6411 189.113 96.5196 188.809 96.5187Z" fill="#E6E6E6"/>
<path d="M188.809 113.321H178.968C178.663 113.321 178.371 113.442 178.155 113.658C177.94 113.874 177.819 114.167 177.819 114.472V124.328C177.818 124.479 177.848 124.629 177.906 124.768C177.963 124.908 178.048 125.035 178.155 125.142C178.261 125.249 178.388 125.334 178.528 125.392C178.667 125.449 178.817 125.479 178.968 125.479H188.809C189.113 125.479 189.406 125.357 189.621 125.141C189.837 124.926 189.958 124.633 189.958 124.328V114.472C189.957 114.167 189.836 113.875 189.62 113.659C189.405 113.443 189.113 113.322 188.809 113.321Z" fill="#E6E6E6"/>
<path d="M189.94 131.071C189.891 130.805 189.751 130.566 189.545 130.393C189.338 130.22 189.078 130.124 188.809 130.123H178.968C178.663 130.123 178.371 130.245 178.155 130.46C177.94 130.676 177.819 130.969 177.819 131.274V141.13C177.818 141.281 177.848 141.431 177.906 141.571C177.963 141.71 178.048 141.838 178.155 141.944C178.261 142.051 178.388 142.136 178.528 142.194C178.667 142.252 178.817 142.281 178.968 142.281H188.809C189.113 142.281 189.406 142.16 189.621 141.944C189.837 141.728 189.958 141.435 189.958 141.13V131.274C189.959 131.206 189.953 131.138 189.94 131.071Z" fill="#E6E6E6"/>
<path d="M189.255 147.014C189.113 146.955 188.962 146.925 188.809 146.925H178.968C178.817 146.925 178.667 146.955 178.528 147.012C178.388 147.07 178.261 147.155 178.155 147.262C178.048 147.369 177.963 147.496 177.906 147.636C177.848 147.775 177.818 147.925 177.819 148.076V157.932C177.818 158.083 177.847 158.233 177.905 158.373C177.962 158.513 178.047 158.641 178.154 158.748C178.261 158.855 178.388 158.939 178.527 158.997C178.667 159.055 178.817 159.084 178.968 159.083H188.809C189.113 159.083 189.406 158.962 189.621 158.746C189.837 158.53 189.958 158.237 189.958 157.932V148.076C189.957 147.85 189.891 147.629 189.766 147.44C189.641 147.251 189.463 147.103 189.255 147.014Z" fill="#E6E6E6"/>
<path d="M209.48 79.7164H199.639C199.335 79.7166 199.042 79.8379 198.827 80.0537C198.611 80.2696 198.49 80.5623 198.49 80.8675V90.7275C198.49 90.8784 198.52 91.0278 198.578 91.1671C198.636 91.3065 198.72 91.4331 198.827 91.5396C198.934 91.6461 199.061 91.7305 199.2 91.7879C199.339 91.8453 199.489 91.8747 199.639 91.8742H209.48C209.784 91.8743 210.076 91.7537 210.291 91.5388C210.507 91.3238 210.628 91.0321 210.629 90.7275V80.8675C210.628 80.5625 210.507 80.2702 210.292 80.0545C210.076 79.8389 209.784 79.7173 209.48 79.7164Z" fill="#E6E6E6"/>
<path d="M209.48 97H199.639C199.335 97.0001 199.042 97.1215 198.827 97.3373C198.611 97.5532 198.49 97.8459 198.49 98.1511V108.011C198.49 108.162 198.52 108.311 198.578 108.451C198.636 108.59 198.72 108.717 198.827 108.823C198.934 108.93 199.061 109.014 199.2 109.071C199.339 109.129 199.489 109.158 199.639 109.158H209.48C209.784 109.158 210.076 109.037 210.291 108.822C210.507 108.607 210.628 108.316 210.629 108.011V98.1511C210.628 97.8461 210.507 97.5538 210.292 97.3381C210.076 97.1224 209.784 97.0009 209.48 97Z" fill="#CF25BE"/>
<path d="M209.48 113.321H199.639C199.335 113.321 199.042 113.442 198.827 113.658C198.611 113.874 198.49 114.167 198.49 114.472V124.328C198.49 124.479 198.519 124.629 198.577 124.768C198.635 124.908 198.719 125.035 198.826 125.142C198.933 125.249 199.06 125.334 199.199 125.392C199.339 125.449 199.488 125.479 199.639 125.479H209.48C209.785 125.479 210.077 125.357 210.292 125.141C210.508 124.926 210.629 124.633 210.629 124.328V114.472C210.628 114.167 210.507 113.875 210.292 113.659C210.076 113.443 209.784 113.322 209.48 113.321Z" fill="#CF25BE"/>
<path d="M209.48 130.123H199.639C199.398 130.123 199.164 130.2 198.968 130.341C198.773 130.483 198.627 130.682 198.552 130.911C198.511 131.028 198.49 131.151 198.49 131.274V141.13C198.49 141.281 198.519 141.431 198.577 141.571C198.635 141.711 198.719 141.838 198.826 141.944C198.933 142.051 199.06 142.136 199.199 142.194C199.339 142.252 199.488 142.281 199.639 142.281H209.48C209.785 142.281 210.077 142.16 210.292 141.944C210.508 141.728 210.629 141.435 210.629 141.13V131.274C210.628 130.969 210.507 130.677 210.292 130.461C210.076 130.246 209.784 130.124 209.48 130.123Z" fill="#CF25BE"/>
<path d="M209.48 146.925H199.639C199.488 146.925 199.339 146.955 199.199 147.012C199.06 147.07 198.933 147.155 198.826 147.262C198.719 147.369 198.635 147.496 198.577 147.636C198.519 147.775 198.49 147.925 198.49 148.077V157.932C198.49 158.083 198.519 158.233 198.577 158.373C198.635 158.513 198.719 158.64 198.826 158.747C198.933 158.854 199.06 158.938 199.199 158.996C199.339 159.054 199.488 159.084 199.639 159.083H209.48C209.785 159.083 210.077 158.962 210.293 158.746C210.508 158.53 210.629 158.237 210.629 157.932V148.077C210.629 147.771 210.508 147.479 210.293 147.263C210.077 147.047 209.785 146.925 209.48 146.925Z" fill="#E6E6E6"/>
<path d="M209.99 80H200.149C199.845 80.0001 199.552 80.1214 199.337 80.3373C199.121 80.5531 199 80.8458 199 81.1511V91.011C199 91.162 199.03 91.3114 199.088 91.4507C199.146 91.5901 199.23 91.7166 199.337 91.8231C199.444 91.9296 199.571 92.014 199.71 92.0715C199.849 92.1289 199.999 92.1582 200.149 92.1578H209.99C210.294 92.1579 210.586 92.0373 210.801 91.8223C211.017 91.6074 211.138 91.3156 211.139 91.011V81.1511C211.138 80.8461 211.017 80.5538 210.802 80.3381C210.586 80.1224 210.294 80.0009 209.99 80Z" fill="#CF25BE"/>
<path d="M230.99 97H221.149C220.845 97.0001 220.552 97.1215 220.337 97.3373C220.121 97.5532 220 97.8459 220 98.1511V108.011C220 108.162 220.03 108.311 220.088 108.451C220.146 108.59 220.23 108.717 220.337 108.823C220.444 108.93 220.571 109.014 220.71 109.071C220.849 109.129 220.999 109.158 221.149 109.158H230.99C231.294 109.158 231.586 109.037 231.801 108.822C232.017 108.607 232.138 108.316 232.139 108.011V98.1511C232.138 97.8461 232.017 97.5538 231.802 97.3381C231.586 97.1224 231.294 97.0009 230.99 97Z" fill="#CF25BE"/>
<path d="M230.151 113.321H220.311C220.006 113.321 219.714 113.442 219.498 113.658C219.283 113.874 219.162 114.167 219.161 114.472V124.328C219.161 124.479 219.191 124.629 219.248 124.768C219.306 124.908 219.391 125.035 219.497 125.142C219.604 125.249 219.731 125.334 219.871 125.392C220.01 125.449 220.16 125.479 220.311 125.479H230.151C230.456 125.479 230.748 125.357 230.964 125.141C231.179 124.926 231.3 124.633 231.301 124.328V114.472C231.3 114.167 231.178 113.875 230.963 113.659C230.748 113.443 230.456 113.322 230.151 113.321Z" fill="#E6E6E6"/>
<path d="M230.151 130.123H220.311C220.006 130.123 219.714 130.245 219.498 130.46C219.283 130.676 219.162 130.969 219.161 131.274V141.13C219.161 141.281 219.191 141.431 219.248 141.571C219.306 141.71 219.391 141.838 219.497 141.944C219.604 142.051 219.731 142.136 219.871 142.194C220.01 142.252 220.16 142.281 220.311 142.281H230.151C230.456 142.281 230.748 142.16 230.964 141.944C231.179 141.728 231.3 141.435 231.301 141.13V131.274C231.3 130.969 231.178 130.677 230.963 130.461C230.748 130.246 230.456 130.124 230.151 130.123Z" fill="#CF25BE"/>
<path d="M230.151 146.925H220.311C220.16 146.925 220.01 146.955 219.871 147.012C219.731 147.07 219.604 147.155 219.497 147.262C219.391 147.369 219.306 147.496 219.248 147.636C219.191 147.775 219.161 147.925 219.161 148.077V157.932C219.161 158.083 219.191 158.233 219.248 158.373C219.306 158.513 219.391 158.64 219.497 158.747C219.604 158.854 219.731 158.938 219.871 158.996C220.01 159.054 220.16 159.084 220.311 159.083H230.151C230.456 159.083 230.748 158.962 230.964 158.746C231.179 158.53 231.3 158.237 231.301 157.932V148.077C231.3 147.771 231.179 147.479 230.964 147.263C230.748 147.047 230.456 146.925 230.151 146.925Z" fill="#CF25BE"/>
<path d="M230.99 80H221.149C220.845 80.0001 220.552 80.1215 220.337 80.3373C220.121 80.5531 220 80.8458 220 81.1511V91.011C220 91.162 220.03 91.3114 220.088 91.4507C220.146 91.5901 220.23 91.7166 220.337 91.8231C220.444 91.9296 220.571 92.014 220.71 92.0715C220.849 92.1289 220.999 92.1582 221.149 92.1578H230.99C231.294 92.1579 231.586 92.0373 231.801 91.8223C232.017 91.6074 232.138 91.3156 232.139 91.011V81.1511C232.138 80.8461 232.017 80.5538 231.802 80.3381C231.586 80.1224 231.295 80.0009 230.99 80Z" fill="#CF25BE"/>
<path d="M250.823 96.5187H240.982C240.677 96.5188 240.385 96.6401 240.169 96.856C239.954 97.0718 239.833 97.3646 239.833 97.6698V107.53C239.833 107.681 239.863 107.83 239.921 107.969C239.978 108.109 240.063 108.235 240.17 108.342C240.277 108.448 240.403 108.533 240.543 108.59C240.682 108.648 240.831 108.677 240.982 108.676H250.823C251.127 108.677 251.418 108.556 251.634 108.341C251.849 108.126 251.971 107.834 251.972 107.53V97.6698C251.971 97.3648 251.85 97.0725 251.634 96.8568C251.419 96.6411 251.127 96.5196 250.823 96.5187Z" fill="white"/>
<path d="M250.823 113.321H240.982C240.677 113.321 240.385 113.442 240.169 113.658C239.954 113.874 239.833 114.167 239.833 114.472V124.328C239.832 124.479 239.862 124.629 239.92 124.768C239.977 124.908 240.062 125.035 240.169 125.142C240.275 125.249 240.402 125.334 240.542 125.392C240.681 125.449 240.831 125.479 240.982 125.479H250.823C251.127 125.479 251.42 125.357 251.635 125.141C251.851 124.926 251.972 124.633 251.972 124.328V114.472C251.971 114.167 251.85 113.875 251.634 113.659C251.419 113.443 251.127 113.322 250.823 113.321Z" fill="white"/>
<path d="M250.823 130.123H240.982C240.677 130.123 240.385 130.245 240.169 130.46C239.954 130.676 239.833 130.969 239.833 131.274V141.13C239.832 141.281 239.862 141.431 239.92 141.571C239.977 141.71 240.062 141.838 240.169 141.944C240.275 142.051 240.402 142.136 240.542 142.194C240.681 142.252 240.831 142.281 240.982 142.281H250.823C251.127 142.281 251.42 142.16 251.635 141.944C251.851 141.728 251.972 141.435 251.972 141.13V131.274C251.971 130.969 251.85 130.677 251.634 130.461C251.419 130.246 251.127 130.124 250.823 130.123Z" fill="#E6E6E6"/>
<path d="M250.823 146.925H240.982C240.831 146.925 240.681 146.955 240.542 147.012C240.402 147.07 240.275 147.155 240.169 147.262C240.062 147.369 239.977 147.496 239.92 147.636C239.862 147.775 239.832 147.925 239.833 148.077V157.932C239.832 158.083 239.862 158.233 239.92 158.373C239.977 158.513 240.062 158.64 240.169 158.747C240.275 158.854 240.402 158.938 240.542 158.996C240.681 159.054 240.831 159.084 240.982 159.083H250.823C251.127 159.083 251.42 158.962 251.635 158.746C251.851 158.53 251.972 158.237 251.972 157.932V148.077C251.972 147.771 251.851 147.479 251.635 147.263C251.42 147.047 251.127 146.925 250.823 146.925Z" fill="#CF25BE"/>
<path d="M271.494 79.7164H261.649C261.345 79.7175 261.054 79.8392 260.839 80.055C260.624 80.2708 260.504 80.5629 260.504 80.8675V90.7275C260.504 91.0316 260.625 91.3232 260.839 91.5383C261.054 91.7533 261.345 91.8742 261.649 91.8742H271.494C271.798 91.8744 272.09 91.7537 272.305 91.5388C272.521 91.3238 272.642 91.0321 272.643 90.7275V80.8675C272.642 80.5625 272.521 80.2702 272.306 80.0545C272.09 79.8389 271.798 79.7173 271.494 79.7164Z" fill="white"/>
<path d="M271.494 96.5187H261.649C261.345 96.5197 261.054 96.6415 260.839 96.8573C260.624 97.0731 260.504 97.3652 260.504 97.6698V107.53C260.504 107.834 260.625 108.126 260.839 108.341C261.054 108.556 261.345 108.676 261.649 108.676H271.494C271.798 108.677 272.09 108.556 272.305 108.341C272.521 108.126 272.642 107.834 272.643 107.53V97.6698C272.642 97.3648 272.521 97.0725 272.306 96.8568C272.09 96.6411 271.798 96.5196 271.494 96.5187Z" fill="white"/>
<path d="M271.494 113.321H261.649C261.345 113.322 261.054 113.444 260.839 113.659C260.624 113.875 260.504 114.167 260.504 114.472V124.328C260.504 124.479 260.533 124.628 260.59 124.768C260.648 124.907 260.732 125.034 260.838 125.141C260.944 125.248 261.071 125.333 261.21 125.391C261.349 125.449 261.498 125.479 261.649 125.479H271.494C271.799 125.479 272.091 125.357 272.306 125.141C272.522 124.926 272.643 124.633 272.643 124.328V114.472C272.642 114.167 272.521 113.875 272.306 113.659C272.09 113.443 271.798 113.322 271.494 113.321Z" fill="white"/>
<path d="M271.494 130.123H261.649C261.345 130.124 261.054 130.246 260.839 130.462C260.624 130.678 260.504 130.97 260.504 131.274V141.13C260.504 141.281 260.533 141.43 260.59 141.57C260.648 141.709 260.732 141.836 260.838 141.943C260.944 142.05 261.071 142.135 261.21 142.193C261.349 142.251 261.498 142.281 261.649 142.281H271.494C271.799 142.281 272.091 142.16 272.306 141.944C272.522 141.728 272.643 141.435 272.643 141.13V131.274C272.642 130.969 272.521 130.677 272.306 130.461C272.09 130.246 271.798 130.124 271.494 130.123Z" fill="#CF25BE"/>
<path d="M271.494 146.925H261.649C261.498 146.926 261.349 146.955 261.21 147.013C261.071 147.071 260.944 147.156 260.838 147.263C260.732 147.37 260.648 147.497 260.59 147.636C260.533 147.776 260.504 147.926 260.504 148.076V157.932C260.504 158.083 260.533 158.232 260.59 158.372C260.648 158.512 260.732 158.638 260.838 158.745C260.944 158.852 261.071 158.937 261.21 158.995C261.349 159.053 261.498 159.083 261.649 159.083H271.494C271.799 159.083 272.091 158.962 272.306 158.746C272.522 158.53 272.643 158.237 272.643 157.932V148.076C272.643 147.771 272.522 147.479 272.306 147.263C272.091 147.047 271.799 146.925 271.494 146.925Z" fill="#E6E6E6"/>
<path d="M292.165 79.7164H282.32C282.016 79.7175 281.725 79.8392 281.51 80.055C281.296 80.2708 281.175 80.5629 281.175 80.8675V90.7275C281.175 91.0316 281.296 91.3232 281.511 91.5383C281.725 91.7533 282.017 91.8742 282.32 91.8742H292.165C292.469 91.8743 292.761 91.7537 292.977 91.5388C293.192 91.3238 293.314 91.0321 293.315 90.7275V80.8675C293.314 80.5625 293.192 80.2702 292.977 80.0545C292.762 79.8389 292.47 79.7173 292.165 79.7164Z" fill="white"/>
<path d="M292.165 96.5187H282.32C282.016 96.5197 281.725 96.6415 281.51 96.8573C281.296 97.0731 281.175 97.3652 281.175 97.6698V107.53C281.175 107.834 281.296 108.126 281.511 108.341C281.725 108.556 282.017 108.676 282.32 108.676H292.165C292.469 108.677 292.761 108.556 292.977 108.341C293.192 108.126 293.314 107.834 293.315 107.53V97.6698C293.314 97.3648 293.192 97.0725 292.977 96.8568C292.762 96.6411 292.47 96.5196 292.165 96.5187Z" fill="white"/>
<path d="M292.165 113.321H282.32C282.016 113.322 281.725 113.444 281.51 113.659C281.296 113.875 281.175 114.167 281.175 114.472V124.328C281.175 124.479 281.204 124.628 281.262 124.768C281.319 124.907 281.403 125.034 281.509 125.141C281.616 125.248 281.742 125.333 281.881 125.391C282.02 125.449 282.17 125.479 282.32 125.479H292.165C292.47 125.479 292.762 125.357 292.978 125.141C293.193 124.926 293.315 124.633 293.315 124.328V114.472C293.314 114.167 293.192 113.875 292.977 113.659C292.762 113.443 292.47 113.322 292.165 113.321Z" fill="#CF25BE"/>
<path d="M292.165 130.123H282.32C282.016 130.124 281.725 130.246 281.51 130.462C281.296 130.678 281.175 130.97 281.175 131.274V141.13C281.175 141.281 281.204 141.43 281.262 141.57C281.319 141.709 281.403 141.836 281.509 141.943C281.616 142.05 281.742 142.135 281.881 142.193C282.02 142.251 282.17 142.281 282.32 142.281H292.165C292.47 142.281 292.762 142.16 292.978 141.944C293.193 141.728 293.315 141.435 293.315 141.13V131.274C293.314 130.969 293.192 130.677 292.977 130.461C292.762 130.246 292.47 130.124 292.165 130.123Z" fill="#E6E6E6"/>
<path d="M292.165 146.925H282.32C282.17 146.926 282.02 146.955 281.881 147.013C281.742 147.071 281.616 147.156 281.509 147.263C281.403 147.37 281.319 147.497 281.262 147.636C281.204 147.776 281.175 147.926 281.175 148.076V157.932C281.175 158.083 281.204 158.232 281.262 158.372C281.319 158.512 281.403 158.638 281.509 158.745C281.616 158.852 281.742 158.937 281.881 158.995C282.02 159.053 282.17 159.083 282.32 159.083H292.165C292.47 159.083 292.762 158.962 292.978 158.746C293.193 158.53 293.315 158.237 293.315 157.932V148.076C293.315 147.771 293.193 147.479 292.978 147.263C292.762 147.047 292.47 146.926 292.165 146.925Z" fill="white"/>
<path d="M251.99 80H242.145C241.841 80.0011 241.55 80.1228 241.335 80.3386C241.12 80.5543 241 80.8465 241 81.1511V91.0111C241 91.3152 241.121 91.6068 241.335 91.8219C241.55 92.0369 241.841 92.1577 242.145 92.1578H251.99C252.294 92.1579 252.586 92.0373 252.801 91.8223C253.017 91.6074 253.138 91.3156 253.139 91.0111V81.1511C253.138 80.8461 253.017 80.5538 252.802 80.3381C252.586 80.1224 252.294 80.0009 251.99 80Z" fill="#CF25BE"/>
<path d="M312.837 96.5187H302.992C302.688 96.5197 302.396 96.6415 302.182 96.8573C301.967 97.0731 301.847 97.3652 301.847 97.6698V107.53C301.847 107.834 301.967 108.126 302.182 108.341C302.397 108.556 302.688 108.676 302.992 108.676H312.837C313.141 108.677 313.432 108.556 313.648 108.341C313.863 108.126 313.985 107.834 313.986 107.53V97.6698C313.985 97.3648 313.864 97.0725 313.648 96.8568C313.433 96.6411 313.141 96.5196 312.837 96.5187Z" fill="#CF25BE"/>
<path d="M312.837 113.321H302.992C302.688 113.322 302.396 113.444 302.182 113.659C301.967 113.875 301.847 114.167 301.847 114.472V124.328C301.846 124.479 301.876 124.628 301.933 124.768C301.99 124.907 302.074 125.034 302.181 125.141C302.287 125.248 302.414 125.333 302.553 125.391C302.692 125.449 302.841 125.479 302.992 125.479H312.837C313.141 125.479 313.434 125.357 313.649 125.141C313.865 124.926 313.986 124.633 313.986 124.328V114.472C313.985 114.167 313.864 113.875 313.648 113.659C313.433 113.443 313.141 113.322 312.837 113.321Z" fill="#E6E6E6"/>
<path d="M312.837 130.123H302.992C302.688 130.124 302.396 130.246 302.182 130.462C301.967 130.678 301.847 130.97 301.847 131.274V141.13C301.846 141.281 301.876 141.43 301.933 141.57C301.99 141.709 302.074 141.836 302.181 141.943C302.287 142.05 302.414 142.135 302.553 142.193C302.692 142.251 302.841 142.281 302.992 142.281H312.837C313.141 142.281 313.434 142.16 313.649 141.944C313.865 141.728 313.986 141.435 313.986 141.13V131.274C313.985 130.969 313.864 130.677 313.648 130.461C313.433 130.246 313.141 130.124 312.837 130.123Z" fill="white"/>
<path d="M312.837 146.925H302.992C302.841 146.926 302.692 146.955 302.553 147.013C302.414 147.071 302.287 147.156 302.181 147.263C302.074 147.37 301.99 147.497 301.933 147.636C301.876 147.776 301.846 147.926 301.847 148.076V157.932C301.846 158.083 301.876 158.232 301.933 158.372C301.99 158.512 302.074 158.638 302.181 158.745C302.287 158.852 302.414 158.937 302.553 158.995C302.692 159.053 302.841 159.083 302.992 159.083H312.837C313.141 159.083 313.434 158.962 313.649 158.746C313.865 158.53 313.986 158.237 313.986 157.932V148.076C313.986 147.771 313.865 147.479 313.649 147.263C313.434 147.047 313.141 146.926 312.837 146.925Z" fill="#CF25BE"/>
<path d="M333.508 79.7164H323.663C323.359 79.7175 323.068 79.8392 322.853 80.055C322.638 80.2708 322.518 80.5629 322.518 80.8675V90.7275C322.518 91.0316 322.639 91.3232 322.853 91.5383C323.068 91.7533 323.359 91.8742 323.663 91.8742H333.508C333.812 91.8743 334.104 91.7537 334.319 91.5388C334.535 91.3238 334.656 91.0321 334.657 90.7275V80.8675C334.656 80.5625 334.535 80.2702 334.32 80.0545C334.104 79.8389 333.812 79.7173 333.508 79.7164Z" fill="#CF25BE"/>
<path d="M333.508 96.5187H323.663C323.359 96.5197 323.068 96.6415 322.853 96.8573C322.638 97.0731 322.518 97.3652 322.518 97.6698V107.53C322.518 107.834 322.639 108.126 322.853 108.341C323.068 108.556 323.359 108.676 323.663 108.676H333.508C333.812 108.677 334.104 108.556 334.319 108.341C334.535 108.126 334.656 107.834 334.657 107.53V97.6698C334.656 97.3648 334.535 97.0725 334.32 96.8568C334.104 96.6411 333.812 96.5196 333.508 96.5187Z" fill="#CF25BE"/>
<path d="M333.508 113.321H323.663C323.359 113.322 323.068 113.444 322.853 113.659C322.638 113.875 322.518 114.167 322.518 114.472V124.328C322.518 124.479 322.547 124.628 322.604 124.768C322.661 124.907 322.746 125.034 322.852 125.141C322.958 125.248 323.085 125.333 323.224 125.391C323.363 125.449 323.512 125.479 323.663 125.479H333.508C333.813 125.479 334.105 125.357 334.32 125.141C334.536 124.926 334.657 124.633 334.657 124.328V114.472C334.656 114.167 334.535 113.875 334.32 113.659C334.104 113.443 333.812 113.322 333.508 113.321Z" fill="#E6E6E6"/>
<path d="M333.508 130.123H323.663C323.359 130.124 323.068 130.246 322.853 130.462C322.638 130.678 322.518 130.97 322.518 131.274V141.13C322.518 141.281 322.547 141.43 322.604 141.57C322.661 141.709 322.746 141.836 322.852 141.943C322.958 142.05 323.085 142.135 323.224 142.193C323.363 142.251 323.512 142.281 323.663 142.281H333.508C333.813 142.281 334.105 142.16 334.321 141.944C334.536 141.728 334.657 141.435 334.657 141.13V131.274C334.656 130.969 334.535 130.677 334.32 130.461C334.104 130.246 333.812 130.124 333.508 130.123Z" fill="#CF25BE"/>
<path d="M333.508 146.925H323.663C323.512 146.926 323.363 146.955 323.224 147.013C323.085 147.071 322.958 147.156 322.852 147.263C322.746 147.37 322.661 147.497 322.604 147.636C322.547 147.776 322.518 147.926 322.518 148.076V157.932C322.518 158.083 322.547 158.232 322.604 158.372C322.661 158.512 322.746 158.638 322.852 158.745C322.958 158.852 323.085 158.937 323.224 158.995C323.363 159.053 323.512 159.083 323.663 159.083H333.508C333.813 159.083 334.105 158.962 334.321 158.746C334.536 158.53 334.657 158.237 334.657 157.932V148.076C334.657 147.771 334.536 147.479 334.321 147.263C334.105 147.047 333.813 146.926 333.508 146.925Z" fill="#CF25BE"/>
<path d="M354.179 79.7164H344.334C344.03 79.7175 343.739 79.8392 343.524 80.055C343.31 80.2708 343.189 80.5629 343.189 80.8675V90.7275C343.189 91.0316 343.31 91.3232 343.525 91.5383C343.739 91.7533 344.031 91.8742 344.334 91.8742H354.179C354.483 91.8743 354.775 91.7537 354.991 91.5388C355.206 91.3238 355.328 91.0321 355.329 90.7275V80.8675C355.328 80.5625 355.206 80.2702 354.991 80.0545C354.776 79.8389 354.484 79.7173 354.179 79.7164Z" fill="#E6E6E6"/>
<path d="M354.179 96.5187H344.334C344.03 96.5197 343.739 96.6415 343.524 96.8573C343.31 97.0731 343.189 97.3652 343.189 97.6698V107.53C343.189 107.834 343.31 108.126 343.525 108.341C343.739 108.556 344.031 108.676 344.334 108.676H354.179C354.483 108.677 354.775 108.556 354.991 108.341C355.206 108.126 355.328 107.834 355.329 107.53V97.6698C355.328 97.3648 355.206 97.0725 354.991 96.8568C354.776 96.6411 354.484 96.5196 354.179 96.5187Z" fill="#CF25BE"/>
<path d="M354.179 113.321H344.334C344.03 113.322 343.739 113.444 343.524 113.659C343.31 113.875 343.189 114.167 343.189 114.472V124.328C343.189 124.479 343.218 124.628 343.276 124.768C343.333 124.907 343.417 125.034 343.523 125.141C343.63 125.248 343.756 125.333 343.895 125.391C344.034 125.449 344.184 125.479 344.334 125.479H354.179C354.484 125.479 354.776 125.357 354.992 125.141C355.207 124.926 355.328 124.633 355.329 124.328V114.472C355.328 114.167 355.206 113.875 354.991 113.659C354.776 113.443 354.484 113.322 354.179 113.321Z" fill="#CF25BE"/>
<path d="M354.179 130.123H344.334C344.03 130.124 343.739 130.246 343.524 130.462C343.31 130.678 343.189 130.97 343.189 131.274V141.13C343.189 141.281 343.218 141.43 343.276 141.57C343.333 141.709 343.417 141.836 343.523 141.943C343.63 142.05 343.756 142.135 343.895 142.193C344.034 142.251 344.184 142.281 344.334 142.281H354.179C354.484 142.281 354.776 142.16 354.992 141.944C355.207 141.728 355.328 141.435 355.329 141.13V131.274C355.328 130.969 355.206 130.677 354.991 130.461C354.776 130.246 354.484 130.124 354.179 130.123Z" fill="#CF25BE"/>
<path d="M354.179 146.925H344.334C344.184 146.926 344.034 146.955 343.895 147.013C343.756 147.071 343.63 147.156 343.523 147.263C343.417 147.37 343.333 147.497 343.276 147.636C343.218 147.776 343.189 147.926 343.189 148.076V157.932C343.189 158.083 343.218 158.232 343.276 158.372C343.333 158.512 343.417 158.638 343.523 158.745C343.63 158.852 343.756 158.937 343.895 158.995C344.034 159.053 344.184 159.083 344.334 159.083H354.179C354.484 159.083 354.776 158.962 354.992 158.746C355.207 158.53 355.328 158.237 355.329 157.932V148.076C355.328 147.771 355.207 147.479 354.992 147.263C354.776 147.047 354.484 146.926 354.179 146.925Z" fill="#E6E6E6"/>
<path d="M374.851 79.7164H365.006C364.702 79.7175 364.41 79.8392 364.196 80.055C363.981 80.2708 363.861 80.5629 363.861 80.8675V90.7275C363.861 91.0316 363.981 91.3232 364.196 91.5383C364.411 91.7533 364.702 91.8742 365.006 91.8742H374.851C375.155 91.8743 375.446 91.7537 375.662 91.5388C375.877 91.3238 375.999 91.0321 376 90.7275V80.8675C375.999 80.5625 375.878 80.2702 375.662 80.0545C375.447 79.8389 375.155 79.7173 374.851 79.7164Z" fill="#E6E6E6"/>
<path d="M374.851 96.5187H365.006C364.701 96.5197 364.41 96.6415 364.196 96.8573C363.981 97.0731 363.86 97.3652 363.861 97.6698V107.53C363.861 107.834 363.981 108.126 364.196 108.341C364.411 108.556 364.702 108.676 365.006 108.676H374.851C375.155 108.677 375.446 108.556 375.662 108.341C375.877 108.126 375.999 107.834 376 107.53V97.6698C375.999 97.3648 375.878 97.0725 375.662 96.8568C375.447 96.6411 375.155 96.5196 374.851 96.5187Z" fill="#E6E6E6"/>
<path d="M374.851 113.321H365.006C364.701 113.322 364.41 113.444 364.196 113.659C363.981 113.875 363.86 114.167 363.861 114.472V124.328C363.86 124.479 363.889 124.628 363.947 124.768C364.004 124.907 364.088 125.034 364.195 125.141C364.301 125.248 364.427 125.333 364.567 125.391C364.706 125.449 364.855 125.479 365.006 125.479H374.851C375.155 125.479 375.448 125.357 375.663 125.141C375.879 124.926 376 124.633 376 124.328V114.472C375.999 114.167 375.878 113.875 375.662 113.659C375.447 113.443 375.155 113.322 374.851 113.321Z" fill="#CF25BE"/>
<path d="M374.851 130.123H365.006C364.701 130.124 364.41 130.246 364.196 130.462C363.981 130.678 363.861 130.97 363.861 131.274V141.13C363.86 141.281 363.889 141.43 363.947 141.57C364.004 141.709 364.088 141.836 364.195 141.943C364.301 142.05 364.427 142.135 364.567 142.193C364.706 142.251 364.855 142.281 365.006 142.281H374.851C375.155 142.281 375.448 142.16 375.663 141.944C375.879 141.728 376 141.435 376 141.13V131.274C375.999 130.969 375.878 130.677 375.662 130.461C375.447 130.246 375.155 130.124 374.851 130.123Z" fill="#E6E6E6"/>
<path d="M374.851 146.925H365.006C364.855 146.926 364.706 146.955 364.567 147.013C364.427 147.071 364.301 147.156 364.195 147.263C364.088 147.37 364.004 147.497 363.947 147.636C363.889 147.776 363.86 147.926 363.861 148.076V157.932C363.86 158.083 363.889 158.232 363.947 158.372C364.004 158.512 364.088 158.638 364.195 158.745C364.301 158.852 364.427 158.937 364.567 158.995C364.706 159.053 364.855 159.083 365.006 159.083H374.851C375.155 159.083 375.448 158.962 375.663 158.746C375.879 158.53 376 158.237 376 157.932V148.076C376 147.771 375.879 147.479 375.663 147.263C375.448 147.047 375.155 146.926 374.851 146.925Z" fill="#E6E6E6"/>
<path d="M148.579 292.236H148.304L148.539 292.205L148.579 292.236Z" fill="#2F2E41"/>
<path d="M125.025 108.497C141.705 108.497 155.228 94.9541 155.228 78.2479C155.228 61.5417 141.705 47.9986 125.025 47.9986C108.344 47.9986 94.8214 61.5417 94.8214 78.2479C94.8214 94.9541 108.344 108.497 125.025 108.497Z" fill="#FFB6B6"/>
<path d="M151.475 56.0696C151.475 56.0696 159.374 40.945 141.995 39.57C141.995 39.57 127.179 26.1095 112.077 37.1092C112.077 37.1092 103.84 37.1092 99.3355 46.4448C99.3355 46.4448 92.8569 43.984 91.4332 50.5697C91.4332 50.5697 86.6927 64.3194 91.4332 76.6942C96.1738 89.0689 97.7484 90.4438 97.7484 90.4438C97.7484 90.4438 89.9587 64.4996 108.92 63.1246C127.88 61.7496 149.098 49.8823 150.678 65.0069C152.258 80.1315 154.636 83.8581 154.636 83.8581C154.636 83.8581 169.644 62.257 151.475 56.0696Z" fill="#2F2E41"/>
<path d="M203.154 152.796L203.057 153.31L201.965 159.083L194.418 199.019L193.972 201.37L193.035 206.342L191.753 213.125L188.91 228.156L188.097 232.464L187.792 234.08L187.686 234.647L186.841 239.105L186.585 240.451L184.525 255.739L182.726 269.061L188.747 275.092L185.157 278.687L182.801 292.204L182.805 292.235H86.6411C82.7508 289.711 78.9165 287.109 75.1383 284.429L75.9296 278.496C75.9296 278.496 78.6528 267.901 77.5078 266.635C76.3673 265.369 73.8651 263.107 73.8651 263.107L77.0171 255.739L77.4548 254.717L76.7209 239.473L76.7033 239.105L76.4601 234.08L76.4292 233.434L76.3805 232.464L75.4478 213.125L75.4301 212.806L75.1472 206.944L74.8819 201.37L74.767 199.019L73.6309 175.496L72.8617 159.521L72.1897 145.615L74.8908 144.698L103.78 134.865L115.747 119.285L140.654 119.471L152.846 119.564L173.19 138.46L177.819 140.674L177.854 140.691L181.174 142.281L189.591 146.305L198.49 150.565L203.057 152.747L203.154 152.796Z" fill="#CACACA"/>
<path d="M118.966 246.854C117.141 247.562 115.183 247.861 113.23 247.729C111.277 247.598 109.377 247.039 107.663 246.092C105.949 245.145 104.463 243.833 103.31 242.249C102.157 240.665 101.365 238.847 100.989 236.923L53.8826 230.23L70.2582 211.678L112.481 220.878C115.75 220.461 119.058 221.258 121.779 223.12C124.5 224.983 126.444 227.78 127.244 230.981C128.043 234.183 127.642 237.568 126.116 240.493C124.59 243.418 122.046 245.682 118.966 246.854V246.854Z" fill="#FFB6B6"/>
<path d="M97.9625 213.125C97.0899 212.017 95.8546 211.253 94.4746 210.969L75.1472 206.944L73.1622 206.532C72.0087 206.291 70.919 205.809 69.9645 205.117C69.0099 204.425 68.212 203.539 67.623 202.517C67.0121 201.444 66.6424 200.25 66.5399 199.019C66.4478 197.9 66.5816 196.774 66.9334 195.707L73.6308 175.496L77.9763 162.382C78.503 160.8 78.8138 159.154 78.9003 157.489C79.1424 152.882 77.719 148.341 74.8907 144.698C72.4042 141.497 68.9554 139.181 65.0539 138.094C61.1524 137.006 57.0051 137.205 53.2247 138.659C53.1142 138.699 52.9992 138.743 52.8887 138.788C50.1776 139.872 47.7554 141.573 45.8135 143.756C43.8717 145.939 42.4633 148.544 41.6998 151.366L36.9785 168.567L27.2396 204.027C26.2647 207.579 26.0678 211.301 26.6622 214.937C27.2567 218.573 28.6286 222.038 30.684 225.093C32.7393 228.149 35.4297 230.724 38.5708 232.642C41.712 234.56 45.2298 235.775 48.8835 236.205L76.7209 239.473L89.6029 240.987C91.0925 241.166 92.5948 240.777 93.8106 239.896C95.0264 239.016 95.8664 237.709 96.1633 236.236C96.1841 236.156 96.2003 236.075 96.2119 235.993L96.5213 234.08L99.1428 217.973L99.1693 217.809C99.3059 216.987 99.2691 216.146 99.0613 215.339C98.8534 214.532 98.4791 213.778 97.9625 213.125Z" fill="#CACACA"/>
<path d="M148.971 247.37C150.878 247.814 152.858 247.833 154.773 247.427C156.688 247.02 158.49 246.199 160.054 245.019C161.617 243.84 162.903 242.331 163.822 240.6C164.74 238.869 165.269 236.958 165.369 235L211.063 221.72L192.239 205.666L151.733 220.738C148.438 220.786 145.275 222.043 142.844 224.271C140.412 226.499 138.881 229.543 138.541 232.825C138.2 236.108 139.074 239.402 140.996 242.083C142.919 244.763 145.756 246.645 148.971 247.37V247.37Z" fill="#FFB6B6"/>
<path d="M233.75 192.015L212.017 141.922C210.24 137.81 207.065 134.461 203.057 132.47C201.818 131.859 200.516 131.384 199.175 131.053C198.967 131 198.76 130.951 198.552 130.911C195.708 130.29 192.759 130.344 189.94 131.071C187.364 131.734 184.956 132.933 182.873 134.591C180.791 136.248 179.08 138.327 177.854 140.691C177.841 140.711 177.829 140.732 177.819 140.753C176.449 143.408 175.72 146.347 175.692 149.334C175.663 152.322 176.336 155.274 177.655 157.954L177.925 158.494L193.282 189.385C193.807 190.441 194.102 191.597 194.149 192.775C194.197 193.954 193.994 195.129 193.556 196.224C193.118 197.319 192.453 198.309 191.606 199.129C190.759 199.948 189.748 200.579 188.641 200.98L187.562 201.37L168.164 208.387C166.708 208.908 165.511 209.973 164.824 211.36C164.137 212.746 164.014 214.346 164.481 215.821L164.53 215.976L169.967 233.403C169.994 233.482 170.02 233.562 170.051 233.642C170.099 233.792 170.158 233.939 170.228 234.08C170.806 235.378 171.828 236.427 173.109 237.038C174.39 237.649 175.847 237.783 177.217 237.414L187.686 234.647L189.821 234.08L216.854 226.93C220.411 225.988 223.722 224.288 226.562 221.946C229.402 219.604 231.703 216.674 233.308 213.358C234.913 210.043 235.783 206.419 235.859 202.735C235.935 199.051 235.216 195.394 233.75 192.015L233.75 192.015Z" fill="#CACACA"/>
<path d="M19.8482 234.08C26.1126 241.732 32.8685 248.968 40.073 255.739H239.877C241.802 255.742 243.647 256.51 245.008 257.873C246.369 259.237 247.134 261.086 247.136 263.014L247.423 313.721C259.715 308.065 271.226 300.844 281.67 292.235C284.57 289.848 287.381 287.359 290.101 284.766C291.882 283.074 293.621 281.342 295.317 279.568C308.033 266.301 318.33 250.906 325.741 234.08H19.8482Z" fill="#3F3D56"/>
<path d="M295.317 279.568C293.624 281.343 291.885 283.076 290.101 284.766H247.569V279.568H295.317Z" fill="white"/>
<path d="M202.756 113.321C202.546 112.932 202.235 112.608 201.856 112.382C201.477 112.156 201.044 112.037 200.603 112.037H55.6738C55.024 112.039 54.4014 112.298 53.9424 112.759C53.4833 113.219 53.2253 113.843 53.2247 114.494V201.37H203.057V114.494C203.059 114.084 202.955 113.68 202.756 113.321Z" fill="#3F3D56"/>
<path d="M53.0935 199.018V209.738C53.0935 210.183 53.1809 210.623 53.3507 211.034C53.5205 211.444 53.7694 211.817 54.0832 212.132C54.397 212.446 54.7695 212.695 55.1795 212.865C55.5894 213.035 56.0289 213.123 56.4726 213.123H111.775V234.28H111.04C110.982 234.28 110.925 234.292 110.872 234.314C110.819 234.336 110.77 234.368 110.729 234.409C110.689 234.45 110.656 234.498 110.634 234.552C110.612 234.605 110.601 234.662 110.601 234.72V236.191C110.601 236.249 110.612 236.306 110.634 236.36C110.656 236.413 110.689 236.461 110.729 236.502C110.77 236.543 110.819 236.575 110.872 236.598C110.925 236.62 110.982 236.631 111.04 236.631H145.371C145.428 236.631 145.485 236.62 145.539 236.598C145.592 236.575 145.64 236.543 145.681 236.502C145.722 236.461 145.754 236.413 145.776 236.36C145.798 236.306 145.81 236.249 145.81 236.191V234.72C145.81 234.662 145.798 234.605 145.776 234.552C145.754 234.498 145.722 234.45 145.681 234.409C145.64 234.368 145.592 234.336 145.539 234.314C145.485 234.292 145.428 234.28 145.371 234.28H144.636V213.123H199.938C200.382 213.123 200.821 213.035 201.231 212.865C201.641 212.695 202.013 212.446 202.327 212.132C202.641 211.817 202.89 211.444 203.06 211.034C203.229 210.623 203.317 210.183 203.317 209.738V199.018H53.0935Z" fill="#3F3D56"/>
<path d="M126.39 168.248C134.033 168.248 140.23 162.043 140.23 154.387C140.23 146.732 134.033 140.527 126.39 140.527C118.747 140.527 112.55 146.732 112.55 154.387C112.55 162.043 118.747 168.248 126.39 168.248Z" fill="#CF25BE"/>
<path d="M161.652 76.595H159.442C159.442 59.8592 142.904 48.8924 126.22 48.8835C123.793 48.8764 121.372 49.1122 118.992 49.5875C116.313 50.1232 113.532 50.7652 110.8 51.602C100.027 54.9093 90.0362 61.3026 90.0362 76.595C90.0339 79.5649 90.4112 82.5229 91.159 85.3969L89.0194 85.9547C88.2258 82.8983 87.8247 79.7531 87.8258 76.595C87.8258 63.2329 93.3031 54.0548 102.763 48.5824C107.737 45.7046 113.806 43.8495 120.76 42.9463C123.654 42.5607 126.579 42.4717 129.491 42.6806C148.677 44.062 161.652 58.7966 161.652 76.595Z" fill="#CF25BE"/>
<path d="M165.334 77.8214L164.464 71.375C164.249 69.747 163.466 68.2477 162.253 67.1423C161.475 66.4218 160.543 65.8879 159.528 65.5811C158.513 65.2743 157.442 65.2025 156.396 65.3714L155.012 65.5617C154.633 65.6116 154.268 65.7364 153.938 65.9287C153.608 66.1209 153.32 66.377 153.089 66.6819C152.857 66.9858 152.686 67.3328 152.589 67.7029C152.491 68.0729 152.467 68.4588 152.519 68.8381L154.53 83.6878C154.613 84.2931 154.884 84.8569 155.304 85.2994C155.725 85.742 156.274 86.0409 156.873 86.1539C157.051 86.1895 157.231 86.2073 157.413 86.207C157.543 86.207 157.673 86.1981 157.802 86.1805L159.349 85.9724C160.292 85.847 161.2 85.5298 162.016 85.0402C162.833 84.5507 163.541 83.8991 164.097 83.1255C164.216 82.9573 164.331 82.7846 164.437 82.6075C165.266 81.1588 165.582 79.4725 165.334 77.8214Z" fill="#B90CB9"/>
<path d="M154.119 65.8318C153.713 66.0293 153.36 66.3207 153.089 66.6819C152.857 66.9858 152.686 67.3328 152.589 67.7029C152.491 68.073 152.467 68.4588 152.519 68.8381L154.53 83.6878C154.613 84.2931 154.884 84.8569 155.304 85.2995C155.725 85.7421 156.274 86.041 156.873 86.1539L154.119 65.8318Z" fill="white"/>
<path d="M165.334 77.8214L164.464 71.375C164.249 69.7471 163.466 68.2477 162.253 67.1424L164.256 81.9168C164.286 82.154 164.347 82.3862 164.437 82.6075C165.266 81.1588 165.582 79.4725 165.334 77.8214Z" fill="#3F3D56"/>
<path d="M158.452 82.4661C159.056 82.3839 159.36 80.9423 159.131 79.2462C158.901 77.5501 158.224 76.2417 157.62 76.3239C157.015 76.4061 156.711 77.8477 156.94 79.5438C157.17 81.2399 157.847 82.5483 158.452 82.4661Z" fill="#3F3D56"/>
<path d="M157.125 74.4967C157.73 74.4145 158.034 72.9729 157.804 71.2768C157.575 69.5807 156.898 68.2723 156.293 68.3545C155.689 68.4367 155.384 69.8783 155.614 71.5744C155.844 73.2705 156.52 74.5789 157.125 74.4967Z" fill="#3F3D56"/>
<path d="M165.525 77.5959C166.13 77.5138 166.434 76.0722 166.204 74.3761C165.974 72.6799 165.298 71.3716 164.693 71.4537C164.088 71.5359 163.784 72.9775 164.014 74.6736C164.243 76.3698 164.92 77.6781 165.525 77.5959Z" fill="#3F3D56"/>
<path d="M126.22 48.8835C123.793 48.8764 121.372 49.1122 118.992 49.5874C116.313 50.1232 113.532 50.7651 110.8 51.6019C106.534 51.3938 103.396 50.287 102.763 48.5824C107.737 45.7045 113.806 43.8494 120.76 42.9462C123.654 42.5607 126.579 42.4717 129.491 42.6806C129.799 42.8616 130.066 43.1058 130.273 43.3973C130.48 43.6888 130.624 44.021 130.694 44.3719C130.901 45.9127 129.146 47.5508 126.22 48.8835Z" fill="#3F3D56"/>
<path d="M97.9979 91.9583L94.5939 77.786C94.4725 77.2747 94.203 76.8107 93.8192 76.4523C93.4354 76.0939 92.9544 75.857 92.4366 75.7715C92.2903 75.7487 92.1426 75.7369 91.9945 75.7361C91.786 75.7368 91.5783 75.7621 91.3756 75.8114L90.0583 76.1301C88.3621 76.541 86.898 77.609 85.9871 79.0997C85.0763 80.5905 84.7932 82.3823 85.1999 84.0819L86.725 90.4397C87.0733 91.9365 87.9026 93.2774 89.0857 94.2562C89.2774 94.4112 89.4782 94.5546 89.6869 94.6857C90.4279 95.1508 91.2545 95.4625 92.1178 95.6025C92.9811 95.7424 93.8636 95.7077 94.7133 95.5003L96.0262 95.1816C96.3734 95.1004 96.7 94.9482 96.9855 94.7344C97.4101 94.4243 97.7331 93.9949 97.9133 93.5006C98.0936 93.0063 98.123 92.4694 97.9979 91.9583Z" fill="#B90CB9"/>
<path d="M90.8618 89.3214C91.4553 89.1784 91.6122 87.7134 91.2123 86.0492C90.8125 84.3851 90.0073 83.152 89.4138 83.295C88.8204 83.438 88.6635 84.903 89.0633 86.5672C89.4632 88.2313 90.2684 89.4644 90.8618 89.3214Z" fill="#3F3D56"/>
<path d="M86.4411 90.6496C87.0345 90.5066 87.1915 89.0416 86.7916 87.3775C86.3917 85.7133 85.5865 84.4802 84.9931 84.6232C84.3996 84.7663 84.2427 86.2313 84.6426 87.8954C85.0424 89.5595 85.8477 90.7927 86.4411 90.6496Z" fill="#3F3D56"/>
<path d="M98.2145 91.9052L94.8105 77.7329C94.6779 77.1797 94.3853 76.6779 93.9693 76.2904C93.5534 75.903 93.0325 75.647 92.472 75.5546L97.1182 94.9115C97.577 94.5749 97.926 94.1098 98.1211 93.5747C98.3163 93.0397 98.3487 92.4587 98.2145 91.9052Z" fill="white"/>
<path d="M85.9691 81.2749C85.8751 80.8807 85.6989 80.511 85.4519 80.1901C84.9733 81.4312 84.8854 82.7893 85.1999 84.0819L86.725 90.4397C87.0733 91.9365 87.9026 93.2774 89.0857 94.2562L85.9691 81.2749Z" fill="#3F3D56"/>
</g>
<defs>
<clipPath id="clip0_20_229">
<rect width="376" height="328" fill="white"/>
</clipPath>
</defs>
</svg>
