<svg width="519" height="307" viewBox="0 0 519 307" fill="none" xmlns="http://www.w3.org/2000/svg">
<g clip-path="url(#clip0_20_118)">
<path d="M119.614 286.876L127.949 284.24C128.988 279.778 128.919 275.131 127.749 270.703C124.4 278.128 114.576 279.948 108.978 285.874C107.246 287.736 105.957 289.963 105.205 292.389C104.454 294.816 104.26 297.38 104.637 299.891L102.883 305.824C106.979 305.475 110.95 304.244 114.523 302.218C118.096 300.191 121.186 297.415 123.58 294.083C124.904 292.2 125.985 290.158 126.798 288.006C123.244 287.651 119.614 286.876 119.614 286.876Z" fill="#F2F2F2"/>
<path d="M414.997 286.876L406.661 284.24C405.623 279.778 405.692 275.131 406.862 270.703C410.211 278.128 420.035 279.948 425.633 285.874C427.364 287.736 428.654 289.963 429.405 292.389C430.157 294.816 430.351 297.38 429.974 299.891L431.728 305.824C427.632 305.475 423.661 304.244 420.088 302.218C416.515 300.191 413.425 297.415 411.031 294.083C409.707 292.2 408.625 290.158 407.813 288.006C411.367 287.651 414.997 286.876 414.997 286.876Z" fill="#F2F2F2"/>
<path d="M110.708 275.906L116.989 269.839C115.923 265.383 113.784 261.255 110.756 257.812C111.079 265.947 103.099 271.945 100.74 279.74C100.022 282.177 99.864 284.743 100.276 287.249C100.689 289.755 101.661 292.136 103.122 294.216L104.206 300.306C107.715 298.172 110.719 295.305 113.011 291.901C115.302 288.498 116.827 284.64 117.479 280.592C117.823 278.318 117.878 276.009 117.643 273.721C114.302 274.985 110.708 275.906 110.708 275.906Z" fill="#F2F2F2"/>
<path d="M127.5 162.94C126.814 163.031 126.116 162.972 125.455 162.766C124.795 162.559 124.187 162.211 123.676 161.745C123.165 161.279 122.763 160.707 122.497 160.07C122.232 159.432 122.11 158.744 122.14 158.054L91.8651 127.419L100.317 121.551L127.418 153.51C128.577 153.637 129.648 154.183 130.43 155.046C131.212 155.908 131.649 157.026 131.659 158.189C131.669 159.351 131.251 160.477 130.485 161.352C129.718 162.228 128.656 162.793 127.5 162.94L127.5 162.94Z" fill="#FFB6B6"/>
<path d="M82.5514 114.167C82.5514 114.167 80.4057 115.45 83.977 119.356C86.8361 122.483 99.3125 137.516 104.293 140.655C104.022 141.433 104.019 142.279 104.284 143.059C104.549 143.839 105.066 144.509 105.754 144.963L113.411 135.434C112.974 132.702 111.127 132.841 110.089 133.173L105.285 127.218L94.4009 109.01L84.0859 113.213L82.5514 114.167Z" fill="#6C63FF"/>
<path d="M58.642 296.708H64.3497L67.0661 274.752H58.642V296.708Z" fill="#FFB6B6"/>
<path d="M56.7794 292.809L65.898 292.267V296.163L74.5672 302.134C74.9955 302.429 75.3179 302.853 75.4876 303.343C75.6573 303.834 75.6653 304.366 75.5105 304.861C75.3556 305.357 75.046 305.79 74.6268 306.097C74.2077 306.405 73.7009 306.571 73.1806 306.571H62.3246L60.4534 302.717L59.7228 306.571H55.6296L56.7794 292.809Z" fill="#2F2E41"/>
<path d="M90.7023 296.708H96.4101L99.1264 274.752H90.7023V296.708Z" fill="#FFB6B6"/>
<path d="M88.8397 292.809L97.9583 292.267V296.163L106.628 302.134C107.056 302.429 107.378 302.853 107.548 303.343C107.718 303.834 107.726 304.366 107.571 304.861C107.416 305.357 107.106 305.79 106.687 306.097C106.268 306.405 105.761 306.571 105.241 306.571H94.3849L92.5137 302.717L91.7831 306.571H87.69L88.8397 292.809Z" fill="#2F2E41"/>
<path d="M56.1795 277.774H56.2416L57.3392 242.075C56.6289 240.708 56.2684 239.188 56.2898 237.649C56.3112 236.11 56.7139 234.6 57.462 233.254L57.6192 232.97L57.2117 231.086C56.6884 228.666 56.9285 226.143 57.8993 223.865L58.9233 190.564C55.2648 166.918 72.6999 151.497 72.6999 151.497L69.5138 138.13L101.057 135.036L98.8178 151.497L104.425 170.71C108.132 206.728 107.459 241.826 101.577 275.83L101.737 275.911C102.315 276.11 102.562 276.907 102.291 277.693C102.019 278.478 101.33 278.954 100.753 278.755L86.9597 278.276C86.3823 278.078 86.1346 277.28 86.4065 276.494C86.6782 275.709 87.3667 275.234 87.9441 275.432L88.882 275.906L86.8818 241.457L87.1038 235.165L86.6465 228.026L84.5323 195.918L76.5295 235.402L68.3551 278.172C68.5805 278.375 68.7388 278.642 68.8089 278.937C68.879 279.233 68.8578 279.542 68.748 279.825C68.6381 280.108 68.4449 280.351 68.1937 280.522C67.9425 280.693 67.6452 280.784 67.3411 280.783H56.1795C55.7795 280.783 55.3958 280.625 55.1129 280.342C54.83 280.06 54.6711 279.678 54.6711 279.279C54.6711 278.88 54.83 278.497 55.1129 278.215C55.3958 277.933 55.7795 277.774 56.1795 277.774Z" fill="#2F2E41"/>
<path d="M358.654 145.283H163.568C157.009 145.276 150.72 142.674 146.082 138.048C141.444 133.423 138.835 127.151 138.827 120.609V36.977C138.835 30.4474 141.434 24.1863 146.057 19.5626C150.68 14.9389 156.95 12.3288 163.497 12.3028C193.795 3.93907 225.965 -0.197716 259.128 0.00725921C290.685 0.202415 324.189 4.3392 358.714 12.3028C365.263 12.3261 371.536 14.935 376.161 19.559C380.786 24.1829 383.387 30.4455 383.395 36.977V120.609C383.387 127.151 380.779 133.423 376.14 138.048C371.502 142.674 365.214 145.276 358.654 145.283ZM163.568 13.3342C157.283 13.3413 151.257 15.8346 146.813 20.2669C142.369 24.6992 139.869 30.7087 139.862 36.977V120.609C139.869 126.877 142.369 132.887 146.813 137.319C151.257 141.752 157.283 144.245 163.568 144.252H358.654C364.94 144.245 370.965 141.752 375.409 137.319C379.854 132.887 382.354 126.877 382.361 120.609V36.977C382.354 30.7087 379.854 24.6992 375.409 20.2669C370.965 15.8346 364.94 13.3413 358.654 13.3342L358.538 13.3209C287.095 -3.16633 223.365 -3.16859 163.706 13.3156L163.568 13.3342Z" fill="#E6E6E6"/>
<path d="M160.127 123.457C160.05 123.457 159.974 123.442 159.903 123.413C159.832 123.383 159.767 123.34 159.713 123.286C159.658 123.232 159.615 123.167 159.586 123.097C159.556 123.026 159.541 122.95 159.541 122.873V34.7128C159.541 34.5579 159.603 34.4094 159.713 34.2999C159.823 34.1904 159.971 34.1289 160.127 34.1289C160.282 34.1289 160.431 34.1904 160.541 34.2999C160.65 34.4094 160.712 34.5579 160.712 34.7128V122.873C160.712 122.95 160.697 123.026 160.668 123.097C160.638 123.167 160.595 123.232 160.541 123.286C160.486 123.34 160.422 123.383 160.351 123.413C160.28 123.442 160.204 123.457 160.127 123.457Z" fill="#E6E6E6"/>
<path d="M211.32 123.457C211.243 123.457 211.167 123.442 211.096 123.413C211.025 123.383 210.96 123.34 210.906 123.286C210.851 123.232 210.808 123.167 210.779 123.097C210.75 123.026 210.734 122.95 210.734 122.873V34.7128C210.734 34.5579 210.796 34.4094 210.906 34.2999C211.016 34.1904 211.165 34.1289 211.32 34.1289C211.475 34.1289 211.624 34.1904 211.734 34.2999C211.844 34.4094 211.905 34.5579 211.905 34.7128V122.873C211.905 122.95 211.89 123.026 211.861 123.097C211.831 123.167 211.788 123.232 211.734 123.286C211.679 123.34 211.615 123.383 211.544 123.413C211.473 123.442 211.397 123.457 211.32 123.457Z" fill="#E6E6E6"/>
<path d="M262.513 123.457C262.436 123.457 262.36 123.442 262.289 123.413C262.218 123.383 262.153 123.34 262.099 123.286C262.045 123.232 262.001 123.167 261.972 123.097C261.943 123.026 261.928 122.95 261.928 122.873V34.7128C261.928 34.5579 261.989 34.4094 262.099 34.2999C262.209 34.1904 262.358 34.1289 262.513 34.1289C262.668 34.1289 262.817 34.1904 262.927 34.2999C263.037 34.4094 263.098 34.5579 263.098 34.7128V122.873C263.098 122.95 263.083 123.026 263.054 123.097C263.024 123.167 262.981 123.232 262.927 123.286C262.873 123.34 262.808 123.383 262.737 123.413C262.666 123.442 262.59 123.457 262.513 123.457Z" fill="#E6E6E6"/>
<path d="M313.706 123.457C313.629 123.457 313.553 123.442 313.482 123.413C313.411 123.383 313.346 123.34 313.292 123.286C313.238 123.232 313.195 123.167 313.165 123.097C313.136 123.026 313.121 122.95 313.121 122.873V34.7128C313.121 34.5579 313.182 34.4094 313.292 34.2999C313.402 34.1904 313.551 34.1289 313.706 34.1289C313.861 34.1289 314.01 34.1904 314.12 34.2999C314.23 34.4094 314.292 34.5579 314.292 34.7128V122.873C314.292 122.95 314.276 123.026 314.247 123.097C314.218 123.167 314.174 123.232 314.12 123.286C314.066 123.34 314.001 123.383 313.93 123.413C313.859 123.442 313.783 123.457 313.706 123.457Z" fill="#E6E6E6"/>
<path d="M155.567 47.8502C155.567 47.7735 155.582 47.6976 155.612 47.6268C155.641 47.5559 155.684 47.4915 155.739 47.4373C155.793 47.3831 155.858 47.3401 155.929 47.3108C156 47.2814 156.076 47.2663 156.153 47.2664H366.07C366.146 47.2664 366.223 47.2815 366.294 47.3108C366.365 47.3401 366.429 47.3831 366.484 47.4374C366.538 47.4916 366.581 47.5559 366.61 47.6268C366.64 47.6976 366.655 47.7735 366.655 47.8502C366.655 47.9269 366.64 48.0028 366.61 48.0736C366.581 48.1445 366.538 48.2088 366.484 48.263C366.429 48.3173 366.365 48.3603 366.294 48.3896C366.223 48.419 366.146 48.4341 366.07 48.4341H156.153C156.076 48.4341 156 48.419 155.929 48.3897C155.858 48.3603 155.793 48.3173 155.739 48.2631C155.684 48.2089 155.641 48.1445 155.612 48.0737C155.582 48.0028 155.567 47.9269 155.567 47.8502Z" fill="#E6E6E6"/>
<path d="M155.567 112.83C155.567 112.753 155.582 112.677 155.612 112.607C155.641 112.536 155.684 112.471 155.739 112.417C155.793 112.363 155.858 112.32 155.929 112.291C156 112.261 156.076 112.246 156.153 112.246H366.07C366.225 112.246 366.374 112.308 366.484 112.417C366.593 112.527 366.655 112.675 366.655 112.83C366.655 112.985 366.593 113.133 366.484 113.243C366.374 113.352 366.225 113.414 366.07 113.414H156.153C156.076 113.414 156 113.399 155.929 113.369C155.858 113.34 155.793 113.297 155.739 113.243C155.684 113.189 155.641 113.124 155.612 113.054C155.582 112.983 155.567 112.907 155.567 112.83Z" fill="#E6E6E6"/>
<path d="M155.567 80.3402C155.567 80.2635 155.582 80.1876 155.612 80.1167C155.641 80.0459 155.684 79.9815 155.739 79.9273C155.793 79.8731 155.858 79.8301 155.929 79.8007C156 79.7714 156.076 79.7563 156.153 79.7563H366.07C366.225 79.7563 366.374 79.8179 366.484 79.9273C366.593 80.0368 366.655 80.1853 366.655 80.3402C366.655 80.495 366.593 80.6435 366.484 80.753C366.374 80.8625 366.225 80.924 366.07 80.924H156.153C156.076 80.9241 156 80.909 155.929 80.8796C155.858 80.8503 155.793 80.8073 155.739 80.7531C155.684 80.6989 155.641 80.6345 155.612 80.5636C155.582 80.4928 155.567 80.4169 155.567 80.3402Z" fill="#E6E6E6"/>
<path d="M363.266 123.457C363.343 123.457 363.419 123.442 363.49 123.413C363.561 123.383 363.626 123.34 363.68 123.286C363.735 123.232 363.778 123.167 363.807 123.097C363.837 123.026 363.852 122.95 363.852 122.873V34.7128C363.852 34.5579 363.79 34.4094 363.68 34.2999C363.57 34.1904 363.422 34.1289 363.266 34.1289C363.111 34.1289 362.962 34.1904 362.852 34.2999C362.743 34.4094 362.681 34.5579 362.681 34.7128V122.873C362.681 122.95 362.696 123.026 362.725 123.097C362.755 123.167 362.798 123.232 362.852 123.286C362.907 123.34 362.971 123.383 363.042 123.413C363.113 123.442 363.189 123.457 363.266 123.457Z" fill="#E6E6E6"/>
<path d="M192.058 76.3845H177.313C176.502 76.3839 175.719 76.0915 175.107 75.561C174.494 75.0305 174.095 74.2975 173.981 73.4967C173.07 66.815 173.07 60.0411 173.981 53.3594C174.093 52.5682 174.485 51.8429 175.085 51.3138C175.686 50.7846 176.456 50.4862 177.257 50.4721C181.896 48.3982 186.892 48.3985 192.109 50.4719C192.595 50.4783 193.074 50.5907 193.511 50.8012C193.949 51.0117 194.335 51.3152 194.643 51.6904C194.963 52.0807 195.193 52.5373 195.314 53.0272C195.436 53.517 195.447 54.0276 195.346 54.522C194.161 60.4006 194.161 66.4555 195.346 72.334C195.447 72.8285 195.436 73.3391 195.314 73.829C195.193 74.3188 194.963 74.7754 194.643 75.1657C194.33 75.5475 193.935 75.855 193.488 76.0658C193.041 76.2766 192.553 76.3855 192.058 76.3845Z" fill="#6C63FF"/>
<path d="M190.514 58.1494H178.104C177.898 58.1494 177.701 58.0679 177.555 57.9229C177.41 57.7778 177.328 57.581 177.328 57.3759C177.328 57.1707 177.41 56.974 177.555 56.8289C177.701 56.6838 177.898 56.6023 178.104 56.6023H190.514C190.72 56.6023 190.917 56.6838 191.063 56.8289C191.208 56.974 191.29 57.1707 191.29 57.3759C191.29 57.581 191.208 57.7778 191.063 57.9229C190.917 58.0679 190.72 58.1494 190.514 58.1494Z" fill="white"/>
<path d="M190.514 64.338H178.104C177.898 64.338 177.701 64.2565 177.555 64.1115C177.41 63.9664 177.328 63.7696 177.328 63.5645C177.328 63.3593 177.41 63.1625 177.555 63.0175C177.701 62.8724 177.898 62.7909 178.104 62.7909H190.514C190.72 62.7909 190.917 62.8724 191.063 63.0175C191.208 63.1625 191.29 63.3593 191.29 63.5645C191.29 63.7696 191.208 63.9664 191.063 64.1115C190.917 64.2565 190.72 64.338 190.514 64.338Z" fill="white"/>
<path d="M190.514 70.5265H178.104C177.898 70.5265 177.701 70.445 177.555 70.2999C177.41 70.1549 177.328 69.9581 177.328 69.7529C177.328 69.5478 177.41 69.351 177.555 69.206C177.701 69.0609 177.898 68.9794 178.104 68.9794H190.514C190.72 68.9794 190.917 69.0609 191.063 69.206C191.208 69.351 191.29 69.5478 191.29 69.7529C191.29 69.9581 191.208 70.1549 191.063 70.2999C190.917 70.445 190.72 70.5265 190.514 70.5265Z" fill="white"/>
<path d="M298.064 110.422H283.319C282.508 110.421 281.725 110.129 281.113 109.598C280.5 109.068 280.101 108.335 279.987 107.534C279.076 100.852 279.076 94.0782 279.987 87.3965C280.099 86.6053 280.491 85.88 281.091 85.3509C281.692 84.8217 282.462 84.5233 283.263 84.5092C287.902 82.4353 292.898 82.4356 298.115 84.509C298.601 84.5154 299.08 84.6278 299.517 84.8383C299.955 85.0489 300.341 85.3523 300.649 85.7275C300.969 86.1178 301.199 86.5744 301.32 87.0643C301.442 87.5541 301.453 88.0647 301.352 88.5592C300.167 94.4377 300.167 100.493 301.352 106.371C301.453 106.866 301.442 107.376 301.32 107.866C301.199 108.356 300.969 108.813 300.649 109.203C300.336 109.585 299.941 109.892 299.494 110.103C299.047 110.314 298.559 110.423 298.064 110.422Z" fill="#6C63FF"/>
<path d="M296.52 92.1864H284.11C283.904 92.1864 283.707 92.1049 283.561 91.9599C283.416 91.8148 283.334 91.618 283.334 91.4129C283.334 91.2077 283.416 91.0109 283.561 90.8659C283.707 90.7208 283.904 90.6393 284.11 90.6393H296.52C296.726 90.6393 296.923 90.7208 297.069 90.8659C297.214 91.0109 297.296 91.2077 297.296 91.4129C297.296 91.618 297.214 91.8148 297.069 91.9599C296.923 92.1049 296.726 92.1864 296.52 92.1864Z" fill="white"/>
<path d="M296.52 98.375H284.11C283.904 98.375 283.707 98.2935 283.561 98.1485C283.416 98.0034 283.334 97.8066 283.334 97.6015C283.334 97.3963 283.416 97.1995 283.561 97.0545C283.707 96.9094 283.904 96.8279 284.11 96.8279H296.52C296.726 96.8279 296.923 96.9094 297.069 97.0545C297.214 97.1995 297.296 97.3963 297.296 97.6015C297.296 97.8066 297.214 98.0034 297.069 98.1485C296.923 98.2935 296.726 98.375 296.52 98.375Z" fill="white"/>
<path d="M343.052 76.3845H328.307C327.496 76.3839 326.713 76.0915 326.1 75.561C325.488 75.0305 325.088 74.2975 324.975 73.4967C324.064 66.815 324.064 60.0411 324.975 53.3594C325.087 52.5682 325.479 51.8429 326.079 51.3138C326.68 50.7846 327.449 50.4862 328.251 50.4721C332.89 48.3982 337.886 48.3985 343.103 50.4719C343.589 50.4783 344.067 50.5907 344.505 50.8012C344.943 51.0117 345.329 51.3152 345.636 51.6904C345.957 52.0807 346.187 52.5373 346.308 53.0272C346.43 53.517 346.44 54.0276 346.339 54.522C345.155 60.4006 345.155 66.4555 346.339 72.334C346.44 72.8285 346.43 73.3391 346.308 73.829C346.187 74.3188 345.957 74.7754 345.636 75.1657C345.323 75.5475 344.929 75.855 344.482 76.0658C344.035 76.2766 343.547 76.3855 343.052 76.3845Z" fill="#FD6584"/>
<path d="M341.508 64.338H329.097C328.892 64.338 328.695 64.2565 328.549 64.1115C328.404 63.9664 328.322 63.7696 328.322 63.5645C328.322 63.3593 328.404 63.1625 328.549 63.0175C328.695 62.8724 328.892 62.7909 329.097 62.7909H341.508C341.714 62.7909 341.911 62.8724 342.056 63.0175C342.202 63.1625 342.284 63.3593 342.284 63.5645C342.284 63.7696 342.202 63.9664 342.056 64.1115C341.911 64.2565 341.714 64.338 341.508 64.338Z" fill="white"/>
<path d="M341.508 70.5265H329.097C328.892 70.5265 328.695 70.445 328.549 70.2999C328.404 70.1549 328.322 69.9581 328.322 69.7529C328.322 69.5478 328.404 69.351 328.549 69.206C328.695 69.0609 328.892 68.9794 329.097 68.9794H341.508C341.714 68.9794 341.911 69.0609 342.056 69.206C342.202 69.351 342.284 69.5478 342.284 69.7529C342.284 69.9581 342.202 70.1549 342.056 70.2999C341.911 70.445 341.714 70.5265 341.508 70.5265Z" fill="white"/>
<path d="M94.1623 74.1083C91.2286 69.6247 86.4386 66.1013 81.1042 65.8036C75.7695 65.5059 69.3585 70.0365 66.7256 74.6984C61.9096 83.2259 61.8464 93.0046 68.4796 98.9356C69.3804 98.6308 73.1273 98.194 74.0431 97.8999L74.6238 96.854L75.3402 97.4898C83.5377 98.3055 86.0611 92.747 99.1777 89.2423C98.4106 83.9411 97.0961 78.5918 94.1623 74.1083Z" fill="#2F2E41"/>
<path d="M82.9017 95.226C88.8887 95.226 93.742 90.3857 93.742 84.4148C93.742 78.444 88.8887 73.6036 82.9017 73.6036C76.9148 73.6036 72.0614 78.444 72.0614 84.4148C72.0614 90.3857 76.9148 95.226 82.9017 95.226Z" fill="#FFB7B7"/>
<path d="M94.9135 104.502L88.7102 100.79L76.3036 99.553L65.338 105.122L65.4479 122.134L72.4044 139.779L99.5057 145.35L102.668 129.843C102.668 129.843 110.732 119.041 102.047 112.854L94.9135 104.502Z" fill="#6C63FF"/>
<path d="M86.9546 67.9958C84.6058 67.3391 82.1231 67.3237 79.7662 67.9514C77.4094 68.5791 75.2649 69.8268 73.557 71.5639C71.8491 73.3011 70.6405 75.464 70.0577 77.8264C69.4748 80.1888 69.5391 82.6641 70.2437 84.9933C76.846 85.5188 83.372 84.904 88.5164 80.2454L88.9742 76.2493L90.8513 79.5934C92.7445 79.0622 94.6406 78.5278 96.5397 77.99C95.9589 75.6332 94.7679 73.4698 93.0858 71.7159C91.4038 69.9621 89.2896 68.6793 86.9546 67.9958Z" fill="#2F2E41"/>
<path d="M68.3598 177.956C67.7704 177.593 67.2677 177.107 66.8872 176.53C66.5066 175.953 66.2576 175.3 66.1575 174.617C66.0574 173.934 66.1087 173.237 66.3077 172.576C66.5068 171.915 66.8489 171.305 67.3098 170.79L63.3095 127.962L73.5769 128.753L74.2805 170.603C75.0969 171.432 75.5799 172.532 75.6378 173.693C75.6957 174.854 75.3246 175.996 74.5948 176.902C73.865 177.808 72.8272 178.416 71.6781 178.61C70.5289 178.804 69.3482 178.571 68.3598 177.956H68.3598Z" fill="#FFB6B6"/>
<path d="M65.7182 105.293C65.7182 105.293 63.243 104.932 63.5297 110.21C63.7592 114.435 62.6683 140.48 64.5324 146.054C63.8293 146.486 63.2903 147.138 63.0003 147.909C62.7102 148.68 62.6856 149.526 62.9304 150.312L74.9057 147.767C76.3007 145.375 76.0117 142.92 74.9978 142.522L75.0573 134.879L77.704 109.686L67.5121 105.522L65.7182 105.293Z" fill="#6C63FF"/>
<path d="M126.922 181.918C126.601 181.528 126.372 181.071 126.25 180.582C126.129 180.092 126.118 179.581 126.219 179.087C127.404 173.208 127.404 167.153 126.219 161.275C126.118 160.78 126.129 160.27 126.25 159.78C126.372 159.29 126.601 158.833 126.922 158.443C127.23 158.068 127.616 157.764 128.053 157.554C128.491 157.343 128.97 157.231 129.456 157.225C134.673 155.151 139.669 155.151 144.308 157.225C145.109 157.239 145.879 157.537 146.479 158.066C147.08 158.596 147.471 159.321 147.584 160.112C148.494 166.794 148.494 173.568 147.584 180.249C147.47 181.05 147.07 181.783 146.458 182.314C145.846 182.844 145.062 183.137 144.251 183.137H129.506C129.012 183.138 128.523 183.029 128.076 182.818C127.629 182.608 127.235 182.3 126.922 181.918Z" fill="#6C63FF"/>
<path d="M131.051 164.902H143.461C143.667 164.902 143.864 164.82 144.009 164.675C144.155 164.53 144.237 164.334 144.237 164.128C144.237 163.923 144.155 163.727 144.009 163.581C143.864 163.436 143.667 163.355 143.461 163.355H131.051C130.845 163.355 130.648 163.436 130.502 163.581C130.357 163.727 130.275 163.923 130.275 164.128C130.275 164.334 130.357 164.53 130.502 164.675C130.648 164.82 130.845 164.902 131.051 164.902Z" fill="white"/>
<path d="M131.051 171.091H143.461C143.667 171.091 143.864 171.009 144.009 170.864C144.155 170.719 144.237 170.522 144.237 170.317C144.237 170.112 144.155 169.915 144.009 169.77C143.864 169.625 143.667 169.543 143.461 169.543H131.051C130.845 169.543 130.648 169.625 130.502 169.77C130.357 169.915 130.275 170.112 130.275 170.317C130.275 170.522 130.357 170.719 130.502 170.864C130.648 171.009 130.845 171.091 131.051 171.091Z" fill="white"/>
<path d="M131.051 177.279H143.461C143.667 177.279 143.864 177.198 144.009 177.052C144.155 176.907 144.237 176.711 144.237 176.505C144.237 176.3 144.155 176.104 144.009 175.959C143.864 175.813 143.667 175.732 143.461 175.732H131.051C130.845 175.732 130.648 175.813 130.502 175.959C130.357 176.104 130.275 176.3 130.275 176.505C130.275 176.711 130.357 176.907 130.502 177.052C130.648 177.198 130.845 177.279 131.051 177.279Z" fill="white"/>
<path d="M472.161 300.422H465.802L462.776 275.956L472.162 275.957L472.161 300.422Z" fill="#FBBEBE"/>
<path d="M473.783 306.57L453.276 306.57V306.311C453.276 304.2 454.117 302.175 455.614 300.682C457.111 299.189 459.141 298.351 461.258 298.351H461.259L465.005 295.516L471.994 298.351L473.784 298.351L473.783 306.57Z" fill="#2F2E41"/>
<path d="M442.614 300.422H436.254L433.229 275.956L442.615 275.957L442.614 300.422Z" fill="#FBBEBE"/>
<path d="M444.236 306.57L423.729 306.57V306.311C423.729 304.2 424.57 302.175 426.067 300.682C427.564 299.189 429.594 298.351 431.711 298.351H431.711L435.457 295.516L442.446 298.351L444.236 298.351L444.236 306.57Z" fill="#2F2E41"/>
<path d="M477.224 143.784L468.816 169.568L442.31 168.702L450.455 143.784H477.224Z" fill="#2F2E41"/>
<path d="M437.53 166.535L487.5 167.835L486.631 192.103C486.631 192.103 487.5 198.603 485.762 200.336C484.024 202.07 483.155 202.07 484.024 205.103C484.893 208.137 480.301 213.091 480.859 213.647C481.417 214.204 482.72 217.237 482.72 217.237L478.375 241.938C478.375 241.938 475.334 284.84 474.465 285.707C473.595 286.573 472.726 285.707 473.595 287.874C474.465 290.04 475.334 289.174 474.465 290.04C473.695 290.868 472.97 291.736 472.292 292.64H461.786C461.786 292.64 460.994 288.307 460.994 287.874C460.994 287.44 460.125 284.84 460.125 284.407C460.125 283.973 460.893 283.207 460.893 283.207C461.159 282.326 461.338 281.422 461.429 280.507C461.429 279.64 464.036 246.272 464.036 246.272L458.822 202.936L446.221 245.405C446.221 245.405 446.221 282.673 445.352 283.54C444.483 284.407 444.483 283.973 444.917 285.707C445.352 287.44 447.09 287.007 445.786 288.307C444.483 289.607 444.048 287.44 444.483 289.607L444.917 291.774L431.882 291.96C431.882 291.96 430.143 288.307 431.013 287.007C431.882 285.707 431.829 286.062 430.769 283.934C429.709 281.807 429.274 281.373 429.709 280.94C430.143 280.507 430.143 278.202 430.143 278.202L432.316 236.738C432.316 236.738 432.751 192.969 432.751 191.669C432.783 191 432.66 190.333 432.39 189.72V187.955L434.054 181.702L437.53 166.535Z" fill="#2F2E41"/>
<path d="M442.093 103.482L457.301 97.8483L482.503 99.5817L488.339 102.298C490.391 103.253 492.062 104.869 493.083 106.885C494.103 108.902 494.414 111.202 493.966 113.416L486.414 150.717L488.367 168.664C488.367 168.664 456.649 192.536 431.882 185.169C431.882 185.169 432.316 178.235 432.751 175.635C433.185 173.035 434.054 173.035 434.489 171.735C434.923 170.435 435.792 171.735 434.923 169.135C434.054 166.535 441.875 148.334 441.875 148.334L442.093 103.482Z" fill="#DE22CB"/>
<path d="M466.131 106.779L478.529 99.3083L474.465 91.998H461.294L456.076 98.3016L466.131 106.779Z" fill="#DE22CB"/>
<path d="M470.397 168.203C471.105 168.244 471.814 168.129 472.473 167.867C473.132 167.606 473.725 167.203 474.211 166.687C474.697 166.172 475.064 165.557 475.285 164.885C475.507 164.213 475.578 163.5 475.494 162.798L490.999 155.273L483.29 150.718L469.748 158.562C468.575 158.781 467.522 159.422 466.79 160.364C466.059 161.305 465.699 162.482 465.779 163.67C465.859 164.858 466.373 165.976 467.224 166.812C468.075 167.647 469.204 168.142 470.397 168.203Z" fill="#FBBEBE"/>
<path d="M476.488 165.079L473.787 155.201L488.507 135.751C483.742 130.022 482.07 121.562 483.246 109.157C482.986 107.819 483.244 106.433 483.969 105.277C484.693 104.122 485.83 103.284 487.15 102.932C488.471 102.58 489.875 102.74 491.082 103.381C492.288 104.022 493.205 105.095 493.649 106.384C496.98 116.073 502.775 136.924 502.02 138.054C501.151 139.354 500.853 139.931 502.22 141.174C503.841 142.646 502.981 148.924 502.241 149.824C501.567 150.645 476.488 165.079 476.488 165.079Z" fill="#DE22CB"/>
<path d="M398.555 152.86C399.217 153.116 399.926 153.223 400.634 153.176C401.342 153.128 402.03 152.926 402.651 152.584C403.273 152.243 403.811 151.769 404.229 151.197C404.646 150.626 404.933 149.97 405.069 149.275L422.141 146.857L416.205 140.163L400.904 143.485C399.719 143.335 398.52 143.623 397.534 144.295C396.548 144.967 395.844 145.977 395.554 147.132C395.265 148.288 395.41 149.509 395.963 150.565C396.516 151.621 397.439 152.437 398.555 152.86Z" fill="#FBBEBE"/>
<path d="M405.88 151.437L408.472 141.529L429.934 129.47C431.485 119.672 432.458 116.477 439.673 106.305C440.116 105.016 441.032 103.942 442.238 103.3C443.443 102.658 444.848 102.496 446.168 102.847C447.489 103.197 448.627 104.034 449.352 105.189C450.078 106.344 450.338 107.73 450.079 109.068C448.127 119.125 439.299 146.075 438.208 146.489C437.213 146.865 405.88 151.437 405.88 151.437Z" fill="#DE22CB"/>
<path d="M467.729 87.4477C475.169 87.4477 481.2 81.4331 481.2 74.0138C481.2 66.5944 475.169 60.5798 467.729 60.5798C460.29 60.5798 454.259 66.5944 454.259 74.0138C454.259 81.4331 460.29 87.4477 467.729 87.4477Z" fill="#FBBEBE"/>
<path d="M453.465 64.2683C453.823 61.0554 458.476 57.8425 466.709 55.7005C474.942 53.5586 479.237 62.8403 479.237 62.8403C484.965 65.6962 481.564 80.8683 479.774 79.4404C479.757 79.4261 479.739 79.4122 479.721 79.3986C478.554 78.5414 477.574 77.4558 476.842 76.2082C476.109 74.9606 475.64 73.5772 475.461 72.1425L475.05 68.4452C473.164 69.8861 471.039 71.1061 468.758 70.7435L471.55 68.0022C468.904 69.1503 466.258 70.2984 463.612 71.4465L466.24 67.8406L466.116 67.7188C464.886 68.7533 463.474 69.5507 461.951 70.0704C460.215 70.5667 458.135 70.2982 456.945 68.9428C456.625 68.5688 456.383 68.1345 456.234 67.6657C454.074 69.1412 453.644 72.3006 453.644 72.3006C453.644 72.3006 453.107 67.4812 453.465 64.2683Z" fill="#2F2E41"/>
<path d="M399.416 161.585H384.671C383.86 161.584 383.077 161.292 382.465 160.761C381.852 160.231 381.453 159.498 381.339 158.697C380.428 152.015 380.428 145.241 381.339 138.56C381.451 137.768 381.843 137.043 382.443 136.514C383.044 135.985 383.814 135.686 384.615 135.672C389.254 133.598 394.25 133.599 399.467 135.672C399.953 135.679 400.432 135.791 400.869 136.001C401.307 136.212 401.693 136.515 402.001 136.891C402.321 137.281 402.551 137.738 402.672 138.227C402.794 138.717 402.805 139.228 402.704 139.722C401.519 145.601 401.519 151.656 402.704 157.534C402.805 158.029 402.794 158.539 402.672 159.029C402.551 159.519 402.321 159.976 402.001 160.366C401.688 160.748 401.293 161.055 400.846 161.266C400.399 161.477 399.911 161.586 399.416 161.585Z" fill="#3F3D56"/>
<path d="M397.872 143.35H385.462C385.256 143.35 385.059 143.268 384.913 143.123C384.768 142.978 384.686 142.781 384.686 142.576C384.686 142.371 384.768 142.174 384.913 142.029C385.059 141.884 385.256 141.802 385.462 141.802H397.872C398.078 141.802 398.275 141.884 398.421 142.029C398.566 142.174 398.648 142.371 398.648 142.576C398.648 142.781 398.566 142.978 398.421 143.123C398.275 143.268 398.078 143.35 397.872 143.35Z" fill="white"/>
<path d="M397.872 149.538H385.462C385.256 149.538 385.059 149.457 384.913 149.312C384.768 149.167 384.686 148.97 384.686 148.765C384.686 148.559 384.768 148.363 384.913 148.218C385.059 148.073 385.256 147.991 385.462 147.991H397.872C398.078 147.991 398.275 148.073 398.421 148.218C398.566 148.363 398.648 148.559 398.648 148.765C398.648 148.97 398.566 149.167 398.421 149.312C398.275 149.457 398.078 149.538 397.872 149.538Z" fill="white"/>
<path d="M397.872 155.727H385.462C385.256 155.727 385.059 155.645 384.913 155.5C384.768 155.355 384.686 155.158 384.686 154.953C384.686 154.748 384.768 154.551 384.913 154.406C385.059 154.261 385.256 154.18 385.462 154.18H397.872C398.078 154.18 398.275 154.261 398.421 154.406C398.566 154.551 398.648 154.748 398.648 154.953C398.648 155.158 398.566 155.355 398.421 155.5C398.275 155.645 398.078 155.727 397.872 155.727Z" fill="white"/>
<path d="M336.339 37.5657C341.765 37.5657 346.163 33.1788 346.163 27.7672C346.163 22.3556 341.765 17.9686 336.339 17.9686C330.912 17.9686 326.514 22.3556 326.514 27.7672C326.514 33.1788 330.912 37.5657 336.339 37.5657Z" fill="#E6E6E6"/>
<path d="M341.382 23.6834C341.234 23.5428 341.038 23.4644 340.834 23.4644C340.629 23.4644 340.433 23.5428 340.285 23.6834C338.2 25.3416 336.328 27.2491 334.71 29.3629C334.313 28.5963 333.915 27.8298 333.518 27.0632C333.06 26.1784 331.721 26.96 332.179 27.8441C332.76 28.9653 333.341 30.0865 333.922 31.2077C333.992 31.3222 334.09 31.4168 334.208 31.4824C334.325 31.548 334.457 31.5825 334.592 31.5825C334.726 31.5825 334.858 31.548 334.975 31.4824C335.093 31.4168 335.191 31.3222 335.261 31.2077C336.986 28.7857 339.047 26.6206 341.382 24.7774C341.526 24.6318 341.607 24.4352 341.607 24.2304C341.607 24.0256 341.526 23.8291 341.382 23.6834Z" fill="white"/>
<path d="M288.248 37.5657C293.674 37.5657 298.073 33.1788 298.073 27.7672C298.073 22.3556 293.674 17.9686 288.248 17.9686C282.822 17.9686 278.423 22.3556 278.423 27.7672C278.423 33.1788 282.822 37.5657 288.248 37.5657Z" fill="#E6E6E6"/>
<path d="M293.292 23.6834C293.144 23.5428 292.947 23.4644 292.743 23.4644C292.539 23.4644 292.342 23.5428 292.195 23.6834C290.11 25.3416 288.237 27.2491 286.619 29.3629C286.222 28.5963 285.825 27.8298 285.428 27.0632C284.969 26.1784 283.63 26.96 284.088 27.8441C284.669 28.9653 285.25 30.0865 285.831 31.2077C285.901 31.3222 286 31.4168 286.117 31.4824C286.234 31.548 286.366 31.5825 286.501 31.5825C286.635 31.5825 286.768 31.548 286.885 31.4824C287.002 31.4168 287.101 31.3222 287.171 31.2077C288.895 28.7857 290.956 26.6206 293.292 24.7774C293.436 24.6318 293.517 24.4352 293.517 24.2304C293.517 24.0256 293.436 23.8291 293.292 23.6834Z" fill="white"/>
<path d="M186.896 36.5342C192.322 36.5342 196.721 32.1473 196.721 26.7357C196.721 21.3241 192.322 16.9371 186.896 16.9371C181.47 16.9371 177.071 21.3241 177.071 26.7357C177.071 32.1473 181.47 36.5342 186.896 36.5342Z" fill="#E6E6E6"/>
<path d="M191.94 22.6521C191.792 22.5114 191.595 22.433 191.391 22.433C191.187 22.433 190.99 22.5114 190.843 22.6521C188.758 24.3103 186.885 26.2177 185.267 28.3315C184.87 27.565 184.473 26.7984 184.076 26.0318C183.617 25.147 182.278 25.9286 182.736 26.8127C183.317 27.9339 183.898 29.0551 184.479 30.1764C184.549 30.2908 184.648 30.3854 184.765 30.451C184.882 30.5167 185.014 30.5511 185.149 30.5511C185.283 30.5511 185.416 30.5167 185.533 30.451C185.65 30.3854 185.749 30.2908 185.819 30.1764C187.543 27.7544 189.604 25.5893 191.94 23.7461C192.084 23.6004 192.165 23.4038 192.165 23.1991C192.165 22.9943 192.084 22.7977 191.94 22.6521Z" fill="white"/>
<path d="M69.5138 76.76C73.2264 76.76 76.2361 73.7584 76.2361 70.0557C76.2361 66.353 73.2264 63.3514 69.5138 63.3514C65.8012 63.3514 62.7915 66.353 62.7915 70.0557C62.7915 73.7584 65.8012 76.76 69.5138 76.76Z" fill="#2F2E41"/>
<path d="M146.169 306.386C146.169 306.467 146.154 306.547 146.123 306.621C146.092 306.696 146.047 306.764 145.99 306.821C145.932 306.878 145.864 306.923 145.79 306.954C145.715 306.984 145.635 307 145.554 307H0.615353C0.452151 307 0.295632 306.935 0.180231 306.82C0.0648306 306.705 0 306.549 0 306.386C0 306.223 0.0648306 306.067 0.180231 305.952C0.295632 305.837 0.452151 305.772 0.615353 305.772H145.554C145.635 305.772 145.715 305.788 145.79 305.819C145.864 305.849 145.932 305.895 145.99 305.952C146.047 306.009 146.092 306.076 146.123 306.151C146.154 306.226 146.169 306.306 146.169 306.386Z" fill="#CCCCCC"/>
<path d="M519 306.386C519 306.467 518.984 306.547 518.954 306.621C518.923 306.696 518.877 306.764 518.82 306.821C518.763 306.878 518.695 306.923 518.62 306.954C518.546 306.984 518.465 307 518.385 307H373.446C373.283 307 373.126 306.935 373.011 306.82C372.896 306.705 372.831 306.549 372.831 306.386C372.831 306.223 372.896 306.067 373.011 305.952C373.126 305.837 373.283 305.772 373.446 305.772H518.385C518.465 305.772 518.546 305.788 518.62 305.819C518.695 305.849 518.763 305.895 518.82 305.952C518.877 306.009 518.923 306.076 518.954 306.151C518.984 306.226 519 306.306 519 306.386Z" fill="#CCCCCC"/>
<path d="M67.4892 63.3312C66.3256 63.0083 65.1153 63.5489 64.0293 64.076L60.1663 65.9509C62.8407 66.1849 65.5151 66.419 68.1895 66.653L68.485 66.0984C69.4107 65.3246 68.6528 63.654 67.4892 63.3312Z" fill="#2F2E41"/>
</g>
<defs>
<clipPath id="clip0_20_118">
<rect width="519" height="307" fill="white"/>
</clipPath>
</defs>
</svg>
